{
copyright = "Copyright (c) 2015, Cadson Demak (info@cadsondemak.com)";
customParameters = (
{
name = vendorID;
value = CDK;
},
{
name = description;
value = "Copyright (c) 2015, Cadson Demak (info@cadsondemak.com)";
},
{
name = license;

glyphs = (
{
glyphname = A;
lastChange = "2015-11-30 01:26:56 +0000";
layers = (
{
layerId = "C917F9CB-DEFA-4BDD-B24E-8B4296F56613";
name = "SemiBold Italic";
paths = (
{
closed = 1;
nodes = (
"143 0 LINE",
"235 152 LINE",
"512 152 LINE",
"540 0 LINE",
"690 0 LINE",
"559 699 LINE",
"410 699 LINE",
"-18 0 LINE"
);
},
{
closed = 1;
nodes = (
"455 539 LINE",
"498 273 LINE",
"300 273 LINE"
);
}
);
width = 772;
}
);
leftKerningGroup = A;
note = A;
rightKerningGroup = A;
unicode = 0041;
},
{
glyphname = Aacute;
lastChange = "2015-11-30 01:26:55 +0000";
layers = (
{
layerId = "C917F9CB-DEFA-4BDD-B24E-8B4296F56613";
name = "SemiBold Italic";
paths = (
{
closed = 1;
nodes = (
"143 0 LINE",
"235 152 LINE",
"512 152 LINE",
"540 0 LINE",
"690 0 LINE",
"559 699 LINE",
"410 699 LINE",
"-18 0 LINE"
);
},
{
closed = 1;
nodes = (
"455 539 LINE",
"498 273 LINE",
"300 273 LINE"
);
},
{
closed = 1;
nodes = (
"548 742 LINE",
"674 918 LINE",
"515 918 LINE",
"409 742 LINE"
);
}
);
width = 772;
}
);
leftKerningGroup = A;
note = Aacute;
rightKerningGroup = A;
unicode = 00C1;
},
{
glyphname = Abreve;
lastChange = "2015-11-30 01:26:55 +0000";
layers = (
{
layerId = "C917F9CB-DEFA-4BDD-B24E-8B4296F56613";
name = "SemiBold Italic";
paths = (
{
closed = 1;
nodes = (
"143 0 LINE",
"235 152 LINE",
"512 152 LINE",
"540 0 LINE",
"690 0 LINE",
"559 699 LINE",
"410 699 LINE",
"-18 0 LINE"
);
},
{
closed = 1;
nodes = (
"455 539 LINE",
"498 273 LINE",
"300 273 LINE"
);
},
{
closed = 1;
nodes = (
"581 742 OFFCURVE",
"658 807 OFFCURVE",
"679 904 CURVE",
"566 904 LINE",
"557 862 OFFCURVE",
"530 840 OFFCURVE",
"493 840 CURVE SMOOTH",
"455 840 OFFCURVE",
"439 862 OFFCURVE",
"448 904 CURVE",
"336 904 LINE",
"315 807 OFFCURVE",
"363 742 OFFCURVE",
"472 742 CURVE SMOOTH"
);
}
);
width = 772;
}
);
leftKerningGroup = A;
note = Abreve;
rightKerningGroup = A;
unicode = 0102;
},
{
glyphname = Abreveacute;
lastChange = "2015-11-30 01:26:55 +0000";
layers = (
{
layerId = "C917F9CB-DEFA-4BDD-B24E-8B4296F56613";
name = "SemiBold Italic";
paths = (
{
closed = 1;
nodes = (
"143 0 LINE",
"235 152 LINE",
"512 152 LINE",
"540 0 LINE",
"690 0 LINE",
"559 699 LINE",
"410 699 LINE",
"-18 0 LINE"
);
},
{
closed = 1;
nodes = (
"455 539 LINE",
"498 273 LINE",
"300 273 LINE"
);
},
{
closed = 1;
nodes = (
"594 742 OFFCURVE",
"669 799 OFFCURVE",
"688 890 CURVE",
"585 890 LINE",
"576 850 OFFCURVE",
"551 831 OFFCURVE",
"512 831 CURVE SMOOTH",
"472 831 OFFCURVE",
"455 850 OFFCURVE",
"464 890 CURVE",
"360 890 LINE",
"341 799 OFFCURVE",
"392 742 OFFCURVE",
"493 742 CURVE SMOOTH"
);
},
{
closed = 1;
nodes = (
"580 903 LINE",
"675 1030 LINE",
"553 1030 LINE",
"475 903 LINE"
);
}
);
width = 772;
}
);
leftKerningGroup = A;
note = Abreveacute;
rightKerningGroup = A;
unicode = 1EAE;
},
{
glyphname = Abrevedotbelow;
lastChange = "2015-11-30 01:26:56 +0000";
layers = (
{
layerId = "C917F9CB-DEFA-4BDD-B24E-8B4296F56613";
name = "SemiBold Italic";
paths = (
{
closed = 1;
nodes = (
"143 0 LINE",
"235 152 LINE",
"512 152 LINE",
"540 0 LINE",
"690 0 LINE",
"559 699 LINE",
"410 699 LINE",
"-18 0 LINE"
);
},
{
closed = 1;
nodes = (
"336 -190 OFFCURVE",
"374 -158 OFFCURVE",
"382 -118 CURVE SMOOTH",
"391 -78 OFFCURVE",
"366 -46 OFFCURVE",
"328 -46 CURVE SMOOTH",
"289 -46 OFFCURVE",
"248 -78 OFFCURVE",
"239 -118 CURVE SMOOTH",
"231 -158 OFFCURVE",
"258 -190 OFFCURVE",
"297 -190 CURVE SMOOTH"
);
},
{
closed = 1;
nodes = (
"455 539 LINE",
"498 273 LINE",
"300 273 LINE"
);
},
{
closed = 1;
nodes = (
"581 742 OFFCURVE",
"658 807 OFFCURVE",
"679 904 CURVE",
"566 904 LINE",
"557 862 OFFCURVE",
"530 840 OFFCURVE",
"493 840 CURVE SMOOTH",
"455 840 OFFCURVE",
"439 862 OFFCURVE",
"448 904 CURVE",
"336 904 LINE",
"315 807 OFFCURVE",
"363 742 OFFCURVE",
"472 742 CURVE SMOOTH"
);
}
);
width = 772;
}
);
leftKerningGroup = A;
note = Abrevedotbelow;
rightKerningGroup = A;
unicode = 1EB6;
},
{
glyphname = Abrevegrave;
lastChange = "2015-11-30 01:26:56 +0000";
layers = (
{
layerId = "C917F9CB-DEFA-4BDD-B24E-8B4296F56613";
name = "SemiBold Italic";
paths = (
{
closed = 1;
nodes = (
"143 0 LINE",
"235 152 LINE",
"512 152 LINE",
"540 0 LINE",
"690 0 LINE",
"559 699 LINE",
"410 699 LINE",
"-18 0 LINE"
);
},
{
closed = 1;
nodes = (
"455 539 LINE",
"498 273 LINE",
"300 273 LINE"
);
},
{
closed = 1;
nodes = (
"594 742 OFFCURVE",
"669 799 OFFCURVE",
"688 890 CURVE",
"586 890 LINE",
"577 850 OFFCURVE",
"551 831 OFFCURVE",
"512 831 CURVE SMOOTH",
"472 831 OFFCURVE",
"455 850 OFFCURVE",
"464 890 CURVE",
"360 890 LINE",
"341 799 OFFCURVE",
"392 742 OFFCURVE",
"493 742 CURVE SMOOTH"
);
},
{
closed = 1;
nodes = (
"580 903 LINE",
"556 1030 LINE",
"434 1030 LINE",
"475 903 LINE"
);
}
);
width = 772;
}
);
leftKerningGroup = A;
note = Abrevegrave;
rightKerningGroup = A;
unicode = 1EB0;
},
{
glyphname = Abrevehookabove;
lastChange = "2015-11-30 01:26:56 +0000";
layers = (
{
layerId = "C917F9CB-DEFA-4BDD-B24E-8B4296F56613";
name = "SemiBold Italic";
paths = (
{
closed = 1;
nodes = (
"143 0 LINE",
"235 152 LINE",
"512 152 LINE",
"540 0 LINE",
"690 0 LINE",
"559 699 LINE",
"410 699 LINE",
"-18 0 LINE"
);
},
{
closed = 1;
nodes = (
"455 539 LINE",
"498 273 LINE",
"300 273 LINE"
);
},
{
closed = 1;
nodes = (
"594 742 OFFCURVE",
"670 799 OFFCURVE",
"689 890 CURVE",
"587 890 LINE",
"578 850 OFFCURVE",
"552 830 OFFCURVE",
"512 830 CURVE SMOOTH",
"473 830 OFFCURVE",
"455 850 OFFCURVE",
"464 890 CURVE",
"361 890 LINE",
"342 799 OFFCURVE",
"392 742 OFFCURVE",
"493 742 CURVE SMOOTH"
);
},
{
closed = 1;
nodes = (
"575 892 LINE",
"580 913 LINE",
"621 921 OFFCURVE",
"648 945 OFFCURVE",
"655 980 CURVE SMOOTH",
"664 1023 OFFCURVE",
"635 1052 OFFCURVE",
"568 1052 CURVE SMOOTH",
"543 1052 OFFCURVE",
"508 1047 OFFCURVE",
"488 1040 CURVE",
"476 986 LINE",
"485 991 OFFCURVE",
"503 994 OFFCURVE",
"516 994 CURVE SMOOTH",
"544 994 OFFCURVE",
"556 988 OFFCURVE",
"552 969 CURVE SMOOTH",
"547 947 OFFCURVE",
"527 941 OFFCURVE",
"492 941 CURVE",
"481 892 LINE"
);
}
);
width = 772;
}
);
leftKerningGroup = A;
note = Abrevehookabove;
rightKerningGroup = A;
unicode = 1EB2;
},
{
glyphname = Abrevetilde;
lastChange = "2015-11-30 01:26:56 +0000";
layers = (
{
layerId = "C917F9CB-DEFA-4BDD-B24E-8B4296F56613";
name = "SemiBold Italic";
paths = (
{
closed = 1;
nodes = (
"143 0 LINE",
"235 152 LINE",
"512 152 LINE",
"540 0 LINE",
"690 0 LINE",
"559 699 LINE",
"410 699 LINE",
"-18 0 LINE"
);
},
{
closed = 1;
nodes = (
"455 539 LINE",
"498 273 LINE",
"300 273 LINE"
);
},
{
closed = 1;
nodes = (
"594 742 OFFCURVE",
"669 799 OFFCURVE",
"688 890 CURVE",
"586 890 LINE",
"577 850 OFFCURVE",
"551 831 OFFCURVE",
"512 831 CURVE SMOOTH",
"472 831 OFFCURVE",
"455 850 OFFCURVE",
"464 890 CURVE",
"360 890 LINE",
"341 799 OFFCURVE",
"392 742 OFFCURVE",
"493 742 CURVE SMOOTH"
);
},
{
closed = 1;
nodes = (
"646 923 OFFCURVE",
"674 933 OFFCURVE",
"697 957 CURVE",
"718 1053 LINE",
"688 1023 OFFCURVE",
"660 1011 OFFCURVE",
"630 1011 CURVE SMOOTH",
"580 1011 OFFCURVE",
"533 1054 OFFCURVE",
"482 1054 CURVE SMOOTH",
"446 1054 OFFCURVE",
"417 1044 OFFCURVE",
"393 1019 CURVE",
"373 924 LINE",
"404 954 OFFCURVE",
"431 966 OFFCURVE",
"463 966 CURVE SMOOTH",
"511 966 OFFCURVE",
"555 923 OFFCURVE",
"611 923 CURVE SMOOTH"
);
}
);
width = 772;
}
);
leftKerningGroup = A;
note = Abrevetilde;
rightKerningGroup = A;
unicode = 1EB4;
},
{
glyphname = Acaron;
lastChange = "2015-11-30 01:26:56 +0000";
layers = (
{
layerId = "C917F9CB-DEFA-4BDD-B24E-8B4296F56613";
name = "SemiBold Italic";
paths = (
{
closed = 1;
nodes = (
"143 0 LINE",
"235 152 LINE",
"512 152 LINE",
"540 0 LINE",
"690 0 LINE",
"559 699 LINE",
"410 699 LINE",
"-18 0 LINE"
);
},
{
closed = 1;
nodes = (
"455 539 LINE",
"498 273 LINE",
"300 273 LINE"
);
},
{
closed = 1;
nodes = (
"541 742 LINE",
"729 918 LINE",
"579 918 LINE",
"492 826 LINE",
"443 918 LINE",
"293 918 LINE",
"406 742 LINE"
);
}
);
width = 772;
}
);
leftKerningGroup = A;
note = Acaron;
rightKerningGroup = A;
unicode = 01CD;
},
{
glyphname = Acircumflex;
lastChange = "2015-11-30 01:26:56 +0000";
layers = (
{
layerId = "C917F9CB-DEFA-4BDD-B24E-8B4296F56613";
name = "SemiBold Italic";
paths = (
{
closed = 1;
nodes = (
"143 0 LINE",
"235 152 LINE",
"512 152 LINE",
"540 0 LINE",
"690 0 LINE",
"559 699 LINE",
"410 699 LINE",
"-18 0 LINE"
);
},
{
closed = 1;
nodes = (
"455 539 LINE",
"498 273 LINE",
"300 273 LINE"
);
},
{
closed = 1;
nodes = (
"406 742 LINE",
"494 834 LINE",
"542 742 LINE",
"692 742 LINE",
"578 918 LINE",
"443 918 LINE",
"256 742 LINE"
);
}
);
width = 772;
}
);
leftKerningGroup = A;
note = Acircumflex;
rightKerningGroup = A;
unicode = 00C2;
},
{
glyphname = Acircumflexacute;
lastChange = "2015-11-30 01:26:56 +0000";
layers = (
{
layerId = "C917F9CB-DEFA-4BDD-B24E-8B4296F56613";
name = "SemiBold Italic";
paths = (
{
closed = 1;
nodes = (
"143 0 LINE",
"235 152 LINE",
"512 152 LINE",
"540 0 LINE",
"690 0 LINE",
"559 699 LINE",
"410 699 LINE",
"-18 0 LINE"
);
},
{
closed = 1;
nodes = (
"455 539 LINE",
"498 273 LINE",
"300 273 LINE"
);
},
{
closed = 1;
nodes = (
"432 742 LINE",
"513 818 LINE",
"562 742 LINE",
"699 742 LINE",
"588 897 LINE",
"473 897 LINE",
"294 742 LINE"
);
},
{
closed = 1;
nodes = (
"772 850 LINE",
"879 983 LINE",
"740 983 LINE",
"653 850 LINE"
);
}
);
width = 771;
}
);
leftKerningGroup = A;
note = Acircumflexacute;
rightKerningGroup = A;
unicode = 1EA4;
},
{
glyphname = Acircumflexdotbelow;
lastChange = "2015-11-30 01:26:57 +0000";
layers = (
{
layerId = "C917F9CB-DEFA-4BDD-B24E-8B4296F56613";
name = "SemiBold Italic";
paths = (
{
closed = 1;
nodes = (
"143 0 LINE",
"235 152 LINE",
"512 152 LINE",
"540 0 LINE",
"690 0 LINE",
"559 699 LINE",
"410 699 LINE",
"-18 0 LINE"
);
},
{
closed = 1;
nodes = (
"336 -190 OFFCURVE",
"374 -158 OFFCURVE",
"382 -118 CURVE SMOOTH",
"391 -78 OFFCURVE",
"366 -46 OFFCURVE",
"328 -46 CURVE SMOOTH",
"289 -46 OFFCURVE",
"248 -78 OFFCURVE",
"239 -118 CURVE SMOOTH",
"231 -158 OFFCURVE",
"258 -190 OFFCURVE",
"297 -190 CURVE SMOOTH"
);
},
{
closed = 1;
nodes = (
"455 539 LINE",
"498 273 LINE",
"300 273 LINE"
);
},
{
closed = 1;
nodes = (
"406 742 LINE",
"494 834 LINE",
"542 742 LINE",
"692 742 LINE",
"578 918 LINE",
"443 918 LINE",
"256 742 LINE"
);
}
);
width = 772;
}
);
leftKerningGroup = A;
note = Acircumflexdotbelow;
rightKerningGroup = A;
unicode = 1EAC;
},
{
glyphname = Acircumflexgrave;
lastChange = "2015-11-30 01:26:56 +0000";
layers = (
{
layerId = "C917F9CB-DEFA-4BDD-B24E-8B4296F56613";
name = "SemiBold Italic";
paths = (
{
closed = 1;
nodes = (
"139 0 LINE",
"231 152 LINE",
"508 152 LINE",
"536 0 LINE",
"686 0 LINE",
"555 699 LINE",
"406 699 LINE",
"-22 0 LINE"
);
},
{
closed = 1;
nodes = (
"451 539 LINE",
"494 273 LINE",
"296 273 LINE"
);
},
{
closed = 1;
nodes = (
"384 850 LINE",
"352 983 LINE",
"212 983 LINE",
"263 850 LINE"
);
},
{
closed = 1;
nodes = (
"428 742 LINE",
"509 818 LINE",
"557 742 LINE",
"695 742 LINE",
"583 897 LINE",
"469 897 LINE",
"291 742 LINE"
);
}
);
width = 769;
}
);
leftKerningGroup = A;
note = Acircumflexgrave;
rightKerningGroup = A;
unicode = 1EA6;
},
{
glyphname = Acircumflexhookabove;
lastChange = "2015-11-30 01:26:57 +0000";
layers = (
{
layerId = "C917F9CB-DEFA-4BDD-B24E-8B4296F56613";
name = "SemiBold Italic";
paths = (
{
closed = 1;
nodes = (
"143 0 LINE",
"235 152 LINE",
"512 152 LINE",
"540 0 LINE",
"690 0 LINE",
"559 699 LINE",
"410 699 LINE",
"-18 0 LINE"
);
},
{
closed = 1;
nodes = (
"455 539 LINE",
"498 273 LINE",
"300 273 LINE"
);
},
{
closed = 1;
nodes = (
"428 742 LINE",
"509 818 LINE",
"558 742 LINE",
"695 742 LINE",
"584 897 LINE",
"469 897 LINE",
"290 742 LINE"
);
},
{
closed = 1;
nodes = (
"740 839 LINE",
"745 863 LINE",
"786 871 OFFCURVE",
"814 895 OFFCURVE",
"821 928 CURVE SMOOTH",
"830 971 OFFCURVE",
"799 1000 OFFCURVE",
"734 1000 CURVE SMOOTH",
"708 1000 OFFCURVE",
"673 995 OFFCURVE",
"654 989 CURVE",
"643 935 LINE",
"653 939 OFFCURVE",
"669 942 OFFCURVE",
"682 942 CURVE SMOOTH",
"709 942 OFFCURVE",
"722 936 OFFCURVE",
"718 918 CURVE SMOOTH",
"713 896 OFFCURVE",
"693 889 OFFCURVE",
"657 889 CURVE",
"647 839 LINE"
);
}
);
width = 772;
}
);
leftKerningGroup = A;
note = Acircumflexhookabove;
rightKerningGroup = A;
unicode = 1EA8;
},
{
glyphname = Acircumflextilde;
lastChange = "2015-11-30 01:26:56 +0000";
layers = (
{
layerId = "C917F9CB-DEFA-4BDD-B24E-8B4296F56613";
name = "SemiBold Italic";
paths = (
{
closed = 1;
nodes = (
"143 0 LINE",
"235 152 LINE",
"512 152 LINE",
"540 0 LINE",
"690 0 LINE",
"559 699 LINE",
"410 699 LINE",
"-18 0 LINE"
);
},
{
closed = 1;
nodes = (
"455 539 LINE",
"498 273 LINE",
"300 273 LINE"
);
},
{
closed = 1;
nodes = (
"429 742 LINE",
"510 818 LINE",
"559 742 LINE",
"696 742 LINE",
"585 897 LINE",
"470 897 LINE",
"291 742 LINE"
);
},
{
closed = 1;
nodes = (
"648 908 OFFCURVE",
"676 918 OFFCURVE",
"699 942 CURVE",
"720 1038 LINE",
"691 1008 OFFCURVE",
"662 996 OFFCURVE",
"632 996 CURVE SMOOTH",
"583 996 OFFCURVE",
"535 1039 OFFCURVE",
"484 1039 CURVE SMOOTH",
"449 1039 OFFCURVE",
"420 1029 OFFCURVE",
"396 1004 CURVE",
"376 909 LINE",
"406 939 OFFCURVE",
"434 951 OFFCURVE",
"465 951 CURVE SMOOTH",
"513 951 OFFCURVE",
"558 908 OFFCURVE",
"613 908 CURVE SMOOTH"
);
}
);
width = 772;
}
);
leftKerningGroup = A;
note = Acircumflextilde;
rightKerningGroup = A;
unicode = 1EAA;
},
{
glyphname = Adieresis;
lastChange = "2015-11-30 01:26:55 +0000";
layers = (
{
layerId = "C917F9CB-DEFA-4BDD-B24E-8B4296F56613";
name = "SemiBold Italic";
paths = (
{
closed = 1;
nodes = (
"143 0 LINE",
"235 152 LINE",
"512 152 LINE",
"540 0 LINE",
"690 0 LINE",
"559 699 LINE",
"410 699 LINE",
"-18 0 LINE"
);
},
{
closed = 1;
nodes = (
"455 539 LINE",
"498 273 LINE",
"300 273 LINE"
);
},
{
closed = 1;
nodes = (
"396 752 OFFCURVE",
"434 783 OFFCURVE",
"443 823 CURVE SMOOTH",
"451 863 OFFCURVE",
"426 895 OFFCURVE",
"387 895 CURVE SMOOTH",
"349 895 OFFCURVE",
"309 863 OFFCURVE",
"301 823 CURVE SMOOTH",
"292 783 OFFCURVE",
"319 752 OFFCURVE",
"357 752 CURVE SMOOTH"
);
},
{
closed = 1;
nodes = (
"632 752 OFFCURVE",
"671 783 OFFCURVE",
"680 823 CURVE SMOOTH",
"688 863 OFFCURVE",
"662 895 OFFCURVE",
"624 895 CURVE SMOOTH",
"585 895 OFFCURVE",
"544 863 OFFCURVE",
"536 823 CURVE SMOOTH",
"527 783 OFFCURVE",
"555 752 OFFCURVE",
"594 752 CURVE SMOOTH"
);
}
);
width = 772;
}
);
leftKerningGroup = A;
note = Adieresis;
rightKerningGroup = A;
unicode = 00C4;
},
{
glyphname = Adotbelow;
lastChange = "2015-11-30 01:26:55 +0000";
layers = (
{
layerId = "C917F9CB-DEFA-4BDD-B24E-8B4296F56613";
name = "SemiBold Italic";
paths = (
{
closed = 1;
nodes = (
"143 0 LINE",
"235 152 LINE",
"512 152 LINE",
"540 0 LINE",
"690 0 LINE",
"559 699 LINE",
"410 699 LINE",
"-18 0 LINE"
);
},
{
closed = 1;
nodes = (
"336 -190 OFFCURVE",
"374 -158 OFFCURVE",
"382 -118 CURVE SMOOTH",
"391 -78 OFFCURVE",
"366 -46 OFFCURVE",
"328 -46 CURVE SMOOTH",
"289 -46 OFFCURVE",
"248 -78 OFFCURVE",
"239 -118 CURVE SMOOTH",
"231 -158 OFFCURVE",
"258 -190 OFFCURVE",
"297 -190 CURVE SMOOTH"
);
},
{
closed = 1;
nodes = (
"455 539 LINE",
"498 273 LINE",
"300 273 LINE"
);
}
);
width = 772;
}
);
leftKerningGroup = A;
note = Adotbelow;
rightKerningGroup = A;
unicode = 1EA0;
},
{
glyphname = Agrave;
lastChange = "2015-11-30 01:26:56 +0000";
layers = (
{
layerId = "C917F9CB-DEFA-4BDD-B24E-8B4296F56613";
name = "SemiBold Italic";
paths = (
{
closed = 1;
nodes = (
"143 0 LINE",
"235 152 LINE",
"512 152 LINE",
"540 0 LINE",
"690 0 LINE",
"559 699 LINE",
"410 699 LINE",
"-18 0 LINE"
);
},
{
closed = 1;
nodes = (
"455 539 LINE",
"498 273 LINE",
"300 273 LINE"
);
},
{
closed = 1;
nodes = (
"544 742 LINE",
"512 918 LINE",
"353 918 LINE",
"404 742 LINE"
);
}
);
width = 772;
}
);
leftKerningGroup = A;
note = Agrave;
rightKerningGroup = A;
unicode = 00C0;
},
{
glyphname = Ahookabove;
lastChange = "2015-11-30 01:26:56 +0000";
layers = (
{
layerId = "C917F9CB-DEFA-4BDD-B24E-8B4296F56613";
name = "SemiBold Italic";
paths = (
{
closed = 1;
nodes = (
"143 0 LINE",
"235 152 LINE",
"512 152 LINE",
"540 0 LINE",
"690 0 LINE",
"559 699 LINE",
"410 699 LINE",
"-18 0 LINE"
);
},
{
closed = 1;
nodes = (
"455 539 LINE",
"498 273 LINE",
"300 273 LINE"
);
},
{
closed = 1;
nodes = (
"541 742 LINE",
"547 771 LINE",
"607 783 OFFCURVE",
"647 821 OFFCURVE",
"657 869 CURVE SMOOTH",
"670 930 OFFCURVE",
"630 972 OFFCURVE",
"530 972 CURVE SMOOTH",
"492 972 OFFCURVE",
"445 965 OFFCURVE",
"418 957 CURVE",
"402 882 LINE",
"416 888 OFFCURVE",
"450 893 OFFCURVE",
"466 893 CURVE SMOOTH",
"509 893 OFFCURVE",
"524 882 OFFCURVE",
"518 858 CURVE",
"511 824 OFFCURVE",
"476 814 OFFCURVE",
"424 814 CURVE",
"409 742 LINE"
);
}
);
width = 772;
}
);
leftKerningGroup = A;
note = Ahookabove;
rightKerningGroup = A;
unicode = 1EA2;
},
{
glyphname = Amacron;
lastChange = "2015-11-30 01:26:56 +0000";
layers = (
{
layerId = "C917F9CB-DEFA-4BDD-B24E-8B4296F56613";
name = "SemiBold Italic";
paths = (
{
closed = 1;
nodes = (
"143 0 LINE",
"235 152 LINE",
"512 152 LINE",
"540 0 LINE",
"690 0 LINE",
"559 699 LINE",
"410 699 LINE",
"-18 0 LINE"
);
},
{
closed = 1;
nodes = (
"455 539 LINE",
"498 273 LINE",
"300 273 LINE"
);
},
{
closed = 1;
nodes = (
"642 752 LINE",
"662 850 LINE",
"329 850 LINE",
"309 752 LINE"
);
}
);
width = 772;
}
);
leftKerningGroup = A;
note = Amacron;
rightKerningGroup = A;
unicode = 0100;
},
{
glyphname = Aogonek;
lastChange = "2015-11-30 01:26:55 +0000";
layers = (
{
layerId = "C917F9CB-DEFA-4BDD-B24E-8B4296F56613";
name = "SemiBold Italic";
paths = (
{
closed = 1;
nodes = (
"591 -215 OFFCURVE",
"628 -209 OFFCURVE",
"653 -201 CURVE",
"671 -117 LINE",
"655 -124 OFFCURVE",
"637 -128 OFFCURVE",
"620 -128 CURVE SMOOTH",
"598 -128 OFFCURVE",
"586 -115 OFFCURVE",
"591 -92 CURVE SMOOTH",
"598 -58 OFFCURVE",
"630 -30 OFFCURVE",
"690 0 CURVE",
"559 699 LINE",
"410 699 LINE",
"-18 0 LINE",
"143 0 LINE",
"235 152 LINE",
"512 152 LINE",
"540 0 LINE",
"505 -26 OFFCURVE",
"466 -67 OFFCURVE",
"455 -120 CURVE SMOOTH",
"442 -182 OFFCURVE",
"488 -215 OFFCURVE",
"556 -215 CURVE SMOOTH"
);
},
{
closed = 1;
nodes = (
"455 539 LINE",
"498 273 LINE",
"300 273 LINE"
);
}
);
width = 772;
}
);
leftKerningGroup = A;
note = Aogonek;
rightKerningGroup = A;
unicode = 0104;
},
{
glyphname = Aring;
lastChange = "2015-11-30 01:26:57 +0000";
layers = (
{
layerId = "C917F9CB-DEFA-4BDD-B24E-8B4296F56613";
name = "SemiBold Italic";
paths = (
{
closed = 1;
nodes = (
"143 0 LINE",
"235 152 LINE",
"512 152 LINE",
"540 0 LINE",
"690 0 LINE",
"563 675 LINE",
"597 699 OFFCURVE",
"624 735 OFFCURVE",
"633 776 CURVE SMOOTH",
"648 849 OFFCURVE",
"601 908 OFFCURVE",
"528 908 CURVE SMOOTH",
"454 908 OFFCURVE",
"382 849 OFFCURVE",
"367 776 CURVE SMOOTH",
"358 733 OFFCURVE",
"369 696 OFFCURVE",
"394 672 CURVE",
"-18 0 LINE"
);
},
{
closed = 1;
nodes = (
"455 539 LINE",
"498 273 LINE",
"300 273 LINE"
);
},
{
closed = 1;
nodes = (
"462 727 OFFCURVE",
"445 749 OFFCURVE",
"451 776 CURVE",
"456 803 OFFCURVE",
"483 824 OFFCURVE",
"510 824 CURVE SMOOTH",
"537 824 OFFCURVE",
"553 803 OFFCURVE",
"548 776 CURVE",
"542 749 OFFCURVE",
"516 727 OFFCURVE",
"489 727 CURVE SMOOTH"
);
}
);
width = 772;
}
);
leftKerningGroup = A;
note = Aring;
rightKerningGroup = A;
unicode = 00C5;
},
{
glyphname = Aringacute;
lastChange = "2015-11-30 01:26:57 +0000";
layers = (
{
layerId = "C917F9CB-DEFA-4BDD-B24E-8B4296F56613";
name = "SemiBold Italic";
paths = (
{
closed = 1;
nodes = (
"143 0 LINE",
"235 152 LINE",
"512 152 LINE",
"540 0 LINE",
"690 0 LINE",
"563 675 LINE",
"597 699 OFFCURVE",
"624 735 OFFCURVE",
"633 776 CURVE SMOOTH",
"648 849 OFFCURVE",
"601 908 OFFCURVE",
"528 908 CURVE SMOOTH",
"454 908 OFFCURVE",
"382 849 OFFCURVE",
"367 776 CURVE SMOOTH",
"358 733 OFFCURVE",
"369 696 OFFCURVE",
"394 672 CURVE",
"-18 0 LINE"
);
},
{
closed = 1;
nodes = (
"455 539 LINE",
"498 273 LINE",
"300 273 LINE"
);
},
{
closed = 1;
nodes = (
"462 727 OFFCURVE",
"445 749 OFFCURVE",
"451 776 CURVE",
"456 803 OFFCURVE",
"483 824 OFFCURVE",
"510 824 CURVE SMOOTH",
"537 824 OFFCURVE",
"553 803 OFFCURVE",
"548 776 CURVE",
"542 749 OFFCURVE",
"516 727 OFFCURVE",
"489 727 CURVE SMOOTH"
);
},
{
closed = 1;
nodes = (
"601 923 LINE",
"727 1064 LINE",
"568 1064 LINE",
"462 923 LINE"
);
}
);
width = 772;
}
);
leftKerningGroup = A;
note = Aringacute;
rightKerningGroup = A;
unicode = 01FA;
},
{
glyphname = Atilde;
lastChange = "2015-11-30 01:26:55 +0000";
layers = (
{
layerId = "C917F9CB-DEFA-4BDD-B24E-8B4296F56613";
name = "SemiBold Italic";
paths = (
{
closed = 1;
nodes = (
"143 0 LINE",
"235 152 LINE",
"512 152 LINE",
"540 0 LINE",
"690 0 LINE",
"559 699 LINE",
"410 699 LINE",
"-18 0 LINE"
);
},
{
closed = 1;
nodes = (
"455 539 LINE",
"498 273 LINE",
"300 273 LINE"
);
},
{
closed = 1;
nodes = (
"314 780 OFFCURVE",
"351 793 OFFCURVE",
"389 793 CURVE SMOOTH",
"453 793 OFFCURVE",
"498 743 OFFCURVE",
"571 743 CURVE SMOOTH",
"614 743 OFFCURVE",
"651 754 OFFCURVE",
"681 785 CURVE",
"705 900 LINE",
"669 863 OFFCURVE",
"633 850 OFFCURVE",
"594 850 CURVE SMOOTH",
"529 850 OFFCURVE",
"479 900 OFFCURVE",
"411 900 CURVE SMOOTH",
"369 900 OFFCURVE",
"330 888 OFFCURVE",
"299 857 CURVE",
"275 742 LINE"
);
}
);
width = 772;
}
);
leftKerningGroup = A;
note = Atilde;
rightKerningGroup = A;
unicode = 00C3;
},
{
glyphname = AE;
lastChange = "2015-11-30 01:26:56 +0000";
layers = (
{
layerId = "C917F9CB-DEFA-4BDD-B24E-8B4296F56613";
name = "SemiBold Italic";
paths = (
{
closed = 1;
nodes = (
"145 0 LINE",
"250 158 LINE",
"418 158 LINE",
"385 0 LINE",
"838 0 LINE",
"864 127 LINE",
"563 127 LINE",
"598 288 LINE",
"812 288 LINE",
"838 410 LINE",
"624 410 LINE",
"658 572 LINE",
"959 572 LINE",
"986 699 LINE",
"449 699 LINE",
"-18 0 LINE"
);
},
{
closed = 1;
nodes = (
"505 572 LINE",
"507 572 LINE",
"443 275 LINE",
"324 275 LINE"
);
}
);
width = 915;
}
);
leftKerningGroup = A;
note = AE;
rightKerningGroup = E;
unicode = 00C6;
},
{
glyphname = AEacute;
lastChange = "2015-11-30 01:26:56 +0000";
layers = (
{
layerId = "C917F9CB-DEFA-4BDD-B24E-8B4296F56613";
name = "SemiBold Italic";
paths = (
{
closed = 1;
nodes = (
"145 0 LINE",
"250 158 LINE",
"418 158 LINE",
"385 0 LINE",
"838 0 LINE",
"864 127 LINE",
"563 127 LINE",
"598 288 LINE",
"812 288 LINE",
"838 410 LINE",
"624 410 LINE",
"658 572 LINE",
"959 572 LINE",
"986 699 LINE",
"449 699 LINE",
"-18 0 LINE"
);
},
{
closed = 1;
nodes = (
"505 572 LINE",
"507 572 LINE",
"443 275 LINE",
"324 275 LINE"
);
},
{
closed = 1;
nodes = (
"702 742 LINE",
"828 918 LINE",
"669 918 LINE",
"563 742 LINE"
);
}
);
width = 920;
}
);
leftKerningGroup = A;
note = AEacute;
rightKerningGroup = E;
unicode = 01FC;
},
{
glyphname = B;
lastChange = "2015-11-30 01:26:55 +0000";
layers = (
{
layerId = "C917F9CB-DEFA-4BDD-B24E-8B4296F56613";
name = "SemiBold Italic";
paths = (
{
closed = 1;
nodes = (
"362 0 LINE SMOOTH",
"501 0 OFFCURVE",
"595 75 OFFCURVE",
"621 205 CURVE SMOOTH",
"637 285 OFFCURVE",
"614 338 OFFCURVE",
"551 363 CURVE",
"607 391 OFFCURVE",
"650 445 OFFCURVE",
"663 508 CURVE SMOOTH",
"687 625 OFFCURVE",
"611 699 OFFCURVE",
"493 699 CURVE SMOOTH",
"150 699 LINE",
"2 0 LINE"
);
},
{
closed = 1;
nodes = (
"217 298 LINE",
"383 298 LINE SMOOTH",
"450 298 OFFCURVE",
"482 272 OFFCURVE",
"468 204 CURVE SMOOTH",
"453 135 OFFCURVE",
"410 116 OFFCURVE",
"349 116 CURVE SMOOTH",
"178 116 LINE"
);
},
{
closed = 1;
nodes = (
"277 583 LINE",
"434 583 LINE SMOOTH",
"490 583 OFFCURVE",
"522 567 OFFCURVE",
"508 499 CURVE SMOOTH",
"495 438 OFFCURVE",
"454 415 OFFCURVE",
"404 415 CURVE SMOOTH",
"242 415 LINE"
);
}
);
width = 661;
}
);
note = B;
unicode = 0042;
},
{
glyphname = C;
lastChange = "2015-11-30 01:26:57 +0000";
layers = (
{
layerId = "C917F9CB-DEFA-4BDD-B24E-8B4296F56613";
name = "SemiBold Italic";
paths = (
{
closed = 1;
nodes = (
"456 -15 OFFCURVE",
"546 5 OFFCURVE",
"621 53 CURVE",
"651 197 LINE",
"574 144 OFFCURVE",
"495 123 OFFCURVE",
"399 123 CURVE SMOOTH",
"233 123 OFFCURVE",
"178 200 OFFCURVE",
"211 349 CURVE SMOOTH",
"242 488 OFFCURVE",
"349 574 OFFCURVE",
"495 574 CURVE SMOOTH",
"588 574 OFFCURVE",
"659 554 OFFCURVE",
"709 504 CURVE",
"739 648 LINE",
"683 693 OFFCURVE",
"609 714 OFFCURVE",
"511 714 CURVE SMOOTH",
"280 714 OFFCURVE",
"103 573 OFFCURVE",
"56 349 CURVE SMOOTH",
"8 125 OFFCURVE",
"143 -15 OFFCURVE",
"356 -15 CURVE SMOOTH"
);
}
);
width = 693;
}
);
leftKerningGroup = C;
note = C;
rightKerningGroup = C;
unicode = 0043;
},
{
glyphname = Cacute;
lastChange = "2015-11-30 01:26:55 +0000";
layers = (
{
layerId = "C917F9CB-DEFA-4BDD-B24E-8B4296F56613";
name = "SemiBold Italic";
paths = (
{
closed = 1;
nodes = (
"456 -15 OFFCURVE",
"546 5 OFFCURVE",
"621 53 CURVE",
"651 197 LINE",
"574 144 OFFCURVE",
"495 123 OFFCURVE",
"399 123 CURVE SMOOTH",
"233 123 OFFCURVE",
"178 200 OFFCURVE",
"211 349 CURVE SMOOTH",
"242 488 OFFCURVE",
"349 574 OFFCURVE",
"495 574 CURVE SMOOTH",
"588 574 OFFCURVE",
"659 554 OFFCURVE",
"709 504 CURVE",
"739 648 LINE",
"683 693 OFFCURVE",
"609 714 OFFCURVE",
"511 714 CURVE SMOOTH",
"280 714 OFFCURVE",
"103 573 OFFCURVE",
"56 349 CURVE SMOOTH",
"8 125 OFFCURVE",
"143 -15 OFFCURVE",
"356 -15 CURVE SMOOTH"
);
},
{
closed = 1;
nodes = (
"561 742 LINE",
"687 918 LINE",
"528 918 LINE",
"422 742 LINE"
);
}
);
width = 693;
}
);
leftKerningGroup = C;
note = Cacute;
rightKerningGroup = C;
unicode = 0106;
},
{
glyphname = Ccaron;
lastChange = "2015-11-30 01:26:57 +0000";
layers = (
{
layerId = "C917F9CB-DEFA-4BDD-B24E-8B4296F56613";
name = "SemiBold Italic";
paths = (
{
closed = 1;
nodes = (
"456 -15 OFFCURVE",
"546 5 OFFCURVE",
"621 53 CURVE",
"651 197 LINE",
"574 144 OFFCURVE",
"495 123 OFFCURVE",
"399 123 CURVE SMOOTH",
"233 123 OFFCURVE",
"178 200 OFFCURVE",
"211 349 CURVE SMOOTH",
"242 488 OFFCURVE",
"349 574 OFFCURVE",
"495 574 CURVE SMOOTH",
"588 574 OFFCURVE",
"659 554 OFFCURVE",
"709 504 CURVE",
"739 648 LINE",
"683 693 OFFCURVE",
"609 714 OFFCURVE",
"511 714 CURVE SMOOTH",
"280 714 OFFCURVE",
"103 573 OFFCURVE",
"56 349 CURVE SMOOTH",
"8 125 OFFCURVE",
"143 -15 OFFCURVE",
"356 -15 CURVE SMOOTH"
);
},
{
closed = 1;
nodes = (
"559 742 LINE",
"747 918 LINE",
"597 918 LINE",
"510 826 LINE",
"461 918 LINE",
"311 918 LINE",
"424 742 LINE"
);
}
);
width = 686;
}
);
leftKerningGroup = C;
note = Ccaron;
rightKerningGroup = C;
unicode = 010C;
},
{
glyphname = Ccedilla;
lastChange = "2015-11-30 01:26:55 +0000";
layers = (
{
layerId = "C917F9CB-DEFA-4BDD-B24E-8B4296F56613";
name = "SemiBold Italic";
paths = (
{
closed = 1;
nodes = (
"399 -248 OFFCURVE",
"467 -214 OFFCURVE",
"480 -146 CURVE SMOOTH",
"490 -94 OFFCURVE",
"466 -57 OFFCURVE",
"412 -49 CURVE",
"435 -10 LINE",
"504 -2 OFFCURVE",
"566 18 OFFCURVE",
"621 53 CURVE",
"651 197 LINE",
"574 144 OFFCURVE",
"495 123 OFFCURVE",
"399 123 CURVE SMOOTH",
"233 123 OFFCURVE",
"178 200 OFFCURVE",
"211 349 CURVE SMOOTH",
"242 488 OFFCURVE",
"349 574 OFFCURVE",
"495 574 CURVE SMOOTH",
"588 574 OFFCURVE",
"659 554 OFFCURVE",
"709 504 CURVE",
"739 648 LINE",
"683 693 OFFCURVE",
"609 714 OFFCURVE",
"511 714 CURVE SMOOTH",
"280 714 OFFCURVE",
"103 573 OFFCURVE",
"56 349 CURVE SMOOTH",
"12 145 OFFCURVE",
"120 11 OFFCURVE",
"301 -11 CURVE",
"256 -87 LINE",
"330 -87 OFFCURVE",
"351 -107 OFFCURVE",
"345 -134 CURVE SMOOTH",
"340 -158 OFFCURVE",
"318 -171 OFFCURVE",
"282 -171 CURVE SMOOTH",
"261 -171 OFFCURVE",
"238 -166 OFFCURVE",
"226 -158 CURVE",
"209 -235 LINE",
"227 -243 OFFCURVE",
"267 -248 OFFCURVE",
"308 -248 CURVE SMOOTH"
);
}
);
width = 693;
}
);
leftKerningGroup = C;
note = Ccedilla;
rightKerningGroup = C;
unicode = 00C7;
},
{
glyphname = Ccircumflex;
lastChange = "2015-11-30 01:26:55 +0000";
layers = (
{
layerId = "C917F9CB-DEFA-4BDD-B24E-8B4296F56613";
name = "SemiBold Italic";
paths = (
{
closed = 1;
nodes = (
"456 -15 OFFCURVE",
"546 5 OFFCURVE",
"621 53 CURVE",
"651 197 LINE",
"574 144 OFFCURVE",
"495 123 OFFCURVE",
"399 123 CURVE SMOOTH",
"233 123 OFFCURVE",
"178 200 OFFCURVE",
"211 349 CURVE SMOOTH",
"242 488 OFFCURVE",
"349 574 OFFCURVE",
"495 574 CURVE SMOOTH",
"588 574 OFFCURVE",
"659 554 OFFCURVE",
"709 504 CURVE",
"739 648 LINE",
"683 693 OFFCURVE",
"609 714 OFFCURVE",
"511 714 CURVE SMOOTH",
"280 714 OFFCURVE",
"103 573 OFFCURVE",
"56 349 CURVE SMOOTH",
"8 125 OFFCURVE",
"143 -15 OFFCURVE",
"356 -15 CURVE SMOOTH"
);
},
{
closed = 1;
nodes = (
"418 742 LINE",
"506 834 LINE",
"554 742 LINE",
"704 742 LINE",
"590 918 LINE",
"455 918 LINE",
"268 742 LINE"
);
}
);
width = 693;
}
);
leftKerningGroup = C;
note = Ccircumflex;
rightKerningGroup = C;
unicode = 0108;
},
{
glyphname = Cdotaccent;
lastChange = "2015-11-30 01:26:55 +0000";
layers = (
{
layerId = "C917F9CB-DEFA-4BDD-B24E-8B4296F56613";
name = "SemiBold Italic";
paths = (
{
closed = 1;
nodes = (
"456 -15 OFFCURVE",
"546 5 OFFCURVE",
"621 53 CURVE",
"651 197 LINE",
"574 144 OFFCURVE",
"495 123 OFFCURVE",
"399 123 CURVE SMOOTH",
"233 123 OFFCURVE",
"178 200 OFFCURVE",
"211 349 CURVE SMOOTH",
"242 488 OFFCURVE",
"349 574 OFFCURVE",
"495 574 CURVE SMOOTH",
"588 574 OFFCURVE",
"659 554 OFFCURVE",
"709 504 CURVE",
"739 648 LINE",
"683 693 OFFCURVE",
"609 714 OFFCURVE",
"511 714 CURVE SMOOTH",
"280 714 OFFCURVE",
"103 573 OFFCURVE",
"56 349 CURVE SMOOTH",
"8 125 OFFCURVE",
"143 -15 OFFCURVE",
"356 -15 CURVE SMOOTH"
);
},
{
closed = 1;
nodes = (
"534 752 OFFCURVE",
"572 783 OFFCURVE",
"581 823 CURVE SMOOTH",
"589 863 OFFCURVE",
"564 895 OFFCURVE",
"525 895 CURVE SMOOTH",
"486 895 OFFCURVE",
"445 863 OFFCURVE",
"437 823 CURVE SMOOTH",
"428 783 OFFCURVE",
"456 752 OFFCURVE",
"495 752 CURVE SMOOTH"
);
}
);
width = 693;
}
);
leftKerningGroup = C;
note = Cdotaccent;
rightKerningGroup = C;
unicode = 010A;
},
{
glyphname = D;
lastChange = "2015-11-30 01:26:56 +0000";
layers = (
{
layerId = "C917F9CB-DEFA-4BDD-B24E-8B4296F56613";
name = "SemiBold Italic";
paths = (
{
closed = 1;
nodes = (
"247 0 LINE SMOOTH",
"496 0 OFFCURVE",
"647 116 OFFCURVE",
"696 353 CURVE SMOOTH",
"739 560 OFFCURVE",
"614 699 OFFCURVE",
"393 699 CURVE SMOOTH",
"150 699 LINE",
"2 0 LINE"
);
},
{
closed = 1;
nodes = (
"275 572 LINE",
"376 572 LINE SMOOTH",
"531 572 OFFCURVE",
"570 495 OFFCURVE",
"541 353 CURVE SMOOTH",
"513 214 OFFCURVE",
"416 127 OFFCURVE",
"271 127 CURVE SMOOTH",
"180 127 LINE"
);
}
);
width = 703;
}
);
note = D;
rightKerningGroup = D;
unicode = 0044;
},
{
glyphname = Eth;
lastChange = "2015-11-30 01:26:55 +0000";
layers = (
{
layerId = "C917F9CB-DEFA-4BDD-B24E-8B4296F56613";
name = "SemiBold Italic";
paths = (
{
closed = 1;
nodes = (
"277 0 LINE SMOOTH",
"526 0 OFFCURVE",
"677 116 OFFCURVE",
"726 353 CURVE SMOOTH",
"769 560 OFFCURVE",
"644 699 OFFCURVE",
"423 699 CURVE SMOOTH",
"180 699 LINE",
"118 406 LINE",
"63 406 LINE",
"39 292 LINE",
"94 292 LINE",
"32 0 LINE"
);
},
{
closed = 1;
nodes = (
"245 292 LINE",
"404 292 LINE",
"428 406 LINE",
"269 406 LINE",
"305 572 LINE",
"406 572 LINE SMOOTH",
"561 572 OFFCURVE",
"600 495 OFFCURVE",
"571 353 CURVE SMOOTH",
"543 214 OFFCURVE",
"446 127 OFFCURVE",
"301 127 CURVE SMOOTH",
"210 127 LINE"
);
}
);
width = 733;
}
);
note = Eth;
rightKerningGroup = D;
unicode = 00D0;
},
{
glyphname = Dcaron;
lastChange = "2015-11-30 01:26:56 +0000";
layers = (
{
layerId = "C917F9CB-DEFA-4BDD-B24E-8B4296F56613";
name = "SemiBold Italic";
paths = (
{
closed = 1;
nodes = (
"247 0 LINE SMOOTH",
"496 0 OFFCURVE",
"647 116 OFFCURVE",
"696 353 CURVE SMOOTH",
"739 560 OFFCURVE",
"614 699 OFFCURVE",
"393 699 CURVE SMOOTH",
"150 699 LINE",
"2 0 LINE"
);
},
{
closed = 1;
nodes = (
"275 572 LINE",
"376 572 LINE SMOOTH",
"531 572 OFFCURVE",
"570 495 OFFCURVE",
"541 353 CURVE SMOOTH",
"513 214 OFFCURVE",
"416 127 OFFCURVE",
"271 127 CURVE SMOOTH",
"180 127 LINE"
);
},
{
closed = 1;
nodes = (
"482 742 LINE",
"670 918 LINE",
"520 918 LINE",
"433 826 LINE",
"384 918 LINE",
"234 918 LINE",
"347 742 LINE"
);
}
);
width = 703;
}
);
note = Dcaron;
rightKerningGroup = D;
unicode = 010E;
},
{
glyphname = Dcroat;
lastChange = "2015-11-30 01:26:56 +0000";
layers = (
{
layerId = "C917F9CB-DEFA-4BDD-B24E-8B4296F56613";
name = "SemiBold Italic";
paths = (
{
closed = 1;
nodes = (
"277 0 LINE SMOOTH",
"526 0 OFFCURVE",
"677 116 OFFCURVE",
"726 353 CURVE SMOOTH",
"769 560 OFFCURVE",
"644 699 OFFCURVE",
"423 699 CURVE SMOOTH",
"180 699 LINE",
"118 406 LINE",
"63 406 LINE",
"39 292 LINE",
"94 292 LINE",
"32 0 LINE"
);
},
{
closed = 1;
nodes = (
"245 292 LINE",
"404 292 LINE",
"428 406 LINE",
"269 406 LINE",
"305 572 LINE",
"406 572 LINE SMOOTH",
"561 572 OFFCURVE",
"600 495 OFFCURVE",
"571 353 CURVE SMOOTH",
"543 214 OFFCURVE",
"446 127 OFFCURVE",
"301 127 CURVE SMOOTH",
"210 127 LINE"
);
}
);
width = 733;
}
);
note = Dcroat;
rightKerningGroup = D;
unicode = 0110;
},
{
glyphname = Ddotbelow;
lastChange = "2015-11-30 01:26:55 +0000";
layers = (
{
layerId = "C917F9CB-DEFA-4BDD-B24E-8B4296F56613";
name = "SemiBold Italic";
paths = (
{
closed = 1;
nodes = (
"247 0 LINE SMOOTH",
"496 0 OFFCURVE",
"647 116 OFFCURVE",
"696 353 CURVE SMOOTH",
"739 560 OFFCURVE",
"614 699 OFFCURVE",
"393 699 CURVE SMOOTH",
"150 699 LINE",
"2 0 LINE"
);
},
{
closed = 1;
nodes = (
"241 -190 OFFCURVE",
"279 -158 OFFCURVE",
"287 -118 CURVE SMOOTH",
"296 -78 OFFCURVE",
"271 -46 OFFCURVE",
"233 -46 CURVE SMOOTH",
"194 -46 OFFCURVE",
"153 -78 OFFCURVE",
"144 -118 CURVE SMOOTH",
"136 -158 OFFCURVE",
"163 -190 OFFCURVE",
"202 -190 CURVE SMOOTH"
);
},
{
closed = 1;
nodes = (
"275 572 LINE",
"376 572 LINE SMOOTH",
"531 572 OFFCURVE",
"570 495 OFFCURVE",
"541 353 CURVE SMOOTH",
"513 214 OFFCURVE",
"416 127 OFFCURVE",
"271 127 CURVE SMOOTH",
"180 127 LINE"
);
}
);
width = 703;
}
);
note = Ddotbelow;
rightKerningGroup = D;
unicode = 1E0C;
},
{
glyphname = Dlinebelow;
lastChange = "2015-11-30 01:26:56 +0000";
layers = (
{
layerId = "C917F9CB-DEFA-4BDD-B24E-8B4296F56613";
name = "SemiBold Italic";
paths = (
{
closed = 1;
nodes = (
"247 0 LINE SMOOTH",
"496 0 OFFCURVE",
"647 116 OFFCURVE",
"696 353 CURVE SMOOTH",
"739 560 OFFCURVE",
"614 699 OFFCURVE",
"393 699 CURVE SMOOTH",
"150 699 LINE",
"2 0 LINE"
);
},
{
closed = 1;
nodes = (
"385 -162 LINE",
"406 -64 LINE",
"73 -64 LINE",
"52 -162 LINE"
);
},
{
closed = 1;
nodes = (
"275 572 LINE",
"376 572 LINE SMOOTH",
"531 572 OFFCURVE",
"570 495 OFFCURVE",
"541 353 CURVE SMOOTH",
"513 214 OFFCURVE",
"416 127 OFFCURVE",
"271 127 CURVE SMOOTH",
"180 127 LINE"
);
}
);
width = 703;
}
);
note = Dlinebelow;
rightKerningGroup = D;
unicode = 1E0E;
},
{
glyphname = E;
lastChange = "2015-11-30 01:26:57 +0000";
layers = (
{
layerId = "C917F9CB-DEFA-4BDD-B24E-8B4296F56613";
name = "SemiBold Italic";
paths = (
{
closed = 1;
nodes = (
"487 0 LINE",
"513 127 LINE",
"180 127 LINE",
"215 288 LINE",
"460 288 LINE",
"486 410 LINE",
"241 410 LINE",
"275 572 LINE",
"608 572 LINE",
"635 699 LINE",
"150 699 LINE",
"2 0 LINE"
);
}
);
width = 559;
}
);
leftKerningGroup = E;
note = E;
rightKerningGroup = E;
unicode = 0045;
},
{
glyphname = Eacute;
lastChange = "2015-11-30 01:26:55 +0000";
layers = (
{
layerId = "C917F9CB-DEFA-4BDD-B24E-8B4296F56613";
name = "SemiBold Italic";
paths = (
{
closed = 1;
nodes = (
"487 0 LINE",
"513 127 LINE",
"180 127 LINE",
"215 288 LINE",
"460 288 LINE",
"486 410 LINE",
"241 410 LINE",
"275 572 LINE",
"608 572 LINE",
"635 699 LINE",
"150 699 LINE",
"2 0 LINE"
);
},
{
closed = 1;
nodes = (
"438 742 LINE",
"564 918 LINE",
"405 918 LINE",
"299 742 LINE"
);
}
);
width = 559;
}
);
leftKerningGroup = E;
note = Eacute;
rightKerningGroup = E;
unicode = 00C9;
},
{
glyphname = Ebreve;
lastChange = "2015-11-30 01:26:55 +0000";
layers = (
{
layerId = "C917F9CB-DEFA-4BDD-B24E-8B4296F56613";
name = "SemiBold Italic";
paths = (
{
closed = 1;
nodes = (
"487 0 LINE",
"513 127 LINE",
"180 127 LINE",
"215 288 LINE",
"460 288 LINE",
"486 410 LINE",
"241 410 LINE",
"275 572 LINE",
"608 572 LINE",
"635 699 LINE",
"150 699 LINE",
"2 0 LINE"
);
},
{
closed = 1;
nodes = (
"504 742 OFFCURVE",
"581 807 OFFCURVE",
"602 904 CURVE",
"489 904 LINE",
"480 862 OFFCURVE",
"453 840 OFFCURVE",
"416 840 CURVE SMOOTH",
"378 840 OFFCURVE",
"362 862 OFFCURVE",
"371 904 CURVE",
"259 904 LINE",
"238 807 OFFCURVE",
"286 742 OFFCURVE",
"395 742 CURVE SMOOTH"
);
}
);
width = 559;
}
);
leftKerningGroup = E;
note = Ebreve;
rightKerningGroup = E;
unicode = 0114;
},
{
glyphname = Ecaron;
lastChange = "2015-11-30 01:26:56 +0000";
layers = (
{
layerId = "C917F9CB-DEFA-4BDD-B24E-8B4296F56613";
name = "SemiBold Italic";
paths = (
{
closed = 1;
nodes = (
"487 0 LINE",
"513 127 LINE",
"180 127 LINE",
"215 288 LINE",
"460 288 LINE",
"486 410 LINE",
"241 410 LINE",
"275 572 LINE",
"608 572 LINE",
"635 699 LINE",
"150 699 LINE",
"2 0 LINE"
);
},
{
closed = 1;
nodes = (
"464 742 LINE",
"652 918 LINE",
"502 918 LINE",
"415 826 LINE",
"366 918 LINE",
"216 918 LINE",
"329 742 LINE"
);
}
);
width = 559;
}
);
leftKerningGroup = E;
note = Ecaron;
rightKerningGroup = E;
unicode = 011A;
},
{
glyphname = Ecircumflex;
lastChange = "2015-11-30 01:26:57 +0000";
layers = (
{
layerId = "C917F9CB-DEFA-4BDD-B24E-8B4296F56613";
name = "SemiBold Italic";
paths = (
{
closed = 1;
nodes = (
"487 0 LINE",
"513 127 LINE",
"180 127 LINE",
"215 288 LINE",
"460 288 LINE",
"486 410 LINE",
"241 410 LINE",
"275 572 LINE",
"608 572 LINE",
"635 699 LINE",
"150 699 LINE",
"2 0 LINE"
);
},
{
closed = 1;
nodes = (
"306 742 LINE",
"394 834 LINE",
"442 742 LINE",
"592 742 LINE",
"478 918 LINE",
"343 918 LINE",
"156 742 LINE"
);
}
);
width = 559;
}
);
leftKerningGroup = E;
note = Ecircumflex;
rightKerningGroup = E;
unicode = 00CA;
},
{
glyphname = Ecircumflexacute;
lastChange = "2015-11-30 01:26:55 +0000";
layers = (
{
layerId = "C917F9CB-DEFA-4BDD-B24E-8B4296F56613";
name = "SemiBold Italic";
paths = (
{
closed = 1;
nodes = (
"487 0 LINE",
"513 127 LINE",
"180 127 LINE",
"215 288 LINE",
"460 288 LINE",
"486 410 LINE",
"241 410 LINE",
"275 572 LINE",
"608 572 LINE",
"635 699 LINE",
"150 699 LINE",
"2 0 LINE"
);
},
{
closed = 1;
nodes = (
"330 742 LINE",
"411 818 LINE",
"460 742 LINE",
"597 742 LINE",
"486 897 LINE",
"371 897 LINE",
"192 742 LINE"
);
},
{
closed = 1;
nodes = (
"670 850 LINE",
"777 983 LINE",
"638 983 LINE",
"551 850 LINE"
);
}
);
width = 559;
}
);
leftKerningGroup = E;
note = Ecircumflexacute;
rightKerningGroup = E;
unicode = 1EBE;
},
{
glyphname = Ecircumflexdotbelow;
lastChange = "2015-11-30 01:26:56 +0000";
layers = (
{
layerId = "C917F9CB-DEFA-4BDD-B24E-8B4296F56613";
name = "SemiBold Italic";
paths = (
{
closed = 1;
nodes = (
"488 0 LINE",
"514 127 LINE",
"181 127 LINE",
"216 288 LINE",
"461 288 LINE",
"487 410 LINE",
"242 410 LINE",
"276 572 LINE",
"609 572 LINE",
"636 699 LINE",
"151 699 LINE",
"3 0 LINE"
);
},
{
closed = 1;
nodes = (
"249 -190 OFFCURVE",
"287 -158 OFFCURVE",
"295 -118 CURVE SMOOTH",
"304 -78 OFFCURVE",
"279 -46 OFFCURVE",
"241 -46 CURVE SMOOTH",
"202 -46 OFFCURVE",
"161 -78 OFFCURVE",
"152 -118 CURVE SMOOTH",
"144 -158 OFFCURVE",
"171 -190 OFFCURVE",
"210 -190 CURVE SMOOTH"
);
},
{
closed = 1;
nodes = (
"318 742 LINE",
"406 834 LINE",
"454 742 LINE",
"604 742 LINE",
"490 918 LINE",
"355 918 LINE",
"168 742 LINE"
);
}
);
width = 559;
}
);
leftKerningGroup = E;
note = Ecircumflexdotbelow;
rightKerningGroup = E;
unicode = 1EC6;
},
{
glyphname = Ecircumflexgrave;
lastChange = "2015-11-30 01:26:56 +0000";
layers = (
{
layerId = "C917F9CB-DEFA-4BDD-B24E-8B4296F56613";
name = "SemiBold Italic";
paths = (
{
closed = 1;
nodes = (
"488 0 LINE",
"514 127 LINE",
"181 127 LINE",
"216 288 LINE",
"461 288 LINE",
"487 410 LINE",
"242 410 LINE",
"276 572 LINE",
"609 572 LINE",
"636 699 LINE",
"151 699 LINE",
"3 0 LINE"
);
},
{
closed = 1;
nodes = (
"303 850 LINE",
"271 983 LINE",
"131 983 LINE",
"182 850 LINE"
);
},
{
closed = 1;
nodes = (
"347 742 LINE",
"428 818 LINE",
"476 742 LINE",
"614 742 LINE",
"502 897 LINE",
"388 897 LINE",
"210 742 LINE"
);
}
);
width = 559;
}
);
leftKerningGroup = E;
note = Ecircumflexgrave;
rightKerningGroup = E;
unicode = 1EC0;
},
{
glyphname = Ecircumflexhookabove;
lastChange = "2015-11-30 01:26:56 +0000";
layers = (
{
layerId = "C917F9CB-DEFA-4BDD-B24E-8B4296F56613";
name = "SemiBold Italic";
paths = (
{
closed = 1;
nodes = (
"487 0 LINE",
"513 127 LINE",
"180 127 LINE",
"215 288 LINE",
"460 288 LINE",
"486 410 LINE",
"241 410 LINE",
"275 572 LINE",
"608 572 LINE",
"635 699 LINE",
"150 699 LINE",
"2 0 LINE"
);
},
{
closed = 1;
nodes = (
"340 742 LINE",
"421 818 LINE",
"470 742 LINE",
"607 742 LINE",
"496 897 LINE",
"381 897 LINE",
"202 742 LINE"
);
},
{
closed = 1;
nodes = (
"652 839 LINE",
"657 863 LINE",
"698 871 OFFCURVE",
"726 895 OFFCURVE",
"733 928 CURVE SMOOTH",
"742 971 OFFCURVE",
"711 1000 OFFCURVE",
"646 1000 CURVE SMOOTH",
"620 1000 OFFCURVE",
"585 995 OFFCURVE",
"566 989 CURVE",
"555 935 LINE",
"565 939 OFFCURVE",
"581 942 OFFCURVE",
"594 942 CURVE SMOOTH",
"621 942 OFFCURVE",
"634 936 OFFCURVE",
"630 918 CURVE SMOOTH",
"625 896 OFFCURVE",
"605 889 OFFCURVE",
"569 889 CURVE",
"559 839 LINE"
);
}
);
width = 559;
}
);
leftKerningGroup = E;
note = Ecircumflexhookabove;
rightKerningGroup = E;
unicode = 1EC2;
},
{
glyphname = Ecircumflextilde;
lastChange = "2015-11-30 01:26:56 +0000";
layers = (
{
layerId = "C917F9CB-DEFA-4BDD-B24E-8B4296F56613";
name = "SemiBold Italic";
paths = (
{
closed = 1;
nodes = (
"487 0 LINE",
"513 127 LINE",
"180 127 LINE",
"215 288 LINE",
"460 288 LINE",
"486 410 LINE",
"241 410 LINE",
"275 572 LINE",
"608 572 LINE",
"635 699 LINE",
"150 699 LINE",
"2 0 LINE"
);
},
{
closed = 1;
nodes = (
"344 742 LINE",
"425 818 LINE",
"474 742 LINE",
"611 742 LINE",
"500 897 LINE",
"385 897 LINE",
"206 742 LINE"
);
},
{
closed = 1;
nodes = (
"563 908 OFFCURVE",
"591 918 OFFCURVE",
"614 942 CURVE",
"635 1038 LINE",
"606 1008 OFFCURVE",
"577 996 OFFCURVE",
"547 996 CURVE SMOOTH",
"498 996 OFFCURVE",
"450 1039 OFFCURVE",
"399 1039 CURVE SMOOTH",
"364 1039 OFFCURVE",
"335 1029 OFFCURVE",
"311 1004 CURVE",
"291 909 LINE",
"321 939 OFFCURVE",
"349 951 OFFCURVE",
"380 951 CURVE SMOOTH",
"428 951 OFFCURVE",
"473 908 OFFCURVE",
"528 908 CURVE SMOOTH"
);
}
);
width = 559;
}
);
leftKerningGroup = E;
note = Ecircumflextilde;
rightKerningGroup = E;
unicode = 1EC4;
},
{
glyphname = Edieresis;
lastChange = "2015-11-30 01:26:56 +0000";
layers = (
{
layerId = "C917F9CB-DEFA-4BDD-B24E-8B4296F56613";
name = "SemiBold Italic";
paths = (
{
closed = 1;
nodes = (
"487 0 LINE",
"513 127 LINE",
"180 127 LINE",
"215 288 LINE",
"460 288 LINE",
"486 410 LINE",
"241 410 LINE",
"275 572 LINE",
"608 572 LINE",
"635 699 LINE",
"150 699 LINE",
"2 0 LINE"
);
},
{
closed = 1;
nodes = (
"303 752 OFFCURVE",
"341 783 OFFCURVE",
"350 823 CURVE SMOOTH",
"358 863 OFFCURVE",
"333 895 OFFCURVE",
"294 895 CURVE SMOOTH",
"256 895 OFFCURVE",
"216 863 OFFCURVE",
"208 823 CURVE SMOOTH",
"199 783 OFFCURVE",
"226 752 OFFCURVE",
"264 752 CURVE SMOOTH"
);
},
{
closed = 1;
nodes = (
"539 752 OFFCURVE",
"578 783 OFFCURVE",
"587 823 CURVE SMOOTH",
"595 863 OFFCURVE",
"569 895 OFFCURVE",
"531 895 CURVE SMOOTH",
"492 895 OFFCURVE",
"451 863 OFFCURVE",
"443 823 CURVE SMOOTH",
"434 783 OFFCURVE",
"462 752 OFFCURVE",
"501 752 CURVE SMOOTH"
);
}
);
width = 559;
}
);
leftKerningGroup = E;
note = Edieresis;
rightKerningGroup = E;
unicode = 00CB;
},
{
glyphname = Edotaccent;
lastChange = "2015-11-30 01:26:56 +0000";
layers = (
{
layerId = "C917F9CB-DEFA-4BDD-B24E-8B4296F56613";
name = "SemiBold Italic";
paths = (
{
closed = 1;
nodes = (
"487 0 LINE",
"513 127 LINE",
"180 127 LINE",
"215 288 LINE",
"460 288 LINE",
"486 410 LINE",
"241 410 LINE",
"275 572 LINE",
"608 572 LINE",
"635 699 LINE",
"150 699 LINE",
"2 0 LINE"
);
},
{
closed = 1;
nodes = (
"435 752 OFFCURVE",
"473 783 OFFCURVE",
"482 823 CURVE SMOOTH",
"490 863 OFFCURVE",
"465 895 OFFCURVE",
"426 895 CURVE SMOOTH",
"387 895 OFFCURVE",
"346 863 OFFCURVE",
"338 823 CURVE SMOOTH",
"329 783 OFFCURVE",
"357 752 OFFCURVE",
"396 752 CURVE SMOOTH"
);
}
);
width = 559;
}
);
leftKerningGroup = E;
note = Edotaccent;
rightKerningGroup = E;
unicode = 0116;
},
{
glyphname = Edotbelow;
lastChange = "2015-11-30 01:26:55 +0000";
layers = (
{
layerId = "C917F9CB-DEFA-4BDD-B24E-8B4296F56613";
name = "SemiBold Italic";
paths = (
{
closed = 1;
nodes = (
"487 0 LINE",
"513 127 LINE",
"180 127 LINE",
"215 288 LINE",
"460 288 LINE",
"486 410 LINE",
"241 410 LINE",
"275 572 LINE",
"608 572 LINE",
"635 699 LINE",
"150 699 LINE",
"2 0 LINE"
);
},
{
closed = 1;
nodes = (
"243 -190 OFFCURVE",
"281 -158 OFFCURVE",
"289 -118 CURVE SMOOTH",
"298 -78 OFFCURVE",
"273 -46 OFFCURVE",
"235 -46 CURVE SMOOTH",
"196 -46 OFFCURVE",
"155 -78 OFFCURVE",
"146 -118 CURVE SMOOTH",
"138 -158 OFFCURVE",
"165 -190 OFFCURVE",
"204 -190 CURVE SMOOTH"
);
}
);
width = 559;
}
);
leftKerningGroup = E;
note = Edotbelow;
rightKerningGroup = E;
unicode = 1EB8;
},
{
glyphname = Egrave;
lastChange = "2015-11-30 01:26:55 +0000";
layers = (
{
layerId = "C917F9CB-DEFA-4BDD-B24E-8B4296F56613";
name = "SemiBold Italic";
paths = (
{
closed = 1;
nodes = (
"487 0 LINE",
"513 127 LINE",
"180 127 LINE",
"215 288 LINE",
"460 288 LINE",
"486 410 LINE",
"241 410 LINE",
"275 572 LINE",
"608 572 LINE",
"635 699 LINE",
"150 699 LINE",
"2 0 LINE"
);
},
{
closed = 1;
nodes = (
"458 742 LINE",
"426 918 LINE",
"267 918 LINE",
"318 742 LINE"
);
}
);
width = 559;
}
);
leftKerningGroup = E;
note = Egrave;
rightKerningGroup = E;
unicode = 00C8;
},
{
glyphname = Ehookabove;
lastChange = "2015-11-30 01:26:56 +0000";
layers = (
{
layerId = "C917F9CB-DEFA-4BDD-B24E-8B4296F56613";
name = "SemiBold Italic";
paths = (
{
closed = 1;
nodes = (
"487 0 LINE",
"513 127 LINE",
"180 127 LINE",
"215 288 LINE",
"460 288 LINE",
"486 410 LINE",
"241 410 LINE",
"275 572 LINE",
"608 572 LINE",
"635 699 LINE",
"150 699 LINE",
"2 0 LINE"
);
},
{
closed = 1;
nodes = (
"443 742 LINE",
"449 771 LINE",
"509 783 OFFCURVE",
"549 821 OFFCURVE",
"559 869 CURVE SMOOTH",
"572 930 OFFCURVE",
"532 972 OFFCURVE",
"432 972 CURVE SMOOTH",
"394 972 OFFCURVE",
"347 965 OFFCURVE",
"320 957 CURVE",
"304 882 LINE",
"318 888 OFFCURVE",
"352 893 OFFCURVE",
"368 893 CURVE SMOOTH",
"411 893 OFFCURVE",
"426 882 OFFCURVE",
"420 858 CURVE",
"413 824 OFFCURVE",
"378 814 OFFCURVE",
"326 814 CURVE",
"311 742 LINE"
);
}
);
width = 559;
}
);
leftKerningGroup = E;
note = Ehookabove;
rightKerningGroup = E;
unicode = 1EBA;
},
{
glyphname = Emacron;
lastChange = "2015-11-30 01:26:55 +0000";
layers = (
{
layerId = "C917F9CB-DEFA-4BDD-B24E-8B4296F56613";
name = "SemiBold Italic";
paths = (
{
closed = 1;
nodes = (
"487 0 LINE",
"513 127 LINE",
"180 127 LINE",
"215 288 LINE",
"460 288 LINE",
"486 410 LINE",
"241 410 LINE",
"275 572 LINE",
"608 572 LINE",
"635 699 LINE",
"150 699 LINE",
"2 0 LINE"
);
},
{
closed = 1;
nodes = (
"562 752 LINE",
"582 850 LINE",
"249 850 LINE",
"229 752 LINE"
);
}
);
width = 559;
}
);
leftKerningGroup = E;
note = Emacron;
rightKerningGroup = E;
unicode = 0112;
},
{
glyphname = Eogonek;
lastChange = "2015-11-30 01:26:55 +0000";
layers = (
{
layerId = "C917F9CB-DEFA-4BDD-B24E-8B4296F56613";
name = "SemiBold Italic";
paths = (
{
closed = 1;
nodes = (
"388 -215 OFFCURVE",
"425 -209 OFFCURVE",
"450 -201 CURVE",
"468 -117 LINE",
"452 -124 OFFCURVE",
"434 -128 OFFCURVE",
"417 -128 CURVE SMOOTH",
"395 -128 OFFCURVE",
"383 -115 OFFCURVE",
"388 -92 CURVE SMOOTH",
"395 -58 OFFCURVE",
"427 -30 OFFCURVE",
"487 0 CURVE",
"513 127 LINE",
"180 127 LINE",
"215 288 LINE",
"460 288 LINE",
"486 410 LINE",
"241 410 LINE",
"275 572 LINE",
"608 572 LINE",
"635 699 LINE",
"150 699 LINE",
"2 0 LINE",
"349 0 LINE",
"302 -26 OFFCURVE",
"263 -67 OFFCURVE",
"252 -120 CURVE SMOOTH",
"239 -182 OFFCURVE",
"285 -215 OFFCURVE",
"353 -215 CURVE SMOOTH"
);
}
);
width = 559;
}
);
leftKerningGroup = E;
note = Eogonek;
rightKerningGroup = E;
unicode = 0118;
},
{
glyphname = Etilde;
lastChange = "2015-11-30 01:26:55 +0000";
layers = (
{
layerId = "C917F9CB-DEFA-4BDD-B24E-8B4296F56613";
name = "SemiBold Italic";
paths = (
{
closed = 1;
nodes = (
"487 0 LINE",
"513 127 LINE",
"180 127 LINE",
"215 288 LINE",
"460 288 LINE",
"486 410 LINE",
"241 410 LINE",
"275 572 LINE",
"608 572 LINE",
"635 699 LINE",
"150 699 LINE",
"2 0 LINE"
);
},
{
closed = 1;
nodes = (
"229 780 OFFCURVE",
"266 793 OFFCURVE",
"304 793 CURVE SMOOTH",
"368 793 OFFCURVE",
"413 743 OFFCURVE",
"486 743 CURVE SMOOTH",
"529 743 OFFCURVE",
"566 754 OFFCURVE",
"596 785 CURVE",
"620 900 LINE",
"584 863 OFFCURVE",
"548 850 OFFCURVE",
"509 850 CURVE SMOOTH",
"444 850 OFFCURVE",
"394 900 OFFCURVE",
"326 900 CURVE SMOOTH",
"284 900 OFFCURVE",
"245 888 OFFCURVE",
"214 857 CURVE",
"190 742 LINE"
);
}
);
width = 559;
}
);
leftKerningGroup = E;
note = Etilde;
rightKerningGroup = E;
unicode = 1EBC;
},
{
glyphname = F;
lastChange = "2015-11-30 01:26:56 +0000";
layers = (
{
layerId = "C917F9CB-DEFA-4BDD-B24E-8B4296F56613";
name = "SemiBold Italic";
paths = (
{
closed = 1;
nodes = (
"154 0 LINE",
"215 291 LINE",
"460 291 LINE",
"485 408 LINE",
"240 408 LINE",
"275 571 LINE",
"608 571 LINE",
"635 699 LINE",
"150 699 LINE",
"2 0 LINE"
);
}
);
width = 549;
}
);
note = F;
unicode = 0046;
},
{
glyphname = G;
lastChange = "2015-11-30 01:26:55 +0000";
layers = (
{
layerId = "C917F9CB-DEFA-4BDD-B24E-8B4296F56613";
name = "SemiBold Italic";
paths = (
{
closed = 1;
nodes = (
"464 -15 OFFCURVE",
"555 7 OFFCURVE",
"632 53 CURVE",
"703 390 LINE",
"443 390 LINE",
"420 278 LINE",
"533 278 LINE",
"504 143 LINE",
"472 129 OFFCURVE",
"434 121 OFFCURVE",
"391 121 CURVE SMOOTH",
"226 121 OFFCURVE",
"181 209 OFFCURVE",
"211 349 CURVE SMOOTH",
"240 488 OFFCURVE",
"351 573 OFFCURVE",
"495 574 CURVE SMOOTH",
"588 575 OFFCURVE",
"659 558 OFFCURVE",
"710 508 CURVE",
"740 650 LINE",
"683 695 OFFCURVE",
"611 714 OFFCURVE",
"511 714 CURVE SMOOTH",
"283 714 OFFCURVE",
"103 573 OFFCURVE",
"56 349 CURVE SMOOTH",
"8 125 OFFCURVE",
"139 -15 OFFCURVE",
"356 -15 CURVE SMOOTH"
);
}
);
width = 704;
}
);
leftKerningGroup = C;
note = G;
unicode = 0047;
},
{
glyphname = Gbreve;
lastChange = "2015-11-30 01:26:56 +0000";
layers = (
{
layerId = "C917F9CB-DEFA-4BDD-B24E-8B4296F56613";
name = "SemiBold Italic";
paths = (
{
closed = 1;
nodes = (
"464 -15 OFFCURVE",
"555 7 OFFCURVE",
"632 53 CURVE",
"703 390 LINE",
"443 390 LINE",
"420 278 LINE",
"533 278 LINE",
"504 143 LINE",
"472 129 OFFCURVE",
"434 121 OFFCURVE",
"391 121 CURVE SMOOTH",
"226 121 OFFCURVE",
"181 209 OFFCURVE",
"211 349 CURVE SMOOTH",
"240 488 OFFCURVE",
"351 573 OFFCURVE",
"495 574 CURVE SMOOTH",
"588 575 OFFCURVE",
"659 558 OFFCURVE",
"710 508 CURVE",
"740 650 LINE",
"683 695 OFFCURVE",
"611 714 OFFCURVE",
"511 714 CURVE SMOOTH",
"283 714 OFFCURVE",
"103 573 OFFCURVE",
"56 349 CURVE SMOOTH",
"8 125 OFFCURVE",
"139 -15 OFFCURVE",
"356 -15 CURVE SMOOTH"
);
},
{
closed = 1;
nodes = (
"611 742 OFFCURVE",
"688 807 OFFCURVE",
"709 904 CURVE",
"596 904 LINE",
"587 862 OFFCURVE",
"560 840 OFFCURVE",
"523 840 CURVE SMOOTH",
"485 840 OFFCURVE",
"469 862 OFFCURVE",
"478 904 CURVE",
"366 904 LINE",
"345 807 OFFCURVE",
"393 742 OFFCURVE",
"502 742 CURVE SMOOTH"
);
}
);
width = 704;
}
);
leftKerningGroup = C;
note = Gbreve;
unicode = 011E;
},
{
glyphname = Gcaron;
lastChange = "2015-11-30 01:26:57 +0000";
layers = (
{
layerId = "C917F9CB-DEFA-4BDD-B24E-8B4296F56613";
name = "SemiBold Italic";
paths = (
{
closed = 1;
nodes = (
"464 -15 OFFCURVE",
"555 7 OFFCURVE",
"632 53 CURVE",
"703 390 LINE",
"443 390 LINE",
"420 278 LINE",
"533 278 LINE",
"504 143 LINE",
"472 129 OFFCURVE",
"434 121 OFFCURVE",
"391 121 CURVE SMOOTH",
"226 121 OFFCURVE",
"181 209 OFFCURVE",
"211 349 CURVE SMOOTH",
"240 488 OFFCURVE",
"351 573 OFFCURVE",
"495 574 CURVE SMOOTH",
"588 575 OFFCURVE",
"659 558 OFFCURVE",
"710 508 CURVE",
"740 650 LINE",
"683 695 OFFCURVE",
"611 714 OFFCURVE",
"511 714 CURVE SMOOTH",
"283 714 OFFCURVE",
"103 573 OFFCURVE",
"56 349 CURVE SMOOTH",
"8 125 OFFCURVE",
"139 -15 OFFCURVE",
"356 -15 CURVE SMOOTH"
);
},
{
closed = 1;
nodes = (
"538 742 LINE",
"726 918 LINE",
"576 918 LINE",
"489 826 LINE",
"440 918 LINE",
"290 918 LINE",
"403 742 LINE"
);
}
);
width = 704;
}
);
leftKerningGroup = C;
note = Gcaron;
unicode = 01E6;
},
{
glyphname = Gcircumflex;
lastChange = "2015-11-30 01:26:55 +0000";
layers = (
{
layerId = "C917F9CB-DEFA-4BDD-B24E-8B4296F56613";
name = "SemiBold Italic";
paths = (
{
closed = 1;
nodes = (
"464 -15 OFFCURVE",
"555 7 OFFCURVE",
"632 53 CURVE",
"703 390 LINE",
"443 390 LINE",
"420 278 LINE",
"533 278 LINE",
"504 143 LINE",
"472 129 OFFCURVE",
"434 121 OFFCURVE",
"391 121 CURVE SMOOTH",
"226 121 OFFCURVE",
"181 209 OFFCURVE",
"211 349 CURVE SMOOTH",
"240 488 OFFCURVE",
"351 573 OFFCURVE",
"495 574 CURVE SMOOTH",
"588 575 OFFCURVE",
"659 558 OFFCURVE",
"710 508 CURVE",
"740 650 LINE",
"683 695 OFFCURVE",
"611 714 OFFCURVE",
"511 714 CURVE SMOOTH",
"283 714 OFFCURVE",
"103 573 OFFCURVE",
"56 349 CURVE SMOOTH",
"8 125 OFFCURVE",
"139 -15 OFFCURVE",
"356 -15 CURVE SMOOTH"
);
},
{
closed = 1;
nodes = (
"422 742 LINE",
"510 834 LINE",
"558 742 LINE",
"708 742 LINE",
"594 918 LINE",
"459 918 LINE",
"272 742 LINE"
);
}
);
width = 704;
}
);
leftKerningGroup = C;
note = Gcircumflex;
unicode = 011C;
},
{
glyphname = Gcommaaccent;
lastChange = "2015-11-30 01:26:56 +0000";
layers = (
{
layerId = "C917F9CB-DEFA-4BDD-B24E-8B4296F56613";
name = "SemiBold Italic";
paths = (
{
closed = 1;
nodes = (
"464 -15 OFFCURVE",
"555 7 OFFCURVE",
"632 53 CURVE",
"703 390 LINE",
"443 390 LINE",
"420 278 LINE",
"533 278 LINE",
"504 143 LINE",
"472 129 OFFCURVE",
"434 121 OFFCURVE",
"391 121 CURVE SMOOTH",
"226 121 OFFCURVE",
"181 209 OFFCURVE",
"211 349 CURVE SMOOTH",
"240 488 OFFCURVE",
"351 573 OFFCURVE",
"495 574 CURVE SMOOTH",
"588 575 OFFCURVE",
"659 558 OFFCURVE",
"710 508 CURVE",
"740 650 LINE",
"683 695 OFFCURVE",
"611 714 OFFCURVE",
"511 714 CURVE SMOOTH",
"283 714 OFFCURVE",
"103 573 OFFCURVE",
"56 349 CURVE SMOOTH",
"8 125 OFFCURVE",
"139 -15 OFFCURVE",
"356 -15 CURVE SMOOTH"
);
},
{
closed = 1;
nodes = (
"299 -260 LINE",
"444 -53 LINE",
"288 -53 LINE",
"162 -260 LINE"
);
}
);
width = 704;
}
);
leftKerningGroup = C;
note = Gcommaaccent;
unicode = 0122;
},
{
glyphname = Gdotaccent;
lastChange = "2015-11-30 01:26:55 +0000";
layers = (
{
layerId = "C917F9CB-DEFA-4BDD-B24E-8B4296F56613";
name = "SemiBold Italic";
paths = (
{
closed = 1;
nodes = (
"464 -15 OFFCURVE",
"555 7 OFFCURVE",
"632 53 CURVE",
"703 390 LINE",
"443 390 LINE",
"420 278 LINE",
"533 278 LINE",
"504 143 LINE",
"472 129 OFFCURVE",
"434 121 OFFCURVE",
"391 121 CURVE SMOOTH",
"226 121 OFFCURVE",
"181 209 OFFCURVE",
"211 349 CURVE SMOOTH",
"240 488 OFFCURVE",
"351 573 OFFCURVE",
"495 574 CURVE SMOOTH",
"588 575 OFFCURVE",
"659 558 OFFCURVE",
"710 508 CURVE",
"740 650 LINE",
"683 695 OFFCURVE",
"611 714 OFFCURVE",
"511 714 CURVE SMOOTH",
"283 714 OFFCURVE",
"103 573 OFFCURVE",
"56 349 CURVE SMOOTH",
"8 125 OFFCURVE",
"139 -15 OFFCURVE",
"356 -15 CURVE SMOOTH"
);
},
{
closed = 1;
nodes = (
"537 752 OFFCURVE",
"575 783 OFFCURVE",
"584 823 CURVE SMOOTH",
"592 863 OFFCURVE",
"567 895 OFFCURVE",
"528 895 CURVE SMOOTH",
"489 895 OFFCURVE",
"448 863 OFFCURVE",
"440 823 CURVE SMOOTH",
"431 783 OFFCURVE",
"459 752 OFFCURVE",
"498 752 CURVE SMOOTH"
);
}
);
width = 704;
}
);
leftKerningGroup = C;
note = Gdotaccent;
unicode = 0120;
},
{
glyphname = Gmacron;
lastChange = "2015-11-30 01:26:55 +0000";
layers = (
{
layerId = "C917F9CB-DEFA-4BDD-B24E-8B4296F56613";
name = "SemiBold Italic";
paths = (
{
closed = 1;
nodes = (
"464 -15 OFFCURVE",
"555 7 OFFCURVE",
"632 53 CURVE",
"703 390 LINE",
"443 390 LINE",
"420 278 LINE",
"533 278 LINE",
"504 143 LINE",
"472 129 OFFCURVE",
"434 121 OFFCURVE",
"391 121 CURVE SMOOTH",
"226 121 OFFCURVE",
"181 209 OFFCURVE",
"211 349 CURVE SMOOTH",
"240 488 OFFCURVE",
"351 573 OFFCURVE",
"495 574 CURVE SMOOTH",
"588 575 OFFCURVE",
"659 558 OFFCURVE",
"710 508 CURVE",
"740 650 LINE",
"683 695 OFFCURVE",
"611 714 OFFCURVE",
"511 714 CURVE SMOOTH",
"283 714 OFFCURVE",
"103 573 OFFCURVE",
"56 349 CURVE SMOOTH",
"8 125 OFFCURVE",
"139 -15 OFFCURVE",
"356 -15 CURVE SMOOTH"
);
},
{
closed = 1;
nodes = (
"668 752 LINE",
"688 850 LINE",
"355 850 LINE",
"335 752 LINE"
);
}
);
width = 704;
}
);
leftKerningGroup = C;
note = Gmacron;
unicode = 1E20;
},
{
glyphname = H;
lastChange = "2015-11-30 01:26:56 +0000";
layers = (
{
layerId = "C917F9CB-DEFA-4BDD-B24E-8B4296F56613";
name = "SemiBold Italic";
paths = (
{
closed = 1;
nodes = (
"154 0 LINE",
"216 293 LINE",
"521 293 LINE",
"459 0 LINE",
"611 0 LINE",
"759 699 LINE",
"607 699 LINE",
"548 419 LINE",
"243 419 LINE",
"302 699 LINE",
"150 699 LINE",
"2 0 LINE"
);
}
);
width = 713;
}
);
note = H;
unicode = 0048;
},
{
glyphname = Hbar;
lastChange = "2015-11-30 01:26:56 +0000";
layers = (
{
layerId = "C917F9CB-DEFA-4BDD-B24E-8B4296F56613";
name = "SemiBold Italic";
paths = (
{
closed = 1;
nodes = (
"177 0 LINE",
"238 287 LINE",
"535 287 LINE",
"474 0 LINE",
"630 0 LINE",
"735 499 LINE",
"785 499 LINE",
"810 619 LINE",
"761 619 LINE",
"778 699 LINE",
"622 699 LINE",
"605 619 LINE",
"308 619 LINE",
"325 699 LINE",
"169 699 LINE",
"152 619 LINE",
"108 619 LINE",
"83 499 LINE",
"126 499 LINE",
"21 0 LINE"
);
},
{
closed = 1;
nodes = (
"282 499 LINE",
"579 499 LINE",
"564 425 LINE",
"267 425 LINE"
);
}
);
width = 756;
}
);
note = Hbar;
unicode = 0126;
},
{
glyphname = Hbrevebelow;
lastChange = "2015-11-30 01:26:55 +0000";
layers = (
{
layerId = "C917F9CB-DEFA-4BDD-B24E-8B4296F56613";
name = "SemiBold Italic";
paths = (
{
closed = 1;
nodes = (
"154 0 LINE",
"216 293 LINE",
"521 293 LINE",
"459 0 LINE",
"611 0 LINE",
"759 699 LINE",
"607 699 LINE",
"548 419 LINE",
"243 419 LINE",
"302 699 LINE",
"150 699 LINE",
"2 0 LINE"
);
},
{
closed = 1;
nodes = (
"368 -219 OFFCURVE",
"445 -154 OFFCURVE",
"465 -57 CURVE",
"349 -57 LINE",
"340 -99 OFFCURVE",
"314 -121 OFFCURVE",
"278 -121 CURVE SMOOTH",
"240 -121 OFFCURVE",
"223 -99 OFFCURVE",
"232 -57 CURVE",
"122 -57 LINE",
"102 -154 OFFCURVE",
"151 -219 OFFCURVE",
"260 -219 CURVE SMOOTH"
);
}
);
width = 713;
}
);
note = Hbrevebelow;
unicode = 1E2A;
},
{
glyphname = Hcircumflex;
lastChange = "2015-11-30 01:26:56 +0000";
layers = (
{
layerId = "C917F9CB-DEFA-4BDD-B24E-8B4296F56613";
name = "SemiBold Italic";
paths = (
{
closed = 1;
nodes = (
"154 0 LINE",
"216 293 LINE",
"521 293 LINE",
"459 0 LINE",
"611 0 LINE",
"759 699 LINE",
"607 699 LINE",
"548 419 LINE",
"243 419 LINE",
"302 699 LINE",
"150 699 LINE",
"2 0 LINE"
);
},
{
closed = 1;
nodes = (
"376 742 LINE",
"464 834 LINE",
"512 742 LINE",
"662 742 LINE",
"548 918 LINE",
"413 918 LINE",
"226 742 LINE"
);
}
);
width = 713;
}
);
note = Hcircumflex;
unicode = 0124;
},
{
glyphname = Hdotbelow;
lastChange = "2015-11-30 01:26:57 +0000";
layers = (
{
layerId = "C917F9CB-DEFA-4BDD-B24E-8B4296F56613";
name = "SemiBold Italic";
paths = (
{
closed = 1;
nodes = (
"154 0 LINE",
"216 293 LINE",
"521 293 LINE",
"459 0 LINE",
"611 0 LINE",
"759 699 LINE",
"607 699 LINE",
"548 419 LINE",
"243 419 LINE",
"302 699 LINE",
"150 699 LINE",
"2 0 LINE"
);
},
{
closed = 1;
nodes = (
"306 -190 OFFCURVE",
"344 -158 OFFCURVE",
"352 -118 CURVE SMOOTH",
"361 -78 OFFCURVE",
"336 -46 OFFCURVE",
"298 -46 CURVE SMOOTH",
"259 -46 OFFCURVE",
"218 -78 OFFCURVE",
"209 -118 CURVE SMOOTH",
"201 -158 OFFCURVE",
"228 -190 OFFCURVE",
"267 -190 CURVE SMOOTH"
);
}
);
width = 713;
}
);
note = Hdotbelow;
unicode = 1E24;
},
{
glyphname = I;
lastChange = "2015-11-30 01:26:56 +0000";
layers = (
{
layerId = "C917F9CB-DEFA-4BDD-B24E-8B4296F56613";
name = "SemiBold Italic";
paths = (
{
closed = 1;
nodes = (
"154 0 LINE",
"302 699 LINE",
"150 699 LINE",
"2 0 LINE"
);
}
);
width = 257;
}
);
note = I;
unicode = 0049;
},
{
glyphname = IJ;
lastChange = "2015-11-30 01:26:56 +0000";
layers = (
{
layerId = "C917F9CB-DEFA-4BDD-B24E-8B4296F56613";
name = "SemiBold Italic";
paths = (
{
closed = 1;
nodes = (
"485 -15 OFFCURVE",
"561 68 OFFCURVE",
"588 195 CURVE SMOOTH",
"695 699 LINE",
"543 699 LINE",
"439 209 LINE SMOOTH",
"426 148 OFFCURVE",
"391 122 OFFCURVE",
"331 122 CURVE SMOOTH",
"302 122 OFFCURVE",
"269 127 OFFCURVE",
"251 137 CURVE",
"223 6 LINE",
"244 -6 OFFCURVE",
"295 -15 OFFCURVE",
"336 -15 CURVE SMOOTH"
);
},
{
closed = 1;
nodes = (
"155 0 LINE",
"303 699 LINE",
"151 699 LINE",
"3 0 LINE"
);
}
);
width = 646;
}
);
note = IJ;
rightKerningGroup = J;
unicode = 0132;
},
{
glyphname = Iacute;
lastChange = "2015-11-30 01:26:56 +0000";
layers = (
{
layerId = "C917F9CB-DEFA-4BDD-B24E-8B4296F56613";
name = "SemiBold Italic";
paths = (
{
closed = 1;
nodes = (
"155 0 LINE",
"303 699 LINE",
"151 699 LINE",
"3 0 LINE"
);
},
{
closed = 1;
nodes = (
"286 742 LINE",
"412 918 LINE",
"253 918 LINE",
"147 742 LINE"
);
}
);
width = 260;
}
);
note = Iacute;
unicode = 00CD;
},
{
glyphname = Ibreve;
lastChange = "2015-11-30 01:26:55 +0000";
layers = (
{
layerId = "C917F9CB-DEFA-4BDD-B24E-8B4296F56613";
name = "SemiBold Italic";
paths = (
{
closed = 1;
nodes = (
"155 0 LINE",
"303 699 LINE",
"151 699 LINE",
"3 0 LINE"
);
},
{
closed = 1;
nodes = (
"324 742 OFFCURVE",
"401 807 OFFCURVE",
"422 904 CURVE",
"309 904 LINE",
"300 862 OFFCURVE",
"273 840 OFFCURVE",
"236 840 CURVE SMOOTH",
"198 840 OFFCURVE",
"182 862 OFFCURVE",
"191 904 CURVE",
"79 904 LINE",
"58 807 OFFCURVE",
"106 742 OFFCURVE",
"215 742 CURVE SMOOTH"
);
}
);
width = 260;
}
);
note = Ibreve;
unicode = 012C;
},
{
glyphname = Icaron;
lastChange = "2015-11-30 01:26:55 +0000";
layers = (
{
layerId = "C917F9CB-DEFA-4BDD-B24E-8B4296F56613";
name = "SemiBold Italic";
paths = (
{
closed = 1;
nodes = (
"154 0 LINE",
"302 699 LINE",
"150 699 LINE",
"2 0 LINE"
);
},
{
closed = 1;
nodes = (
"283 742 LINE",
"471 918 LINE",
"321 918 LINE",
"234 826 LINE",
"185 918 LINE",
"35 918 LINE",
"148 742 LINE"
);
}
);
width = 257;
}
);
note = Icaron;
unicode = 01CF;
},
{
glyphname = Icircumflex;
lastChange = "2015-11-30 01:26:55 +0000";
layers = (
{
layerId = "C917F9CB-DEFA-4BDD-B24E-8B4296F56613";
name = "SemiBold Italic";
paths = (
{
closed = 1;
nodes = (
"155 0 LINE",
"303 699 LINE",
"151 699 LINE",
"3 0 LINE"
);
},
{
closed = 1;
nodes = (
"149 742 LINE",
"237 834 LINE",
"285 742 LINE",
"435 742 LINE",
"321 918 LINE",
"186 918 LINE",
"-1 742 LINE"
);
}
);
width = 260;
}
);
note = Icircumflex;
unicode = 00CE;
},
{
glyphname = Idieresis;
lastChange = "2015-11-30 01:26:56 +0000";
layers = (
{
layerId = "C917F9CB-DEFA-4BDD-B24E-8B4296F56613";
name = "SemiBold Italic";
paths = (
{
closed = 1;
nodes = (
"155 0 LINE",
"303 699 LINE",
"151 699 LINE",
"3 0 LINE"
);
},
{
closed = 1;
nodes = (
"139 752 OFFCURVE",
"177 783 OFFCURVE",
"186 823 CURVE SMOOTH",
"194 863 OFFCURVE",
"169 895 OFFCURVE",
"130 895 CURVE SMOOTH",
"92 895 OFFCURVE",
"52 863 OFFCURVE",
"44 823 CURVE SMOOTH",
"35 783 OFFCURVE",
"62 752 OFFCURVE",
"100 752 CURVE SMOOTH"
);
},
{
closed = 1;
nodes = (
"375 752 OFFCURVE",
"414 783 OFFCURVE",
"423 823 CURVE SMOOTH",
"431 863 OFFCURVE",
"405 895 OFFCURVE",
"367 895 CURVE SMOOTH",
"328 895 OFFCURVE",
"287 863 OFFCURVE",
"279 823 CURVE SMOOTH",
"270 783 OFFCURVE",
"298 752 OFFCURVE",
"337 752 CURVE SMOOTH"
);
}
);
width = 260;
}
);
note = Idieresis;
unicode = 00CF;
},
{
glyphname = Idotaccent;
lastChange = "2015-11-30 01:26:55 +0000";
layers = (
{
layerId = "C917F9CB-DEFA-4BDD-B24E-8B4296F56613";
name = "SemiBold Italic";
paths = (
{
closed = 1;
nodes = (
"155 0 LINE",
"303 699 LINE",
"151 699 LINE",
"3 0 LINE"
);
},
{
closed = 1;
nodes = (
"258 752 OFFCURVE",
"296 783 OFFCURVE",
"305 823 CURVE SMOOTH",
"313 863 OFFCURVE",
"288 895 OFFCURVE",
"249 895 CURVE SMOOTH",
"210 895 OFFCURVE",
"169 863 OFFCURVE",
"161 823 CURVE SMOOTH",
"152 783 OFFCURVE",
"180 752 OFFCURVE",
"219 752 CURVE SMOOTH"
);
}
);
width = 260;
}
);
note = Idotaccent;
unicode = 0130;
},
{
glyphname = Idotbelow;
lastChange = "2015-11-30 01:26:57 +0000";
layers = (
{
layerId = "C917F9CB-DEFA-4BDD-B24E-8B4296F56613";
name = "SemiBold Italic";
paths = (
{
closed = 1;
nodes = (
"155 0 LINE",
"303 699 LINE",
"151 699 LINE",
"3 0 LINE"
);
},
{
closed = 1;
nodes = (
"79 -190 OFFCURVE",
"117 -158 OFFCURVE",
"125 -118 CURVE SMOOTH",
"134 -78 OFFCURVE",
"109 -46 OFFCURVE",
"71 -46 CURVE SMOOTH",
"32 -46 OFFCURVE",
"-9 -78 OFFCURVE",
"-18 -118 CURVE SMOOTH",
"-26 -158 OFFCURVE",
"1 -190 OFFCURVE",
"40 -190 CURVE SMOOTH"
);
}
);
width = 260;
}
);
note = Idotbelow;
unicode = 1ECA;
},
{
glyphname = Igrave;
lastChange = "2015-11-30 01:26:56 +0000";
layers = (
{
layerId = "C917F9CB-DEFA-4BDD-B24E-8B4296F56613";
name = "SemiBold Italic";
paths = (
{
closed = 1;
nodes = (
"155 0 LINE",
"303 699 LINE",
"151 699 LINE",
"3 0 LINE"
);
},
{
closed = 1;
nodes = (
"288 742 LINE",
"256 918 LINE",
"97 918 LINE",
"148 742 LINE"
);
}
);
width = 260;
}
);
note = Igrave;
unicode = 00CC;
},
{
glyphname = Ihookabove;
lastChange = "2015-11-30 01:26:55 +0000";
layers = (
{
layerId = "C917F9CB-DEFA-4BDD-B24E-8B4296F56613";
name = "SemiBold Italic";
paths = (
{
closed = 1;
nodes = (
"155 0 LINE",
"303 699 LINE",
"151 699 LINE",
"3 0 LINE"
);
},
{
closed = 1;
nodes = (
"283 742 LINE",
"289 771 LINE",
"349 783 OFFCURVE",
"389 821 OFFCURVE",
"399 869 CURVE SMOOTH",
"412 930 OFFCURVE",
"372 972 OFFCURVE",
"272 972 CURVE SMOOTH",
"234 972 OFFCURVE",
"187 965 OFFCURVE",
"160 957 CURVE",
"144 882 LINE",
"158 888 OFFCURVE",
"192 893 OFFCURVE",
"208 893 CURVE SMOOTH",
"251 893 OFFCURVE",
"266 882 OFFCURVE",
"260 858 CURVE",
"253 824 OFFCURVE",
"218 814 OFFCURVE",
"166 814 CURVE",
"151 742 LINE"
);
}
);
width = 260;
}
);
note = Ihookabove;
unicode = 1EC8;
},
{
glyphname = Imacron;
lastChange = "2015-11-30 01:26:55 +0000";
layers = (
{
layerId = "C917F9CB-DEFA-4BDD-B24E-8B4296F56613";
name = "SemiBold Italic";
paths = (
{
closed = 1;
nodes = (
"155 0 LINE",
"303 699 LINE",
"151 699 LINE",
"3 0 LINE"
);
},
{
closed = 1;
nodes = (
"412 752 LINE",
"432 850 LINE",
"86 850 LINE",
"66 752 LINE"
);
}
);
width = 260;
}
);
note = Imacron;
unicode = 012A;
},
{
glyphname = Iogonek;
lastChange = "2015-11-30 01:26:56 +0000";
layers = (
{
layerId = "C917F9CB-DEFA-4BDD-B24E-8B4296F56613";
name = "SemiBold Italic";
paths = (
{
closed = 1;
nodes = (
"155 0 LINE",
"303 699 LINE",
"151 699 LINE",
"3 0 LINE"
);
},
{
closed = 1;
nodes = (
"52 -215 OFFCURVE",
"89 -209 OFFCURVE",
"114 -201 CURVE",
"132 -117 LINE",
"116 -124 OFFCURVE",
"98 -128 OFFCURVE",
"81 -128 CURVE SMOOTH",
"59 -128 OFFCURVE",
"47 -115 OFFCURVE",
"52 -92 CURVE SMOOTH",
"59 -58 OFFCURVE",
"91 -30 OFFCURVE",
"151 0 CURVE",
"13 0 LINE",
"-34 -26 OFFCURVE",
"-73 -67 OFFCURVE",
"-84 -120 CURVE SMOOTH",
"-97 -182 OFFCURVE",
"-51 -215 OFFCURVE",
"17 -215 CURVE SMOOTH"
);
}
);
width = 260;
}
);
note = Iogonek;
unicode = 012E;
},
{
glyphname = Itilde;
lastChange = "2015-11-30 01:26:55 +0000";
layers = (
{
layerId = "C917F9CB-DEFA-4BDD-B24E-8B4296F56613";
name = "SemiBold Italic";
paths = (
{
closed = 1;
nodes = (
"155 0 LINE",
"303 699 LINE",
"151 699 LINE",
"3 0 LINE"
);
},
{
closed = 1;
nodes = (
"58 780 OFFCURVE",
"95 793 OFFCURVE",
"133 793 CURVE SMOOTH",
"197 793 OFFCURVE",
"242 743 OFFCURVE",
"315 743 CURVE SMOOTH",
"358 743 OFFCURVE",
"395 754 OFFCURVE",
"425 785 CURVE",
"449 900 LINE",
"413 863 OFFCURVE",
"377 850 OFFCURVE",
"338 850 CURVE SMOOTH",
"273 850 OFFCURVE",
"223 900 OFFCURVE",
"155 900 CURVE SMOOTH",
"113 900 OFFCURVE",
"74 888 OFFCURVE",
"43 857 CURVE",
"19 742 LINE"
);
}
);
width = 260;
}
);
note = Itilde;
unicode = 0128;
},
{
glyphname = J;
lastChange = "2015-11-30 01:26:55 +0000";
layers = (
{
layerId = "C917F9CB-DEFA-4BDD-B24E-8B4296F56613";
name = "SemiBold Italic";
paths = (
{
closed = 1;
nodes = (
"225 -15 OFFCURVE",
"301 68 OFFCURVE",
"328 195 CURVE SMOOTH",
"435 699 LINE",
"283 699 LINE",
"179 209 LINE SMOOTH",
"166 148 OFFCURVE",
"131 122 OFFCURVE",
"71 122 CURVE SMOOTH",
"42 122 OFFCURVE",
"9 127 OFFCURVE",
"-9 137 CURVE",
"-37 6 LINE",
"-16 -6 OFFCURVE",
"35 -15 OFFCURVE",
"76 -15 CURVE SMOOTH"
);
}
);
width = 387;
}
);
note = J;
rightKerningGroup = J;
unicode = 004A;
},
{
glyphname = Jcircumflex;
lastChange = "2015-11-30 01:26:56 +0000";
layers = (
{
layerId = "C917F9CB-DEFA-4BDD-B24E-8B4296F56613";
name = "SemiBold Italic";
paths = (
{
closed = 1;
nodes = (
"225 -15 OFFCURVE",
"301 68 OFFCURVE",
"328 195 CURVE SMOOTH",
"435 699 LINE",
"283 699 LINE",
"179 209 LINE SMOOTH",
"166 148 OFFCURVE",
"131 122 OFFCURVE",
"71 122 CURVE SMOOTH",
"42 122 OFFCURVE",
"9 127 OFFCURVE",
"-9 137 CURVE",
"-37 6 LINE",
"-16 -6 OFFCURVE",
"35 -15 OFFCURVE",
"76 -15 CURVE SMOOTH"
);
},
{
closed = 1;
nodes = (
"279 742 LINE",
"367 834 LINE",
"415 742 LINE",
"565 742 LINE",
"451 918 LINE",
"316 918 LINE",
"129 742 LINE"
);
}
);
width = 386;
}
);
note = Jcircumflex;
rightKerningGroup = J;
unicode = 0134;
},
{
glyphname = K;
lastChange = "2015-11-30 01:26:56 +0000";
layers = (
{
layerId = "C917F9CB-DEFA-4BDD-B24E-8B4296F56613";
name = "SemiBold Italic";
paths = (
{
closed = 1;
nodes = (
"154 0 LINE",
"222 322 LINE",
"438 0 LINE",
"619 0 LINE",
"379 358 LINE",
"747 699 LINE",
"566 699 LINE",
"237 394 LINE",
"302 699 LINE",
"150 699 LINE",
"2 0 LINE"
);
}
);
width = 701;
}
);
leftKerningGroup = K;
note = K;
rightKerningGroup = K;
unicode = 004B;
},
{
glyphname = Kcommaaccent;
lastChange = "2015-11-30 01:26:56 +0000";
layers = (
{
layerId = "C917F9CB-DEFA-4BDD-B24E-8B4296F56613";
name = "SemiBold Italic";
paths = (
{
closed = 1;
nodes = (
"154 0 LINE",
"222 322 LINE",
"438 0 LINE",
"619 0 LINE",
"379 358 LINE",
"747 699 LINE",
"566 699 LINE",
"237 394 LINE",
"302 699 LINE",
"150 699 LINE",
"2 0 LINE"
);
},
{
closed = 1;
nodes = (
"211 -260 LINE",
"356 -53 LINE",
"200 -53 LINE",
"74 -260 LINE"
);
}
);
width = 701;
}
);
leftKerningGroup = K;
note = Kcommaaccent;
rightKerningGroup = K;
unicode = 0136;
},
{
glyphname = L;
lastChange = "2015-11-30 01:26:56 +0000";
layers = (
{
layerId = "C917F9CB-DEFA-4BDD-B24E-8B4296F56613";
name = "SemiBold Italic";
paths = (
{
closed = 1;
nodes = (
"474 0 LINE",
"500 127 LINE",
"180 127 LINE",
"302 699 LINE",
"150 699 LINE",
"2 0 LINE"
);
}
);
width = 537;
}
);
note = L;
rightKerningGroup = L;
unicode = 004C;
},
{
glyphname = Lacute;
lastChange = "2015-11-30 01:26:55 +0000";
layers = (
{
layerId = "C917F9CB-DEFA-4BDD-B24E-8B4296F56613";
name = "SemiBold Italic";
paths = (
{
closed = 1;
nodes = (
"474 0 LINE",
"500 127 LINE",
"180 127 LINE",
"302 699 LINE",
"150 699 LINE",
"2 0 LINE"
);
},
{
closed = 1;
nodes = (
"288 742 LINE",
"414 918 LINE",
"255 918 LINE",
"149 742 LINE"
);
}
);
width = 537;
}
);
note = Lacute;
rightKerningGroup = L;
unicode = 0139;
},
{
glyphname = Lcaron;
lastChange = "2015-11-30 01:26:55 +0000";
layers = (
{
layerId = "C917F9CB-DEFA-4BDD-B24E-8B4296F56613";
name = "SemiBold Italic";
paths = (
{
closed = 1;
nodes = (
"474 0 LINE",
"500 127 LINE",
"180 127 LINE",
"302 699 LINE",
"150 699 LINE",
"2 0 LINE"
);
},
{
closed = 1;
nodes = (
"488 503 LINE",
"633 710 LINE",
"477 710 LINE",
"351 503 LINE"
);
}
);
width = 533;
}
);
note = Lcaron;
rightKerningGroup = L;
unicode = 013D;
},
{
glyphname = Lcommaaccent;
lastChange = "2015-11-30 01:26:56 +0000";
layers = (
{
layerId = "C917F9CB-DEFA-4BDD-B24E-8B4296F56613";
name = "SemiBold Italic";
paths = (
{
closed = 1;
nodes = (
"474 0 LINE",
"500 127 LINE",
"180 127 LINE",
"302 699 LINE",
"150 699 LINE",
"2 0 LINE"
);
},
{
closed = 1;
nodes = (
"174 -260 LINE",
"319 -53 LINE",
"163 -53 LINE",
"37 -260 LINE"
);
}
);
width = 537;
}
);
note = Lcommaaccent;
rightKerningGroup = L;
unicode = 013B;
},
{
glyphname = Ldot;
lastChange = "2015-11-30 01:26:56 +0000";
layers = (
{
layerId = "C917F9CB-DEFA-4BDD-B24E-8B4296F56613";
name = "SemiBold Italic";
paths = (
{
closed = 1;
nodes = (
"474 0 LINE",
"500 127 LINE",
"180 127 LINE",
"302 699 LINE",
"150 699 LINE",
"2 0 LINE"
);
},
{
closed = 1;
nodes = (
"443 319 OFFCURVE",
"481 350 OFFCURVE",
"490 390 CURVE SMOOTH",
"498 430 OFFCURVE",
"473 462 OFFCURVE",
"434 462 CURVE SMOOTH",
"395 462 OFFCURVE",
"354 430 OFFCURVE",
"346 390 CURVE SMOOTH",
"337 350 OFFCURVE",
"365 319 OFFCURVE",
"404 319 CURVE SMOOTH"
);
}
);
width = 537;
}
);
note = Ldot;
rightKerningGroup = L;
unicode = 013F;
},
{
glyphname = Ldotbelow;
lastChange = "2015-11-30 01:26:55 +0000";
layers = (
{
layerId = "C917F9CB-DEFA-4BDD-B24E-8B4296F56613";
name = "SemiBold Italic";
paths = (
{
closed = 1;
nodes = (
"474 0 LINE",
"500 127 LINE",
"180 127 LINE",
"302 699 LINE",
"150 699 LINE",
"2 0 LINE"
);
},
{
closed = 1;
nodes = (
"219 -190 OFFCURVE",
"257 -158 OFFCURVE",
"265 -118 CURVE SMOOTH",
"274 -78 OFFCURVE",
"249 -46 OFFCURVE",
"211 -46 CURVE SMOOTH",
"172 -46 OFFCURVE",
"131 -78 OFFCURVE",
"122 -118 CURVE SMOOTH",
"114 -158 OFFCURVE",
"141 -190 OFFCURVE",
"180 -190 CURVE SMOOTH"
);
}
);
width = 537;
}
);
note = Ldotbelow;
rightKerningGroup = L;
unicode = 1E36;
},
{
glyphname = Ldotbelowmacron;
lastChange = "2015-11-30 01:26:56 +0000";
layers = (
{
layerId = "C917F9CB-DEFA-4BDD-B24E-8B4296F56613";
name = "SemiBold Italic";
paths = (
{
closed = 1;
nodes = (
"473 0 LINE",
"499 127 LINE",
"179 127 LINE",
"301 699 LINE",
"149 699 LINE",
"1 0 LINE"
);
},
{
closed = 1;
nodes = (
"236 -190 OFFCURVE",
"274 -158 OFFCURVE",
"282 -118 CURVE SMOOTH",
"291 -78 OFFCURVE",
"266 -46 OFFCURVE",
"228 -46 CURVE SMOOTH",
"189 -46 OFFCURVE",
"148 -78 OFFCURVE",
"139 -118 CURVE SMOOTH",
"131 -158 OFFCURVE",
"158 -190 OFFCURVE",
"197 -190 CURVE SMOOTH"
);
},
{
closed = 1;
nodes = (
"460 752 LINE",
"480 850 LINE",
"147 850 LINE",
"127 752 LINE"
);
}
);
width = 536;
}
);
note = Ldotbelowmacron;
rightKerningGroup = L;
unicode = 1E38;
},
{
glyphname = Llinebelow;
lastChange = "2015-11-30 01:26:55 +0000";
layers = (
{
layerId = "C917F9CB-DEFA-4BDD-B24E-8B4296F56613";
name = "SemiBold Italic";
paths = (
{
closed = 1;
nodes = (
"474 0 LINE",
"500 127 LINE",
"180 127 LINE",
"302 699 LINE",
"150 699 LINE",
"2 0 LINE"
);
},
{
closed = 1;
nodes = (
"367 -162 LINE",
"388 -64 LINE",
"55 -64 LINE",
"34 -162 LINE"
);
}
);
width = 537;
}
);
note = Llinebelow;
rightKerningGroup = L;
unicode = 1E3A;
},
{
glyphname = Lslash;
lastChange = "2015-11-30 01:26:56 +0000";
layers = (
{
layerId = "C917F9CB-DEFA-4BDD-B24E-8B4296F56613";
name = "SemiBold Italic";
paths = (
{
closed = 1;
nodes = (
"504 0 LINE",
"531 130 LINE",
"216 130 LINE",
"260 339 LINE",
"418 404 LINE",
"449 549 LINE",
"291 484 LINE",
"337 699 LINE",
"181 699 LINE",
"121 415 LINE",
"26 376 LINE",
"-4 231 LINE",
"90 269 LINE",
"33 0 LINE"
);
}
);
width = 567;
}
);
note = Lslash;
rightKerningGroup = L;
unicode = 0141;
},
{
glyphname = M;
lastChange = "2015-11-30 01:26:56 +0000";
layers = (
{
layerId = "C917F9CB-DEFA-4BDD-B24E-8B4296F56613";
name = "SemiBold Italic";
paths = (
{
closed = 1;
nodes = (
"148 0 LINE",
"232 397 LINE",
"332 0 LINE",
"402 0 LINE",
"671 397 LINE",
"587 0 LINE",
"732 0 LINE",
"880 699 LINE",
"726 699 LINE",
"411 231 LINE",
"295 699 LINE",
"150 699 LINE",
"2 0 LINE"
);
}
);
width = 835;
}
);
note = M;
unicode = 004D;
},
{
glyphname = Mdotbelow;
lastChange = "2015-11-30 01:26:57 +0000";
layers = (
{
layerId = "C917F9CB-DEFA-4BDD-B24E-8B4296F56613";
name = "SemiBold Italic";
paths = (
{
closed = 1;
nodes = (
"148 0 LINE",
"232 397 LINE",
"332 0 LINE",
"402 0 LINE",
"671 397 LINE",
"587 0 LINE",
"732 0 LINE",
"880 699 LINE",
"726 699 LINE",
"411 231 LINE",
"295 699 LINE",
"150 699 LINE",
"2 0 LINE"
);
},
{
closed = 1;
nodes = (
"367 -190 OFFCURVE",
"405 -158 OFFCURVE",
"413 -118 CURVE SMOOTH",
"422 -78 OFFCURVE",
"397 -46 OFFCURVE",
"359 -46 CURVE SMOOTH",
"320 -46 OFFCURVE",
"279 -78 OFFCURVE",
"270 -118 CURVE SMOOTH",
"262 -158 OFFCURVE",
"289 -190 OFFCURVE",
"328 -190 CURVE SMOOTH"
);
}
);
width = 835;
}
);
note = Mdotbelow;
unicode = 1E42;
},
{
glyphname = N;
lastChange = "2015-11-30 01:26:56 +0000";
layers = (
{
layerId = "C917F9CB-DEFA-4BDD-B24E-8B4296F56613";
name = "SemiBold Italic";
paths = (
{
closed = 1;
nodes = (
"154 0 LINE",
"250 452 LINE",
"447 0 LINE",
"594 0 LINE",
"742 699 LINE",
"590 699 LINE",
"494 247 LINE",
"298 699 LINE",
"150 699 LINE",
"2 0 LINE"
);
}
);
width = 696;
}
);
note = N;
unicode = 004E;
},
{
glyphname = Nacute;
lastChange = "2015-11-30 01:26:55 +0000";
layers = (
{
layerId = "C917F9CB-DEFA-4BDD-B24E-8B4296F56613";
name = "SemiBold Italic";
paths = (
{
closed = 1;
nodes = (
"154 0 LINE",
"250 452 LINE",
"447 0 LINE",
"594 0 LINE",
"742 699 LINE",
"590 699 LINE",
"494 247 LINE",
"298 699 LINE",
"150 699 LINE",
"2 0 LINE"
);
},
{
closed = 1;
nodes = (
"498 742 LINE",
"624 918 LINE",
"465 918 LINE",
"359 742 LINE"
);
}
);
width = 696;
}
);
note = Nacute;
unicode = 0143;
},
{
glyphname = Ncaron;
lastChange = "2015-11-30 01:26:55 +0000";
layers = (
{
layerId = "C917F9CB-DEFA-4BDD-B24E-8B4296F56613";
name = "SemiBold Italic";
paths = (
{
closed = 1;
nodes = (
"154 0 LINE",
"250 452 LINE",
"447 0 LINE",
"594 0 LINE",
"742 699 LINE",
"590 699 LINE",
"494 247 LINE",
"298 699 LINE",
"150 699 LINE",
"2 0 LINE"
);
},
{
closed = 1;
nodes = (
"504 742 LINE",
"692 918 LINE",
"542 918 LINE",
"455 826 LINE",
"406 918 LINE",
"256 918 LINE",
"369 742 LINE"
);
}
);
width = 696;
}
);
note = Ncaron;
unicode = 0147;
},
{
glyphname = Ncommaaccent;
lastChange = "2015-11-30 01:26:56 +0000";
layers = (
{
layerId = "C917F9CB-DEFA-4BDD-B24E-8B4296F56613";
name = "SemiBold Italic";
paths = (
{
closed = 1;
nodes = (
"154 0 LINE",
"250 452 LINE",
"447 0 LINE",
"594 0 LINE",
"742 699 LINE",
"590 699 LINE",
"494 247 LINE",
"298 699 LINE",
"150 699 LINE",
"2 0 LINE"
);
},
{
closed = 1;
nodes = (
"229 -260 LINE",
"374 -53 LINE",
"218 -53 LINE",
"92 -260 LINE"
);
}
);
width = 696;
}
);
note = Ncommaaccent;
unicode = 0145;
},
{
glyphname = Ndotaccent;
lastChange = "2015-11-30 01:26:55 +0000";
layers = (
{
layerId = "C917F9CB-DEFA-4BDD-B24E-8B4296F56613";
name = "SemiBold Italic";
paths = (
{
closed = 1;
nodes = (
"154 0 LINE",
"250 452 LINE",
"447 0 LINE",
"594 0 LINE",
"742 699 LINE",
"590 699 LINE",
"494 247 LINE",
"298 699 LINE",
"150 699 LINE",
"2 0 LINE"
);
},
{
closed = 1;
nodes = (
"485 752 OFFCURVE",
"523 783 OFFCURVE",
"532 823 CURVE SMOOTH",
"540 863 OFFCURVE",
"515 895 OFFCURVE",
"476 895 CURVE SMOOTH",
"437 895 OFFCURVE",
"396 863 OFFCURVE",
"388 823 CURVE SMOOTH",
"379 783 OFFCURVE",
"407 752 OFFCURVE",
"446 752 CURVE SMOOTH"
);
}
);
width = 696;
}
);
note = Ndotaccent;
unicode = 1E44;
},
{
glyphname = Ndotbelow;
lastChange = "2015-11-30 01:26:56 +0000";
layers = (
{
layerId = "C917F9CB-DEFA-4BDD-B24E-8B4296F56613";
name = "SemiBold Italic";
paths = (
{
closed = 1;
nodes = (
"154 0 LINE",
"250 452 LINE",
"447 0 LINE",
"594 0 LINE",
"742 699 LINE",
"590 699 LINE",
"494 247 LINE",
"298 699 LINE",
"150 699 LINE",
"2 0 LINE"
);
},
{
closed = 1;
nodes = (
"305 -190 OFFCURVE",
"343 -158 OFFCURVE",
"351 -118 CURVE SMOOTH",
"360 -78 OFFCURVE",
"335 -46 OFFCURVE",
"297 -46 CURVE SMOOTH",
"258 -46 OFFCURVE",
"217 -78 OFFCURVE",
"208 -118 CURVE SMOOTH",
"200 -158 OFFCURVE",
"227 -190 OFFCURVE",
"266 -190 CURVE SMOOTH"
);
}
);
width = 696;
}
);
note = Ndotbelow;
unicode = 1E46;
},
{
glyphname = Eng;
lastChange = "2015-11-30 01:26:56 +0000";
layers = (
{
layerId = "C917F9CB-DEFA-4BDD-B24E-8B4296F56613";
name = "SemiBold Italic";
paths = (
{
closed = 1;
nodes = (
"485 -231 OFFCURVE",
"557 -173 OFFCURVE",
"584 -46 CURVE SMOOTH",
"742 699 LINE",
"590 699 LINE",
"494 247 LINE",
"298 699 LINE",
"150 699 LINE",
"2 0 LINE",
"154 0 LINE",
"250 452 LINE",
"444 7 LINE",
"436 -29 LINE SMOOTH",
"425 -84 OFFCURVE",
"394 -108 OFFCURVE",
"344 -108 CURVE SMOOTH",
"318 -108 OFFCURVE",
"298 -103 OFFCURVE",
"281 -95 CURVE",
"256 -216 LINE",
"277 -225 OFFCURVE",
"305 -231 OFFCURVE",
"342 -231 CURVE SMOOTH"
);
}
);
width = 702;
}
);
note = Eng;
unicode = 014A;
},
{
glyphname = Nlinebelow;
lastChange = "2015-11-30 01:26:55 +0000";
layers = (
{
layerId = "C917F9CB-DEFA-4BDD-B24E-8B4296F56613";
name = "SemiBold Italic";
paths = (
{
closed = 1;
nodes = (
"154 0 LINE",
"250 452 LINE",
"447 0 LINE",
"594 0 LINE",
"742 699 LINE",
"590 699 LINE",
"494 247 LINE",
"298 699 LINE",
"150 699 LINE",
"2 0 LINE"
);
},
{
closed = 1;
nodes = (
"441 -162 LINE",
"462 -64 LINE",
"129 -64 LINE",
"108 -162 LINE"
);
}
);
width = 696;
}
);
note = Nlinebelow;
unicode = 1E48;
},
{
glyphname = Ntilde;
lastChange = "2015-11-30 01:26:55 +0000";
layers = (
{
layerId = "C917F9CB-DEFA-4BDD-B24E-8B4296F56613";
name = "SemiBold Italic";
paths = (
{
closed = 1;
nodes = (
"154 0 LINE",
"250 452 LINE",
"447 0 LINE",
"594 0 LINE",
"742 699 LINE",
"590 699 LINE",
"494 247 LINE",
"298 699 LINE",
"150 699 LINE",
"2 0 LINE"
);
},
{
closed = 1;
nodes = (
"284 780 OFFCURVE",
"321 793 OFFCURVE",
"359 793 CURVE SMOOTH",
"423 793 OFFCURVE",
"468 743 OFFCURVE",
"541 743 CURVE SMOOTH",
"584 743 OFFCURVE",
"621 754 OFFCURVE",
"651 785 CURVE",
"675 900 LINE",
"639 863 OFFCURVE",
"603 850 OFFCURVE",
"564 850 CURVE SMOOTH",
"499 850 OFFCURVE",
"449 900 OFFCURVE",
"381 900 CURVE SMOOTH",
"339 900 OFFCURVE",
"300 888 OFFCURVE",
"269 857 CURVE",
"245 742 LINE"
);
}
);
width = 696;
}
);
note = Ntilde;
unicode = 00D1;
},
{
glyphname = O;
lastChange = "2015-11-30 01:26:55 +0000";
layers = (
{
layerId = "C917F9CB-DEFA-4BDD-B24E-8B4296F56613";
name = "SemiBold Italic";
paths = (
{
closed = 1;
nodes = (
"581 -15 OFFCURVE",
"755 131 OFFCURVE",
"802 349 CURVE SMOOTH",
"848 568 OFFCURVE",
"717 714 OFFCURVE",
"507 714 CURVE SMOOTH",
"282 714 OFFCURVE",
"102 568 OFFCURVE",
"56 349 CURVE SMOOTH",
"9 131 OFFCURVE",
"141 -15 OFFCURVE",
"352 -15 CURVE SMOOTH"
);
},
{
closed = 1;
nodes = (
"235 125 OFFCURVE",
"181 210 OFFCURVE",
"211 349 CURVE SMOOTH",
"240 486 OFFCURVE",
"354 572 OFFCURVE",
"477 572 CURVE SMOOTH",
"622 572 OFFCURVE",
"676 486 OFFCURVE",
"647 349 CURVE SMOOTH",
"617 210 OFFCURVE",
"501 125 OFFCURVE",
"382 125 CURVE SMOOTH"
);
}
);
width = 810;
}
);
leftKerningGroup = O;
note = O;
rightKerningGroup = O;
unicode = 004F;
},
{
glyphname = Oacute;
lastChange = "2015-11-30 01:26:56 +0000";
layers = (
{
layerId = "C917F9CB-DEFA-4BDD-B24E-8B4296F56613";
name = "SemiBold Italic";
paths = (
{
closed = 1;
nodes = (
"581 -15 OFFCURVE",
"755 131 OFFCURVE",
"802 349 CURVE SMOOTH",
"848 568 OFFCURVE",
"717 714 OFFCURVE",
"507 714 CURVE SMOOTH",
"282 714 OFFCURVE",
"102 568 OFFCURVE",
"56 349 CURVE SMOOTH",
"9 131 OFFCURVE",
"141 -15 OFFCURVE",
"352 -15 CURVE SMOOTH"
);
},
{
closed = 1;
nodes = (
"235 125 OFFCURVE",
"181 210 OFFCURVE",
"211 349 CURVE SMOOTH",
"240 486 OFFCURVE",
"354 572 OFFCURVE",
"477 572 CURVE SMOOTH",
"622 572 OFFCURVE",
"676 486 OFFCURVE",
"647 349 CURVE SMOOTH",
"617 210 OFFCURVE",
"501 125 OFFCURVE",
"382 125 CURVE SMOOTH"
);
},
{
closed = 1;
nodes = (
"561 742 LINE",
"687 918 LINE",
"528 918 LINE",
"422 742 LINE"
);
}
);
width = 810;
}
);
leftKerningGroup = O;
note = Oacute;
rightKerningGroup = O;
unicode = 00D3;
},
{
glyphname = Obreve;
lastChange = "2015-11-30 01:26:56 +0000";
layers = (
{
layerId = "C917F9CB-DEFA-4BDD-B24E-8B4296F56613";
name = "SemiBold Italic";
paths = (
{
closed = 1;
nodes = (
"581 -15 OFFCURVE",
"755 131 OFFCURVE",
"802 349 CURVE SMOOTH",
"848 568 OFFCURVE",
"717 714 OFFCURVE",
"507 714 CURVE SMOOTH",
"282 714 OFFCURVE",
"102 568 OFFCURVE",
"56 349 CURVE SMOOTH",
"9 131 OFFCURVE",
"141 -15 OFFCURVE",
"352 -15 CURVE SMOOTH"
);
},
{
closed = 1;
nodes = (
"235 125 OFFCURVE",
"181 210 OFFCURVE",
"211 349 CURVE SMOOTH",
"240 486 OFFCURVE",
"354 572 OFFCURVE",
"477 572 CURVE SMOOTH",
"622 572 OFFCURVE",
"676 486 OFFCURVE",
"647 349 CURVE SMOOTH",
"617 210 OFFCURVE",
"501 125 OFFCURVE",
"382 125 CURVE SMOOTH"
);
},
{
closed = 1;
nodes = (
"600 742 OFFCURVE",
"677 807 OFFCURVE",
"698 904 CURVE",
"585 904 LINE",
"576 862 OFFCURVE",
"549 840 OFFCURVE",
"512 840 CURVE SMOOTH",
"474 840 OFFCURVE",
"458 862 OFFCURVE",
"467 904 CURVE",
"355 904 LINE",
"334 807 OFFCURVE",
"382 742 OFFCURVE",
"491 742 CURVE SMOOTH"
);
}
);
width = 810;
}
);
leftKerningGroup = O;
note = Obreve;
rightKerningGroup = O;
unicode = 014E;
},
{
glyphname = Ocaron;
lastChange = "2015-11-30 01:26:57 +0000";
layers = (
{
layerId = "C917F9CB-DEFA-4BDD-B24E-8B4296F56613";
name = "SemiBold Italic";
paths = (
{
closed = 1;
nodes = (
"581 -15 OFFCURVE",
"755 131 OFFCURVE",
"802 349 CURVE SMOOTH",
"848 568 OFFCURVE",
"717 714 OFFCURVE",
"507 714 CURVE SMOOTH",
"282 714 OFFCURVE",
"102 568 OFFCURVE",
"56 349 CURVE SMOOTH",
"9 131 OFFCURVE",
"141 -15 OFFCURVE",
"352 -15 CURVE SMOOTH"
);
},
{
closed = 1;
nodes = (
"235 125 OFFCURVE",
"181 210 OFFCURVE",
"211 349 CURVE SMOOTH",
"240 486 OFFCURVE",
"354 572 OFFCURVE",
"477 572 CURVE SMOOTH",
"622 572 OFFCURVE",
"676 486 OFFCURVE",
"647 349 CURVE SMOOTH",
"617 210 OFFCURVE",
"501 125 OFFCURVE",
"382 125 CURVE SMOOTH"
);
},
{
closed = 1;
nodes = (
"559 742 LINE",
"747 918 LINE",
"597 918 LINE",
"510 826 LINE",
"461 918 LINE",
"311 918 LINE",
"424 742 LINE"
);
}
);
width = 810;
}
);
leftKerningGroup = O;
note = Ocaron;
rightKerningGroup = O;
unicode = 01D1;
},
{
glyphname = Ocircumflex;
lastChange = "2015-11-30 01:26:56 +0000";
layers = (
{
layerId = "C917F9CB-DEFA-4BDD-B24E-8B4296F56613";
name = "SemiBold Italic";
paths = (
{
closed = 1;
nodes = (
"581 -15 OFFCURVE",
"755 131 OFFCURVE",
"802 349 CURVE SMOOTH",
"848 568 OFFCURVE",
"717 714 OFFCURVE",
"507 714 CURVE SMOOTH",
"282 714 OFFCURVE",
"102 568 OFFCURVE",
"56 349 CURVE SMOOTH",
"9 131 OFFCURVE",
"141 -15 OFFCURVE",
"352 -15 CURVE SMOOTH"
);
},
{
closed = 1;
nodes = (
"235 125 OFFCURVE",
"181 210 OFFCURVE",
"211 349 CURVE SMOOTH",
"240 486 OFFCURVE",
"354 572 OFFCURVE",
"477 572 CURVE SMOOTH",
"622 572 OFFCURVE",
"676 486 OFFCURVE",
"647 349 CURVE SMOOTH",
"617 210 OFFCURVE",
"501 125 OFFCURVE",
"382 125 CURVE SMOOTH"
);
},
{
closed = 1;
nodes = (
"425 742 LINE",
"513 834 LINE",
"561 742 LINE",
"711 742 LINE",
"597 918 LINE",
"462 918 LINE",
"275 742 LINE"
);
}
);
width = 810;
}
);
leftKerningGroup = O;
note = Ocircumflex;
rightKerningGroup = O;
unicode = 00D4;
},
{
glyphname = Ocircumflexacute;
lastChange = "2015-11-30 01:26:55 +0000";
layers = (
{
layerId = "C917F9CB-DEFA-4BDD-B24E-8B4296F56613";
name = "SemiBold Italic";
paths = (
{
closed = 1;
nodes = (
"581 -15 OFFCURVE",
"755 131 OFFCURVE",
"802 349 CURVE SMOOTH",
"848 568 OFFCURVE",
"717 714 OFFCURVE",
"507 714 CURVE SMOOTH",
"282 714 OFFCURVE",
"102 568 OFFCURVE",
"56 349 CURVE SMOOTH",
"9 131 OFFCURVE",
"141 -15 OFFCURVE",
"352 -15 CURVE SMOOTH"
);
},
{
closed = 1;
nodes = (
"235 125 OFFCURVE",
"181 210 OFFCURVE",
"211 349 CURVE SMOOTH",
"240 486 OFFCURVE",
"354 572 OFFCURVE",
"477 572 CURVE SMOOTH",
"622 572 OFFCURVE",
"676 486 OFFCURVE",
"647 349 CURVE SMOOTH",
"617 210 OFFCURVE",
"501 125 OFFCURVE",
"382 125 CURVE SMOOTH"
);
},
{
closed = 1;
nodes = (
"457 742 LINE",
"538 818 LINE",
"587 742 LINE",
"724 742 LINE",
"613 897 LINE",
"498 897 LINE",
"319 742 LINE"
);
},
{
closed = 1;
nodes = (
"797 850 LINE",
"904 983 LINE",
"765 983 LINE",
"678 850 LINE"
);
}
);
width = 810;
}
);
leftKerningGroup = O;
note = Ocircumflexacute;
rightKerningGroup = O;
unicode = 1ED0;
},
{
glyphname = Ocircumflexdotbelow;
lastChange = "2015-11-30 01:26:56 +0000";
layers = (
{
layerId = "C917F9CB-DEFA-4BDD-B24E-8B4296F56613";
name = "SemiBold Italic";
paths = (
{
closed = 1;
nodes = (
"581 -15 OFFCURVE",
"755 131 OFFCURVE",
"802 349 CURVE SMOOTH",
"848 568 OFFCURVE",
"717 714 OFFCURVE",
"507 714 CURVE SMOOTH",
"282 714 OFFCURVE",
"102 568 OFFCURVE",
"56 349 CURVE SMOOTH",
"9 131 OFFCURVE",
"141 -15 OFFCURVE",
"352 -15 CURVE SMOOTH"
);
},
{
closed = 1;
nodes = (
"356 -190 OFFCURVE",
"394 -158 OFFCURVE",
"402 -118 CURVE SMOOTH",
"411 -78 OFFCURVE",
"386 -46 OFFCURVE",
"348 -46 CURVE SMOOTH",
"309 -46 OFFCURVE",
"268 -78 OFFCURVE",
"259 -118 CURVE SMOOTH",
"251 -158 OFFCURVE",
"278 -190 OFFCURVE",
"317 -190 CURVE SMOOTH"
);
},
{
closed = 1;
nodes = (
"235 125 OFFCURVE",
"181 210 OFFCURVE",
"211 349 CURVE SMOOTH",
"240 486 OFFCURVE",
"354 572 OFFCURVE",
"477 572 CURVE SMOOTH",
"622 572 OFFCURVE",
"676 486 OFFCURVE",
"647 349 CURVE SMOOTH",
"617 210 OFFCURVE",
"501 125 OFFCURVE",
"382 125 CURVE SMOOTH"
);
},
{
closed = 1;
nodes = (
"425 742 LINE",
"513 834 LINE",
"561 742 LINE",
"711 742 LINE",
"597 918 LINE",
"462 918 LINE",
"275 742 LINE"
);
}
);
width = 810;
}
);
leftKerningGroup = O;
note = Ocircumflexdotbelow;
rightKerningGroup = O;
unicode = 1ED8;
},
{
glyphname = Ocircumflexgrave;
lastChange = "2015-11-30 01:26:55 +0000";
layers = (
{
layerId = "C917F9CB-DEFA-4BDD-B24E-8B4296F56613";
name = "SemiBold Italic";
paths = (
{
closed = 1;
nodes = (
"581 -15 OFFCURVE",
"755 131 OFFCURVE",
"802 349 CURVE SMOOTH",
"848 568 OFFCURVE",
"717 714 OFFCURVE",
"507 714 CURVE SMOOTH",
"282 714 OFFCURVE",
"102 568 OFFCURVE",
"56 349 CURVE SMOOTH",
"9 131 OFFCURVE",
"141 -15 OFFCURVE",
"352 -15 CURVE SMOOTH"
);
},
{
closed = 1;
nodes = (
"235 125 OFFCURVE",
"181 210 OFFCURVE",
"211 349 CURVE SMOOTH",
"240 486 OFFCURVE",
"354 572 OFFCURVE",
"477 572 CURVE SMOOTH",
"622 572 OFFCURVE",
"676 486 OFFCURVE",
"647 349 CURVE SMOOTH",
"617 210 OFFCURVE",
"501 125 OFFCURVE",
"382 125 CURVE SMOOTH"
);
},
{
closed = 1;
nodes = (
"408 850 LINE",
"376 983 LINE",
"236 983 LINE",
"287 850 LINE"
);
},
{
closed = 1;
nodes = (
"452 742 LINE",
"533 818 LINE",
"581 742 LINE",
"719 742 LINE",
"607 897 LINE",
"493 897 LINE",
"315 742 LINE"
);
}
);
width = 810;
}
);
leftKerningGroup = O;
note = Ocircumflexgrave;
rightKerningGroup = O;
unicode = 1ED2;
},
{
glyphname = Ocircumflexhookabove;
lastChange = "2015-11-30 01:26:56 +0000";
layers = (
{
layerId = "C917F9CB-DEFA-4BDD-B24E-8B4296F56613";
name = "SemiBold Italic";
paths = (
{
closed = 1;
nodes = (
"581 -15 OFFCURVE",
"755 131 OFFCURVE",
"802 349 CURVE SMOOTH",
"848 568 OFFCURVE",
"717 714 OFFCURVE",
"507 714 CURVE SMOOTH",
"282 714 OFFCURVE",
"102 568 OFFCURVE",
"56 349 CURVE SMOOTH",
"9 131 OFFCURVE",
"141 -15 OFFCURVE",
"352 -15 CURVE SMOOTH"
);
},
{
closed = 1;
nodes = (
"235 125 OFFCURVE",
"181 210 OFFCURVE",
"211 349 CURVE SMOOTH",
"240 486 OFFCURVE",
"354 572 OFFCURVE",
"477 572 CURVE SMOOTH",
"622 572 OFFCURVE",
"676 486 OFFCURVE",
"647 349 CURVE SMOOTH",
"617 210 OFFCURVE",
"501 125 OFFCURVE",
"382 125 CURVE SMOOTH"
);
},
{
closed = 1;
nodes = (
"455 742 LINE",
"536 818 LINE",
"585 742 LINE",
"722 742 LINE",
"611 897 LINE",
"496 897 LINE",
"317 742 LINE"
);
},
{
closed = 1;
nodes = (
"767 839 LINE",
"772 863 LINE",
"813 871 OFFCURVE",
"841 895 OFFCURVE",
"848 928 CURVE SMOOTH",
"857 971 OFFCURVE",
"826 1000 OFFCURVE",
"761 1000 CURVE SMOOTH",
"735 1000 OFFCURVE",
"700 995 OFFCURVE",
"681 989 CURVE",
"670 935 LINE",
"680 939 OFFCURVE",
"696 942 OFFCURVE",
"709 942 CURVE SMOOTH",
"736 942 OFFCURVE",
"749 936 OFFCURVE",
"745 918 CURVE SMOOTH",
"740 896 OFFCURVE",
"720 889 OFFCURVE",
"684 889 CURVE",
"674 839 LINE"
);
}
);
width = 810;
}
);
leftKerningGroup = O;
note = Ocircumflexhookabove;
rightKerningGroup = O;
unicode = 1ED4;
},
{
glyphname = Ocircumflextilde;
lastChange = "2015-11-30 01:26:55 +0000";
layers = (
{
layerId = "C917F9CB-DEFA-4BDD-B24E-8B4296F56613";
name = "SemiBold Italic";
paths = (
{
closed = 1;
nodes = (
"581 -15 OFFCURVE",
"755 131 OFFCURVE",
"802 349 CURVE SMOOTH",
"848 568 OFFCURVE",
"717 714 OFFCURVE",
"507 714 CURVE SMOOTH",
"282 714 OFFCURVE",
"102 568 OFFCURVE",
"56 349 CURVE SMOOTH",
"9 131 OFFCURVE",
"141 -15 OFFCURVE",
"352 -15 CURVE SMOOTH"
);
},
{
closed = 1;
nodes = (
"235 125 OFFCURVE",
"181 210 OFFCURVE",
"211 349 CURVE SMOOTH",
"240 486 OFFCURVE",
"354 572 OFFCURVE",
"477 572 CURVE SMOOTH",
"622 572 OFFCURVE",
"676 486 OFFCURVE",
"647 349 CURVE SMOOTH",
"617 210 OFFCURVE",
"501 125 OFFCURVE",
"382 125 CURVE SMOOTH"
);
},
{
closed = 1;
nodes = (
"613 742 OFFCURVE",
"688 799 OFFCURVE",
"707 890 CURVE",
"605 890 LINE",
"596 850 OFFCURVE",
"570 831 OFFCURVE",
"531 831 CURVE SMOOTH",
"491 831 OFFCURVE",
"474 850 OFFCURVE",
"483 890 CURVE",
"379 890 LINE",
"360 799 OFFCURVE",
"411 742 OFFCURVE",
"512 742 CURVE SMOOTH"
);
},
{
closed = 1;
nodes = (
"665 923 OFFCURVE",
"693 933 OFFCURVE",
"716 957 CURVE",
"737 1053 LINE",
"707 1023 OFFCURVE",
"679 1011 OFFCURVE",
"649 1011 CURVE SMOOTH",
"599 1011 OFFCURVE",
"552 1054 OFFCURVE",
"501 1054 CURVE SMOOTH",
"465 1054 OFFCURVE",
"436 1044 OFFCURVE",
"412 1019 CURVE",
"392 924 LINE",
"423 954 OFFCURVE",
"450 966 OFFCURVE",
"482 966 CURVE SMOOTH",
"530 966 OFFCURVE",
"574 923 OFFCURVE",
"630 923 CURVE SMOOTH"
);
}
);
width = 810;
}
);
leftKerningGroup = O;
note = Ocircumflextilde;
rightKerningGroup = O;
unicode = 1ED6;
},
{
glyphname = Odieresis;
lastChange = "2015-11-30 01:26:55 +0000";
layers = (
{
layerId = "C917F9CB-DEFA-4BDD-B24E-8B4296F56613";
name = "SemiBold Italic";
paths = (
{
closed = 1;
nodes = (
"581 -15 OFFCURVE",
"755 131 OFFCURVE",
"802 349 CURVE SMOOTH",
"848 568 OFFCURVE",
"717 714 OFFCURVE",
"507 714 CURVE SMOOTH",
"282 714 OFFCURVE",
"102 568 OFFCURVE",
"56 349 CURVE SMOOTH",
"9 131 OFFCURVE",
"141 -15 OFFCURVE",
"352 -15 CURVE SMOOTH"
);
},
{
closed = 1;
nodes = (
"235 125 OFFCURVE",
"181 210 OFFCURVE",
"211 349 CURVE SMOOTH",
"240 486 OFFCURVE",
"354 572 OFFCURVE",
"477 572 CURVE SMOOTH",
"622 572 OFFCURVE",
"676 486 OFFCURVE",
"647 349 CURVE SMOOTH",
"617 210 OFFCURVE",
"501 125 OFFCURVE",
"382 125 CURVE SMOOTH"
);
},
{
closed = 1;
nodes = (
"415 752 OFFCURVE",
"453 783 OFFCURVE",
"462 823 CURVE SMOOTH",
"470 863 OFFCURVE",
"445 895 OFFCURVE",
"406 895 CURVE SMOOTH",
"368 895 OFFCURVE",
"328 863 OFFCURVE",
"320 823 CURVE SMOOTH",
"311 783 OFFCURVE",
"338 752 OFFCURVE",
"376 752 CURVE SMOOTH"
);
},
{
closed = 1;
nodes = (
"651 752 OFFCURVE",
"690 783 OFFCURVE",
"699 823 CURVE SMOOTH",
"707 863 OFFCURVE",
"681 895 OFFCURVE",
"643 895 CURVE SMOOTH",
"604 895 OFFCURVE",
"563 863 OFFCURVE",
"555 823 CURVE SMOOTH",
"546 783 OFFCURVE",
"574 752 OFFCURVE",
"613 752 CURVE SMOOTH"
);
}
);
width = 810;
}
);
leftKerningGroup = O;
note = Odieresis;
rightKerningGroup = O;
unicode = 00D6;
},
{
glyphname = Odotbelow;
lastChange = "2015-11-30 01:26:55 +0000";
layers = (
{
layerId = "C917F9CB-DEFA-4BDD-B24E-8B4296F56613";
name = "SemiBold Italic";
paths = (
{
closed = 1;
nodes = (
"581 -15 OFFCURVE",
"755 131 OFFCURVE",
"802 349 CURVE SMOOTH",
"848 568 OFFCURVE",
"717 714 OFFCURVE",
"507 714 CURVE SMOOTH",
"282 714 OFFCURVE",
"102 568 OFFCURVE",
"56 349 CURVE SMOOTH",
"9 131 OFFCURVE",
"141 -15 OFFCURVE",
"352 -15 CURVE SMOOTH"
);
},
{
closed = 1;
nodes = (
"355 -190 OFFCURVE",
"393 -158 OFFCURVE",
"401 -118 CURVE SMOOTH",
"410 -78 OFFCURVE",
"385 -46 OFFCURVE",
"347 -46 CURVE SMOOTH",
"308 -46 OFFCURVE",
"267 -78 OFFCURVE",
"258 -118 CURVE SMOOTH",
"250 -158 OFFCURVE",
"277 -190 OFFCURVE",
"316 -190 CURVE SMOOTH"
);
},
{
closed = 1;
nodes = (
"235 125 OFFCURVE",
"181 210 OFFCURVE",
"211 349 CURVE SMOOTH",
"240 486 OFFCURVE",
"354 572 OFFCURVE",
"477 572 CURVE SMOOTH",
"622 572 OFFCURVE",
"676 486 OFFCURVE",
"647 349 CURVE SMOOTH",
"617 210 OFFCURVE",
"501 125 OFFCURVE",
"382 125 CURVE SMOOTH"
);
}
);
width = 810;
}
);
leftKerningGroup = O;
note = Odotbelow;
rightKerningGroup = O;
unicode = 1ECC;
},
{
glyphname = Ograve;
lastChange = "2015-11-30 01:26:56 +0000";
layers = (
{
layerId = "C917F9CB-DEFA-4BDD-B24E-8B4296F56613";
name = "SemiBold Italic";
paths = (
{
closed = 1;
nodes = (
"581 -15 OFFCURVE",
"755 131 OFFCURVE",
"802 349 CURVE SMOOTH",
"848 568 OFFCURVE",
"717 714 OFFCURVE",
"507 714 CURVE SMOOTH",
"282 714 OFFCURVE",
"102 568 OFFCURVE",
"56 349 CURVE SMOOTH",
"9 131 OFFCURVE",
"141 -15 OFFCURVE",
"352 -15 CURVE SMOOTH"
);
},
{
closed = 1;
nodes = (
"235 125 OFFCURVE",
"181 210 OFFCURVE",
"211 349 CURVE SMOOTH",
"240 486 OFFCURVE",
"354 572 OFFCURVE",
"477 572 CURVE SMOOTH",
"622 572 OFFCURVE",
"676 486 OFFCURVE",
"647 349 CURVE SMOOTH",
"617 210 OFFCURVE",
"501 125 OFFCURVE",
"382 125 CURVE SMOOTH"
);
},
{
closed = 1;
nodes = (
"578 742 LINE",
"546 918 LINE",
"387 918 LINE",
"438 742 LINE"
);
}
);
width = 810;
}
);
leftKerningGroup = O;
note = Ograve;
rightKerningGroup = O;
unicode = 00D2;
},
{
glyphname = Ohookabove;
lastChange = "2015-11-30 01:26:55 +0000";
layers = (
{
layerId = "C917F9CB-DEFA-4BDD-B24E-8B4296F56613";
name = "SemiBold Italic";
paths = (
{
closed = 1;
nodes = (
"581 -15 OFFCURVE",
"755 131 OFFCURVE",
"802 349 CURVE SMOOTH",
"848 568 OFFCURVE",
"717 714 OFFCURVE",
"507 714 CURVE SMOOTH",
"282 714 OFFCURVE",
"102 568 OFFCURVE",
"56 349 CURVE SMOOTH",
"9 131 OFFCURVE",
"141 -15 OFFCURVE",
"352 -15 CURVE SMOOTH"
);
},
{
closed = 1;
nodes = (
"235 125 OFFCURVE",
"181 210 OFFCURVE",
"211 349 CURVE SMOOTH",
"240 486 OFFCURVE",
"354 572 OFFCURVE",
"477 572 CURVE SMOOTH",
"622 572 OFFCURVE",
"676 486 OFFCURVE",
"647 349 CURVE SMOOTH",
"617 210 OFFCURVE",
"501 125 OFFCURVE",
"382 125 CURVE SMOOTH"
);
},
{
closed = 1;
nodes = (
"556 742 LINE",
"562 771 LINE",
"622 783 OFFCURVE",
"662 821 OFFCURVE",
"672 869 CURVE SMOOTH",
"685 930 OFFCURVE",
"645 972 OFFCURVE",
"545 972 CURVE SMOOTH",
"507 972 OFFCURVE",
"460 965 OFFCURVE",
"433 957 CURVE",
"417 882 LINE",
"431 888 OFFCURVE",
"465 893 OFFCURVE",
"481 893 CURVE SMOOTH",
"524 893 OFFCURVE",
"539 882 OFFCURVE",
"533 858 CURVE",
"526 824 OFFCURVE",
"491 814 OFFCURVE",
"439 814 CURVE",
"424 742 LINE"
);
}
);
width = 810;
}
);
leftKerningGroup = O;
note = Ohookabove;
rightKerningGroup = O;
unicode = 1ECE;
},
{
glyphname = Ohorn;
lastChange = "2015-11-30 01:26:55 +0000";
layers = (
{
layerId = "C917F9CB-DEFA-4BDD-B24E-8B4296F56613";
name = "SemiBold Italic";
paths = (
{
closed = 1;
nodes = (
"581 -15 OFFCURVE",
"755 131 OFFCURVE",
"802 349 CURVE SMOOTH",
"815 413 OFFCURVE",
"814 472 OFFCURVE",
"799 522 CURVE",
"891 542 OFFCURVE",
"956 614 OFFCURVE",
"975 703 CURVE SMOOTH",
"984 747 LINE",
"852 747 LINE",
"845 712 LINE SMOOTH",
"833 652 OFFCURVE",
"807 628 OFFCURVE",
"738 627 CURVE",
"685 682 OFFCURVE",
"604 714 OFFCURVE",
"507 714 CURVE SMOOTH",
"282 714 OFFCURVE",
"102 568 OFFCURVE",
"56 349 CURVE SMOOTH",
"9 131 OFFCURVE",
"141 -15 OFFCURVE",
"352 -15 CURVE SMOOTH"
);
},
{
closed = 1;
nodes = (
"235 125 OFFCURVE",
"181 210 OFFCURVE",
"211 349 CURVE SMOOTH",
"240 486 OFFCURVE",
"354 572 OFFCURVE",
"477 572 CURVE SMOOTH",
"622 572 OFFCURVE",
"676 486 OFFCURVE",
"647 349 CURVE SMOOTH",
"617 210 OFFCURVE",
"501 125 OFFCURVE",
"382 125 CURVE SMOOTH"
);
}
);
width = 810;
}
);
leftKerningGroup = O;
note = Ohorn;
rightKerningGroup = O;
unicode = 01A0;
},
{
glyphname = Ohornacute;
lastChange = "2015-11-30 01:26:56 +0000";
layers = (
{
layerId = "C917F9CB-DEFA-4BDD-B24E-8B4296F56613";
name = "SemiBold Italic";
paths = (
{
closed = 1;
nodes = (
"581 -15 OFFCURVE",
"755 131 OFFCURVE",
"802 349 CURVE SMOOTH",
"815 413 OFFCURVE",
"814 472 OFFCURVE",
"799 522 CURVE",
"891 542 OFFCURVE",
"956 614 OFFCURVE",
"975 703 CURVE SMOOTH",
"984 747 LINE",
"852 747 LINE",
"845 712 LINE SMOOTH",
"833 652 OFFCURVE",
"807 628 OFFCURVE",
"738 627 CURVE",
"685 682 OFFCURVE",
"604 714 OFFCURVE",
"507 714 CURVE SMOOTH",
"282 714 OFFCURVE",
"102 568 OFFCURVE",
"56 349 CURVE SMOOTH",
"9 131 OFFCURVE",
"141 -15 OFFCURVE",
"352 -15 CURVE SMOOTH"
);
},
{
closed = 1;
nodes = (
"235 125 OFFCURVE",
"181 210 OFFCURVE",
"211 349 CURVE SMOOTH",
"240 486 OFFCURVE",
"354 572 OFFCURVE",
"477 572 CURVE SMOOTH",
"622 572 OFFCURVE",
"676 486 OFFCURVE",
"647 349 CURVE SMOOTH",
"617 210 OFFCURVE",
"501 125 OFFCURVE",
"382 125 CURVE SMOOTH"
);
},
{
closed = 1;
nodes = (
"570 742 LINE",
"696 918 LINE",
"537 918 LINE",
"431 742 LINE"
);
}
);
width = 810;
}
);
leftKerningGroup = O;
note = Ohornacute;
rightKerningGroup = O;
unicode = 1EDA;
},
{
glyphname = Ohorndotbelow;
lastChange = "2015-11-30 01:26:56 +0000";
layers = (
{
layerId = "C917F9CB-DEFA-4BDD-B24E-8B4296F56613";
name = "SemiBold Italic";
paths = (
{
closed = 1;
nodes = (
"581 -15 OFFCURVE",
"755 131 OFFCURVE",
"802 349 CURVE SMOOTH",
"815 413 OFFCURVE",
"814 472 OFFCURVE",
"799 522 CURVE",
"891 542 OFFCURVE",
"956 614 OFFCURVE",
"975 703 CURVE SMOOTH",
"984 747 LINE",
"852 747 LINE",
"845 712 LINE SMOOTH",
"833 652 OFFCURVE",
"807 628 OFFCURVE",
"738 627 CURVE",
"685 682 OFFCURVE",
"604 714 OFFCURVE",
"507 714 CURVE SMOOTH",
"282 714 OFFCURVE",
"102 568 OFFCURVE",
"56 349 CURVE SMOOTH",
"9 131 OFFCURVE",
"141 -15 OFFCURVE",
"352 -15 CURVE SMOOTH"
);
},
{
closed = 1;
nodes = (
"358 -190 OFFCURVE",
"396 -158 OFFCURVE",
"404 -118 CURVE SMOOTH",
"413 -78 OFFCURVE",
"388 -46 OFFCURVE",
"350 -46 CURVE SMOOTH",
"311 -46 OFFCURVE",
"270 -78 OFFCURVE",
"261 -118 CURVE SMOOTH",
"253 -158 OFFCURVE",
"280 -190 OFFCURVE",
"319 -190 CURVE SMOOTH"
);
},
{
closed = 1;
nodes = (
"235 125 OFFCURVE",
"181 210 OFFCURVE",
"211 349 CURVE SMOOTH",
"240 486 OFFCURVE",
"354 572 OFFCURVE",
"477 572 CURVE SMOOTH",
"622 572 OFFCURVE",
"676 486 OFFCURVE",
"647 349 CURVE SMOOTH",
"617 210 OFFCURVE",
"501 125 OFFCURVE",
"382 125 CURVE SMOOTH"
);
}
);
width = 810;
}
);
leftKerningGroup = O;
note = Ohorndotbelow;
rightKerningGroup = O;
unicode = 1EE2;
},
{
glyphname = Ohorngrave;
lastChange = "2015-11-30 01:26:55 +0000";
layers = (
{
layerId = "C917F9CB-DEFA-4BDD-B24E-8B4296F56613";
name = "SemiBold Italic";
paths = (
{
closed = 1;
nodes = (
"581 -15 OFFCURVE",
"755 131 OFFCURVE",
"802 349 CURVE SMOOTH",
"815 413 OFFCURVE",
"814 472 OFFCURVE",
"799 522 CURVE",
"891 542 OFFCURVE",
"956 614 OFFCURVE",
"975 703 CURVE SMOOTH",
"984 747 LINE",
"852 747 LINE",
"845 712 LINE SMOOTH",
"833 652 OFFCURVE",
"807 628 OFFCURVE",
"738 627 CURVE",
"685 682 OFFCURVE",
"604 714 OFFCURVE",
"507 714 CURVE SMOOTH",
"282 714 OFFCURVE",
"102 568 OFFCURVE",
"56 349 CURVE SMOOTH",
"9 131 OFFCURVE",
"141 -15 OFFCURVE",
"352 -15 CURVE SMOOTH"
);
},
{
closed = 1;
nodes = (
"235 125 OFFCURVE",
"181 210 OFFCURVE",
"211 349 CURVE SMOOTH",
"240 486 OFFCURVE",
"354 572 OFFCURVE",
"477 572 CURVE SMOOTH",
"622 572 OFFCURVE",
"676 486 OFFCURVE",
"647 349 CURVE SMOOTH",
"617 210 OFFCURVE",
"501 125 OFFCURVE",
"382 125 CURVE SMOOTH"
);
},
{
closed = 1;
nodes = (
"561 742 LINE",
"529 918 LINE",
"370 918 LINE",
"421 742 LINE"
);
}
);
width = 810;
}
);
leftKerningGroup = O;
note = Ohorngrave;
rightKerningGroup = O;
unicode = 1EDC;
},
{
glyphname = Ohornhookabove;
lastChange = "2015-11-30 01:26:56 +0000";
layers = (
{
layerId = "C917F9CB-DEFA-4BDD-B24E-8B4296F56613";
name = "SemiBold Italic";
paths = (
{
closed = 1;
nodes = (
"581 -15 OFFCURVE",
"755 131 OFFCURVE",
"802 349 CURVE SMOOTH",
"815 413 OFFCURVE",
"814 472 OFFCURVE",
"799 522 CURVE",
"891 542 OFFCURVE",
"956 614 OFFCURVE",
"975 703 CURVE SMOOTH",
"984 747 LINE",
"852 747 LINE",
"845 712 LINE SMOOTH",
"833 652 OFFCURVE",
"807 628 OFFCURVE",
"738 627 CURVE",
"685 682 OFFCURVE",
"604 714 OFFCURVE",
"507 714 CURVE SMOOTH",
"282 714 OFFCURVE",
"102 568 OFFCURVE",
"56 349 CURVE SMOOTH",
"9 131 OFFCURVE",
"141 -15 OFFCURVE",
"352 -15 CURVE SMOOTH"
);
},
{
closed = 1;
nodes = (
"235 125 OFFCURVE",
"181 210 OFFCURVE",
"211 349 CURVE SMOOTH",
"240 486 OFFCURVE",
"354 572 OFFCURVE",
"477 572 CURVE SMOOTH",
"622 572 OFFCURVE",
"676 486 OFFCURVE",
"647 349 CURVE SMOOTH",
"617 210 OFFCURVE",
"501 125 OFFCURVE",
"382 125 CURVE SMOOTH"
);
},
{
closed = 1;
nodes = (
"563 742 LINE",
"569 771 LINE",
"629 783 OFFCURVE",
"669 821 OFFCURVE",
"679 869 CURVE SMOOTH",
"692 930 OFFCURVE",
"652 972 OFFCURVE",
"552 972 CURVE SMOOTH",
"514 972 OFFCURVE",
"467 965 OFFCURVE",
"440 957 CURVE",
"424 882 LINE",
"438 888 OFFCURVE",
"472 893 OFFCURVE",
"488 893 CURVE SMOOTH",
"531 893 OFFCURVE",
"546 882 OFFCURVE",
"540 858 CURVE",
"533 824 OFFCURVE",
"498 814 OFFCURVE",
"446 814 CURVE",
"431 742 LINE"
);
}
);
width = 810;
}
);
leftKerningGroup = O;
note = Ohornhookabove;
rightKerningGroup = O;
unicode = 1EDE;
},
{
glyphname = Ohorntilde;
lastChange = "2015-11-30 01:26:56 +0000";
layers = (
{
layerId = "C917F9CB-DEFA-4BDD-B24E-8B4296F56613";
name = "SemiBold Italic";
paths = (
{
closed = 1;
nodes = (
"581 -15 OFFCURVE",
"755 131 OFFCURVE",
"802 349 CURVE SMOOTH",
"815 413 OFFCURVE",
"814 472 OFFCURVE",
"799 522 CURVE",
"891 542 OFFCURVE",
"956 614 OFFCURVE",
"975 703 CURVE SMOOTH",
"984 747 LINE",
"852 747 LINE",
"845 712 LINE SMOOTH",
"833 652 OFFCURVE",
"807 628 OFFCURVE",
"738 627 CURVE",
"685 682 OFFCURVE",
"604 714 OFFCURVE",
"507 714 CURVE SMOOTH",
"282 714 OFFCURVE",
"102 568 OFFCURVE",
"56 349 CURVE SMOOTH",
"9 131 OFFCURVE",
"141 -15 OFFCURVE",
"352 -15 CURVE SMOOTH"
);
},
{
closed = 1;
nodes = (
"235 125 OFFCURVE",
"181 210 OFFCURVE",
"211 349 CURVE SMOOTH",
"240 486 OFFCURVE",
"354 572 OFFCURVE",
"477 572 CURVE SMOOTH",
"622 572 OFFCURVE",
"676 486 OFFCURVE",
"647 349 CURVE SMOOTH",
"617 210 OFFCURVE",
"501 125 OFFCURVE",
"382 125 CURVE SMOOTH"
);
},
{
closed = 1;
nodes = (
"346 780 OFFCURVE",
"383 793 OFFCURVE",
"421 793 CURVE SMOOTH",
"485 793 OFFCURVE",
"530 743 OFFCURVE",
"603 743 CURVE SMOOTH",
"646 743 OFFCURVE",
"683 754 OFFCURVE",
"713 785 CURVE",
"737 900 LINE",
"701 863 OFFCURVE",
"665 850 OFFCURVE",
"626 850 CURVE SMOOTH",
"561 850 OFFCURVE",
"511 900 OFFCURVE",
"443 900 CURVE SMOOTH",
"401 900 OFFCURVE",
"362 888 OFFCURVE",
"331 857 CURVE",
"307 742 LINE"
);
}
);
width = 810;
}
);
leftKerningGroup = O;
note = Ohorntilde;
rightKerningGroup = O;
unicode = 1EE0;
},
{
glyphname = Ohungarumlaut;
lastChange = "2015-11-30 01:26:56 +0000";
layers = (
{
layerId = "C917F9CB-DEFA-4BDD-B24E-8B4296F56613";
name = "SemiBold Italic";
paths = (
{
closed = 1;
nodes = (
"581 -15 OFFCURVE",
"755 131 OFFCURVE",
"802 349 CURVE SMOOTH",
"848 568 OFFCURVE",
"717 714 OFFCURVE",
"507 714 CURVE SMOOTH",
"282 714 OFFCURVE",
"102 568 OFFCURVE",
"56 349 CURVE SMOOTH",
"9 131 OFFCURVE",
"141 -15 OFFCURVE",
"352 -15 CURVE SMOOTH"
);
},
{
closed = 1;
nodes = (
"235 125 OFFCURVE",
"181 210 OFFCURVE",
"211 349 CURVE SMOOTH",
"240 486 OFFCURVE",
"354 572 OFFCURVE",
"477 572 CURVE SMOOTH",
"622 572 OFFCURVE",
"676 486 OFFCURVE",
"647 349 CURVE SMOOTH",
"617 210 OFFCURVE",
"501 125 OFFCURVE",
"382 125 CURVE SMOOTH"
);
},
{
closed = 1;
nodes = (
"426 742 LINE",
"552 918 LINE",
"406 918 LINE",
"300 742 LINE"
);
},
{
closed = 1;
nodes = (
"664 742 LINE",
"789 918 LINE",
"643 918 LINE",
"537 742 LINE"
);
}
);
width = 810;
}
);
leftKerningGroup = O;
note = Ohungarumlaut;
rightKerningGroup = O;
unicode = 0150;
},
{
glyphname = Omacron;
lastChange = "2015-11-30 01:26:55 +0000";
layers = (
{
layerId = "C917F9CB-DEFA-4BDD-B24E-8B4296F56613";
name = "SemiBold Italic";
paths = (
{
closed = 1;
nodes = (
"581 -15 OFFCURVE",
"755 131 OFFCURVE",
"802 349 CURVE SMOOTH",
"848 568 OFFCURVE",
"717 714 OFFCURVE",
"507 714 CURVE SMOOTH",
"282 714 OFFCURVE",
"102 568 OFFCURVE",
"56 349 CURVE SMOOTH",
"9 131 OFFCURVE",
"141 -15 OFFCURVE",
"352 -15 CURVE SMOOTH"
);
},
{
closed = 1;
nodes = (
"235 125 OFFCURVE",
"181 210 OFFCURVE",
"211 349 CURVE SMOOTH",
"240 486 OFFCURVE",
"354 572 OFFCURVE",
"477 572 CURVE SMOOTH",
"622 572 OFFCURVE",
"676 486 OFFCURVE",
"647 349 CURVE SMOOTH",
"617 210 OFFCURVE",
"501 125 OFFCURVE",
"382 125 CURVE SMOOTH"
);
},
{
closed = 1;
nodes = (
"661 752 LINE",
"681 850 LINE",
"348 850 LINE",
"328 752 LINE"
);
}
);
width = 810;
}
);
leftKerningGroup = O;
note = Omacron;
rightKerningGroup = O;
unicode = 014C;
},
{
glyphname = Oslash;
lastChange = "2015-11-30 01:26:56 +0000";
layers = (
{
layerId = "C917F9CB-DEFA-4BDD-B24E-8B4296F56613";
name = "SemiBold Italic";
paths = (
{
closed = 1;
nodes = (
"223 -86 LINE",
"271 -7 LINE",
"297 -12 OFFCURVE",
"323 -15 OFFCURVE",
"352 -15 CURVE SMOOTH",
"581 -15 OFFCURVE",
"755 131 OFFCURVE",
"802 349 CURVE SMOOTH",
"832 495 OFFCURVE",
"785 608 OFFCURVE",
"687 668 CURVE",
"758 784 LINE",
"635 784 LINE",
"587 706 LINE",
"562 711 OFFCURVE",
"535 714 OFFCURVE",
"507 714 CURVE SMOOTH",
"282 714 OFFCURVE",
"102 568 OFFCURVE",
"56 349 CURVE SMOOTH",
"24 203 OFFCURVE",
"73 90 OFFCURVE",
"171 30 CURVE",
"100 -86 LINE"
);
},
{
closed = 1;
nodes = (
"205 199 OFFCURVE",
"192 264 OFFCURVE",
"211 349 CURVE SMOOTH",
"240 486 OFFCURVE",
"354 572 OFFCURVE",
"477 572 CURVE SMOOTH",
"486 572 OFFCURVE",
"495 571 OFFCURVE",
"504 571 CURVE",
"252 161 LINE"
);
},
{
closed = 1;
nodes = (
"372 125 OFFCURVE",
"362 125 OFFCURVE",
"353 126 CURVE",
"605 535 LINE",
"651 497 OFFCURVE",
"664 433 OFFCURVE",
"647 349 CURVE SMOOTH",
"617 210 OFFCURVE",
"501 125 OFFCURVE",
"382 125 CURVE SMOOTH"
);
}
);
width = 810;
}
);
leftKerningGroup = O;
note = Oslash;
rightKerningGroup = O;
unicode = 00D8;
},
{
glyphname = Oslashacute;
lastChange = "2015-11-30 01:26:56 +0000";
layers = (
{
layerId = "C917F9CB-DEFA-4BDD-B24E-8B4296F56613";
name = "SemiBold Italic";
paths = (
{
closed = 1;
nodes = (
"223 -86 LINE",
"271 -7 LINE",
"297 -12 OFFCURVE",
"323 -15 OFFCURVE",
"352 -15 CURVE SMOOTH",
"581 -15 OFFCURVE",
"755 131 OFFCURVE",
"802 349 CURVE SMOOTH",
"832 495 OFFCURVE",
"785 608 OFFCURVE",
"687 668 CURVE",
"758 784 LINE",
"635 784 LINE",
"587 706 LINE",
"562 711 OFFCURVE",
"535 714 OFFCURVE",
"507 714 CURVE SMOOTH",
"282 714 OFFCURVE",
"102 568 OFFCURVE",
"56 349 CURVE SMOOTH",
"24 203 OFFCURVE",
"73 90 OFFCURVE",
"171 30 CURVE",
"100 -86 LINE"
);
},
{
closed = 1;
nodes = (
"205 199 OFFCURVE",
"192 264 OFFCURVE",
"211 349 CURVE SMOOTH",
"240 486 OFFCURVE",
"354 572 OFFCURVE",
"477 572 CURVE SMOOTH",
"486 572 OFFCURVE",
"495 571 OFFCURVE",
"504 571 CURVE",
"252 161 LINE"
);
},
{
closed = 1;
nodes = (
"372 125 OFFCURVE",
"362 125 OFFCURVE",
"353 126 CURVE",
"605 535 LINE",
"651 497 OFFCURVE",
"664 433 OFFCURVE",
"647 349 CURVE SMOOTH",
"617 210 OFFCURVE",
"501 125 OFFCURVE",
"382 125 CURVE SMOOTH"
);
},
{
closed = 1;
nodes = (
"554 742 LINE",
"680 918 LINE",
"521 918 LINE",
"415 742 LINE"
);
}
);
width = 810;
}
);
leftKerningGroup = O;
note = Oslashacute;
rightKerningGroup = O;
unicode = 01FE;
},
{
glyphname = Otilde;
lastChange = "2015-11-30 01:26:56 +0000";
layers = (
{
layerId = "C917F9CB-DEFA-4BDD-B24E-8B4296F56613";
name = "SemiBold Italic";
paths = (
{
closed = 1;
nodes = (
"581 -15 OFFCURVE",
"755 131 OFFCURVE",
"802 349 CURVE SMOOTH",
"848 568 OFFCURVE",
"717 714 OFFCURVE",
"507 714 CURVE SMOOTH",
"282 714 OFFCURVE",
"102 568 OFFCURVE",
"56 349 CURVE SMOOTH",
"9 131 OFFCURVE",
"141 -15 OFFCURVE",
"352 -15 CURVE SMOOTH"
);
},
{
closed = 1;
nodes = (
"235 125 OFFCURVE",
"181 210 OFFCURVE",
"211 349 CURVE SMOOTH",
"240 486 OFFCURVE",
"354 572 OFFCURVE",
"477 572 CURVE SMOOTH",
"622 572 OFFCURVE",
"676 486 OFFCURVE",
"647 349 CURVE SMOOTH",
"617 210 OFFCURVE",
"501 125 OFFCURVE",
"382 125 CURVE SMOOTH"
);
},
{
closed = 1;
nodes = (
"333 780 OFFCURVE",
"370 793 OFFCURVE",
"408 793 CURVE SMOOTH",
"472 793 OFFCURVE",
"517 743 OFFCURVE",
"590 743 CURVE SMOOTH",
"633 743 OFFCURVE",
"670 754 OFFCURVE",
"700 785 CURVE",
"724 900 LINE",
"688 863 OFFCURVE",
"652 850 OFFCURVE",
"613 850 CURVE SMOOTH",
"548 850 OFFCURVE",
"498 900 OFFCURVE",
"430 900 CURVE SMOOTH",
"388 900 OFFCURVE",
"349 888 OFFCURVE",
"318 857 CURVE",
"294 742 LINE"
);
}
);
width = 810;
}
);
leftKerningGroup = O;
note = Otilde;
rightKerningGroup = O;
unicode = 00D5;
},
{
glyphname = OE;
lastChange = "2015-11-30 01:26:55 +0000";
layers = (
{
layerId = "C917F9CB-DEFA-4BDD-B24E-8B4296F56613";
name = "SemiBold Italic";
paths = (
{
closed = 1;
nodes = (
"809 0 LINE",
"835 127 LINE",
"544 127 LINE",
"579 288 LINE",
"782 288 LINE",
"808 410 LINE",
"605 410 LINE",
"639 572 LINE",
"930 572 LINE",
"957 699 LINE",
"521 699 LINE SMOOTH",
"296 699 OFFCURVE",
"102 568 OFFCURVE",
"56 349 CURVE SMOOTH",
"9 131 OFFCURVE",
"148 0 OFFCURVE",
"373 0 CURVE SMOOTH"
);
},
{
closed = 1;
nodes = (
"256 127 OFFCURVE",
"180 206 OFFCURVE",
"211 349 CURVE SMOOTH",
"241 491 OFFCURVE",
"351 572 OFFCURVE",
"487 572 CURVE",
"392 127 LINE"
);
}
);
width = 891;
}
);
leftKerningGroup = O;
note = OE;
rightKerningGroup = E;
unicode = 0152;
},
{
glyphname = P;
lastChange = "2015-11-30 01:26:56 +0000";
layers = (
{
layerId = "C917F9CB-DEFA-4BDD-B24E-8B4296F56613";
name = "SemiBold Italic";
paths = (
{
closed = 1;
nodes = (
"154 0 LINE",
"202 227 LINE",
"344 227 LINE SMOOTH",
"518 227 OFFCURVE",
"623 308 OFFCURVE",
"655 463 CURVE SMOOTH",
"684 604 OFFCURVE",
"591 699 OFFCURVE",
"444 699 CURVE SMOOTH",
"150 699 LINE",
"2 0 LINE"
);
},
{
closed = 1;
nodes = (
"275 572 LINE",
"395 572 LINE SMOOTH",
"478 572 OFFCURVE",
"519 550 OFFCURVE",
"501 463 CURVE SMOOTH",
"483 378 OFFCURVE",
"434 354 OFFCURVE",
"349 354 CURVE SMOOTH",
"229 354 LINE"
);
}
);
width = 625;
}
);
note = P;
unicode = 0050;
},
{
glyphname = Thorn;
lastChange = "2015-11-30 01:26:57 +0000";
layers = (
{
layerId = "C917F9CB-DEFA-4BDD-B24E-8B4296F56613";
name = "SemiBold Italic";
paths = (
{
closed = 1;
nodes = (
"154 0 LINE",
"180 124 LINE",
"328 124 LINE SMOOTH",
"494 124 OFFCURVE",
"601 195 OFFCURVE",
"631 351 CURVE SMOOTH",
"659 495 OFFCURVE",
"569 579 OFFCURVE",
"425 579 CURVE SMOOTH",
"277 579 LINE",
"302 699 LINE",
"150 699 LINE",
"2 0 LINE"
);
},
{
closed = 1;
nodes = (
"250 452 LINE",
"385 452 LINE SMOOTH",
"456 452 OFFCURVE",
"495 435 OFFCURVE",
"477 351 CURVE SMOOTH",
"459 268 OFFCURVE",
"398 251 OFFCURVE",
"327 251 CURVE SMOOTH",
"207 251 LINE"
);
}
);
width = 625;
}
);
note = Thorn;
unicode = 00DE;
},
{
glyphname = Q;
lastChange = "2015-11-30 01:26:55 +0000";
layers = (
{
layerId = "C917F9CB-DEFA-4BDD-B24E-8B4296F56613";
name = "SemiBold Italic";
paths = (
{
closed = 1;
nodes = (
"743 0 LINE",
"769 124 LINE",
"647 124 LINE",
"717 172 OFFCURVE",
"783 261 OFFCURVE",
"802 351 CURVE SMOOTH",
"849 570 OFFCURVE",
"717 714 OFFCURVE",
"507 714 CURVE SMOOTH",
"296 714 OFFCURVE",
"103 570 OFFCURVE",
"56 351 CURVE SMOOTH",
"10 135 OFFCURVE",
"131 0 OFFCURVE",
"375 0 CURVE SMOOTH"
);
},
{
closed = 1;
nodes = (
"246 133 OFFCURVE",
"181 211 OFFCURVE",
"211 350 CURVE SMOOTH",
"240 487 OFFCURVE",
"354 572 OFFCURVE",
"477 572 CURVE SMOOTH",
"632 572 OFFCURVE",
"676 487 OFFCURVE",
"647 350 CURVE SMOOTH",
"618 212 OFFCURVE",
"509 133 OFFCURVE",
"384 133 CURVE SMOOTH"
);
}
);
width = 808;
}
);
leftKerningGroup = O;
note = Q;
rightKerningGroup = O;
unicode = 0051;
},
{
glyphname = R;
lastChange = "2015-11-30 01:26:55 +0000";
layers = (
{
layerId = "C917F9CB-DEFA-4BDD-B24E-8B4296F56613";
name = "SemiBold Italic";
paths = (
{
closed = 1;
nodes = (
"154 0 LINE",
"204 237 LINE",
"323 237 LINE",
"396 0 LINE",
"552 0 LINE",
"473 256 LINE",
"568 289 OFFCURVE",
"634 364 OFFCURVE",
"656 468 CURVE SMOOTH",
"688 619 OFFCURVE",
"596 699 OFFCURVE",
"453 699 CURVE SMOOTH",
"150 699 LINE",
"2 0 LINE"
);
},
{
closed = 1;
nodes = (
"275 572 LINE",
"399 572 LINE SMOOTH",
"484 572 OFFCURVE",
"519 550 OFFCURVE",
"502 468 CURVE SMOOTH",
"486 393 OFFCURVE",
"442 364 OFFCURVE",
"355 364 CURVE SMOOTH",
"231 364 LINE"
);
}
);
width = 640;
}
);
note = R;
rightKerningGroup = R;
unicode = 0052;
},
{
glyphname = Racute;
lastChange = "2015-11-30 01:26:56 +0000";
layers = (
{
layerId = "C917F9CB-DEFA-4BDD-B24E-8B4296F56613";
name = "SemiBold Italic";
paths = (
{
closed = 1;
nodes = (
"154 0 LINE",
"204 237 LINE",
"323 237 LINE",
"396 0 LINE",
"552 0 LINE",
"473 256 LINE",
"568 289 OFFCURVE",
"634 364 OFFCURVE",
"656 468 CURVE SMOOTH",
"688 619 OFFCURVE",
"596 699 OFFCURVE",
"453 699 CURVE SMOOTH",
"150 699 LINE",
"2 0 LINE"
);
},
{
closed = 1;
nodes = (
"275 572 LINE",
"399 572 LINE SMOOTH",
"484 572 OFFCURVE",
"519 550 OFFCURVE",
"502 468 CURVE SMOOTH",
"486 393 OFFCURVE",
"442 364 OFFCURVE",
"355 364 CURVE SMOOTH",
"231 364 LINE"
);
},
{
closed = 1;
nodes = (
"436 742 LINE",
"562 918 LINE",
"403 918 LINE",
"297 742 LINE"
);
}
);
width = 640;
}
);
note = Racute;
rightKerningGroup = R;
unicode = 0154;
},
{
glyphname = Rcaron;
lastChange = "2015-11-30 01:26:56 +0000";
layers = (
{
layerId = "C917F9CB-DEFA-4BDD-B24E-8B4296F56613";
name = "SemiBold Italic";
paths = (
{
closed = 1;
nodes = (
"154 0 LINE",
"204 237 LINE",
"323 237 LINE",
"396 0 LINE",
"552 0 LINE",
"473 256 LINE",
"568 289 OFFCURVE",
"634 364 OFFCURVE",
"656 468 CURVE SMOOTH",
"688 619 OFFCURVE",
"596 699 OFFCURVE",
"453 699 CURVE SMOOTH",
"150 699 LINE",
"2 0 LINE"
);
},
{
closed = 1;
nodes = (
"275 572 LINE",
"399 572 LINE SMOOTH",
"484 572 OFFCURVE",
"519 550 OFFCURVE",
"502 468 CURVE SMOOTH",
"486 393 OFFCURVE",
"442 364 OFFCURVE",
"355 364 CURVE SMOOTH",
"231 364 LINE"
);
},
{
closed = 1;
nodes = (
"448 742 LINE",
"636 918 LINE",
"486 918 LINE",
"399 826 LINE",
"350 918 LINE",
"200 918 LINE",
"313 742 LINE"
);
}
);
width = 640;
}
);
note = Rcaron;
rightKerningGroup = R;
unicode = 0158;
},
{
glyphname = Rcommaaccent;
lastChange = "2015-11-30 01:26:56 +0000";
layers = (
{
layerId = "C917F9CB-DEFA-4BDD-B24E-8B4296F56613";
name = "SemiBold Italic";
paths = (
{
closed = 1;
nodes = (
"154 0 LINE",
"204 237 LINE",
"323 237 LINE",
"396 0 LINE",
"552 0 LINE",
"473 256 LINE",
"568 289 OFFCURVE",
"634 364 OFFCURVE",
"656 468 CURVE SMOOTH",
"688 619 OFFCURVE",
"596 699 OFFCURVE",
"453 699 CURVE SMOOTH",
"150 699 LINE",
"2 0 LINE"
);
},
{
closed = 1;
nodes = (
"187 -260 LINE",
"332 -53 LINE",
"176 -53 LINE",
"50 -260 LINE"
);
},
{
closed = 1;
nodes = (
"275 572 LINE",
"399 572 LINE SMOOTH",
"484 572 OFFCURVE",
"519 550 OFFCURVE",
"502 468 CURVE SMOOTH",
"486 393 OFFCURVE",
"442 364 OFFCURVE",
"355 364 CURVE SMOOTH",
"231 364 LINE"
);
}
);
width = 640;
}
);
note = Rcommaaccent;
rightKerningGroup = R;
unicode = 0156;
},
{
glyphname = Rdotbelow;
lastChange = "2015-11-30 01:26:55 +0000";
layers = (
{
layerId = "C917F9CB-DEFA-4BDD-B24E-8B4296F56613";
name = "SemiBold Italic";
paths = (
{
closed = 1;
nodes = (
"154 0 LINE",
"204 237 LINE",
"323 237 LINE",
"396 0 LINE",
"552 0 LINE",
"473 256 LINE",
"568 289 OFFCURVE",
"634 364 OFFCURVE",
"656 468 CURVE SMOOTH",
"688 619 OFFCURVE",
"596 699 OFFCURVE",
"453 699 CURVE SMOOTH",
"150 699 LINE",
"2 0 LINE"
);
},
{
closed = 1;
nodes = (
"264 -190 OFFCURVE",
"302 -158 OFFCURVE",
"310 -118 CURVE SMOOTH",
"319 -78 OFFCURVE",
"294 -46 OFFCURVE",
"256 -46 CURVE SMOOTH",
"217 -46 OFFCURVE",
"176 -78 OFFCURVE",
"167 -118 CURVE SMOOTH",
"159 -158 OFFCURVE",
"186 -190 OFFCURVE",
"225 -190 CURVE SMOOTH"
);
},
{
closed = 1;
nodes = (
"275 572 LINE",
"399 572 LINE SMOOTH",
"484 572 OFFCURVE",
"519 550 OFFCURVE",
"502 468 CURVE SMOOTH",
"486 393 OFFCURVE",
"442 364 OFFCURVE",
"355 364 CURVE SMOOTH",
"231 364 LINE"
);
}
);
width = 640;
}
);
note = Rdotbelow;
rightKerningGroup = R;
unicode = 1E5A;
},
{
glyphname = Rdotbelowmacron;
lastChange = "2015-11-30 01:26:56 +0000";
layers = (
{
layerId = "C917F9CB-DEFA-4BDD-B24E-8B4296F56613";
name = "SemiBold Italic";
paths = (
{
closed = 1;
nodes = (
"154 0 LINE",
"204 237 LINE",
"323 237 LINE",
"396 0 LINE",
"552 0 LINE",
"473 256 LINE",
"568 289 OFFCURVE",
"634 364 OFFCURVE",
"656 468 CURVE SMOOTH",
"688 619 OFFCURVE",
"596 699 OFFCURVE",
"453 699 CURVE SMOOTH",
"150 699 LINE",
"2 0 LINE"
);
},
{
closed = 1;
nodes = (
"245 -190 OFFCURVE",
"283 -158 OFFCURVE",
"291 -118 CURVE SMOOTH",
"300 -78 OFFCURVE",
"275 -46 OFFCURVE",
"237 -46 CURVE SMOOTH",
"198 -46 OFFCURVE",
"157 -78 OFFCURVE",
"148 -118 CURVE SMOOTH",
"140 -158 OFFCURVE",
"167 -190 OFFCURVE",
"206 -190 CURVE SMOOTH"
);
},
{
closed = 1;
nodes = (
"275 572 LINE",
"399 572 LINE SMOOTH",
"484 572 OFFCURVE",
"519 550 OFFCURVE",
"502 468 CURVE SMOOTH",
"486 393 OFFCURVE",
"442 364 OFFCURVE",
"355 364 CURVE SMOOTH",
"231 364 LINE"
);
},
{
closed = 1;
nodes = (
"551 752 LINE",
"571 850 LINE",
"238 850 LINE",
"218 752 LINE"
);
}
);
width = 640;
}
);
note = Rdotbelowmacron;
rightKerningGroup = R;
unicode = 1E5C;
},
{
glyphname = Rlinebelow;
lastChange = "2015-11-30 01:26:55 +0000";
layers = (
{
layerId = "C917F9CB-DEFA-4BDD-B24E-8B4296F56613";
name = "SemiBold Italic";
paths = (
{
closed = 1;
nodes = (
"154 0 LINE",
"204 237 LINE",
"323 237 LINE",
"396 0 LINE",
"552 0 LINE",
"473 256 LINE",
"568 289 OFFCURVE",
"634 364 OFFCURVE",
"656 468 CURVE SMOOTH",
"688 619 OFFCURVE",
"596 699 OFFCURVE",
"453 699 CURVE SMOOTH",
"150 699 LINE",
"2 0 LINE"
);
},
{
closed = 1;
nodes = (
"395 -162 LINE",
"416 -64 LINE",
"83 -64 LINE",
"62 -162 LINE"
);
},
{
closed = 1;
nodes = (
"275 572 LINE",
"399 572 LINE SMOOTH",
"484 572 OFFCURVE",
"519 550 OFFCURVE",
"502 468 CURVE SMOOTH",
"486 393 OFFCURVE",
"442 364 OFFCURVE",
"355 364 CURVE SMOOTH",
"231 364 LINE"
);
}
);
width = 640;
}
);
note = Rlinebelow;
rightKerningGroup = R;
unicode = 1E5E;
},
{
glyphname = S;
lastChange = "2015-11-30 01:26:55 +0000";
layers = (
{
layerId = "C917F9CB-DEFA-4BDD-B24E-8B4296F56613";
name = "SemiBold Italic";
paths = (
{
closed = 1;
nodes = (
"394 -15 OFFCURVE",
"498 62 OFFCURVE",
"524 186 CURVE SMOOTH",
"548 298 OFFCURVE",
"503 345 OFFCURVE",
"381 401 CURVE SMOOTH",
"292 440 OFFCURVE",
"248 458 OFFCURVE",
"259 512 CURVE SMOOTH",
"270 560 OFFCURVE",
"321 587 OFFCURVE",
"395 587 CURVE SMOOTH",
"454 587 OFFCURVE",
"510 572 OFFCURVE",
"562 543 CURVE",
"590 673 LINE",
"536 701 OFFCURVE",
"477 714 OFFCURVE",
"394 714 CURVE SMOOTH",
"241 714 OFFCURVE",
"121 633 OFFCURVE",
"96 514 CURVE SMOOTH",
"75 415 OFFCURVE",
"119 355 OFFCURVE",
"237 302 CURVE SMOOTH",
"329 261 OFFCURVE",
"370 241 OFFCURVE",
"358 187 CURVE SMOOTH",
"348 140 OFFCURVE",
"302 111 OFFCURVE",
"224 111 CURVE SMOOTH",
"156 111 OFFCURVE",
"81 128 OFFCURVE",
"16 163 CURVE",
"-12 29 LINE",
"36 2 OFFCURVE",
"124 -15 OFFCURVE",
"208 -15 CURVE SMOOTH"
);
}
);
width = 568;
}
);
leftKerningGroup = S;
note = S;
rightKerningGroup = S;
unicode = 0053;
},
{
glyphname = Sacute;
lastChange = "2015-11-30 01:26:55 +0000";
layers = (
{
layerId = "C917F9CB-DEFA-4BDD-B24E-8B4296F56613";
name = "SemiBold Italic";
paths = (
{
closed = 1;
nodes = (
"394 -15 OFFCURVE",
"498 62 OFFCURVE",
"524 186 CURVE SMOOTH",
"548 298 OFFCURVE",
"503 345 OFFCURVE",
"381 401 CURVE SMOOTH",
"292 440 OFFCURVE",
"248 458 OFFCURVE",
"259 512 CURVE SMOOTH",
"270 560 OFFCURVE",
"321 587 OFFCURVE",
"395 587 CURVE SMOOTH",
"454 587 OFFCURVE",
"510 572 OFFCURVE",
"562 543 CURVE",
"590 673 LINE",
"536 701 OFFCURVE",
"477 714 OFFCURVE",
"394 714 CURVE SMOOTH",
"241 714 OFFCURVE",
"121 633 OFFCURVE",
"96 514 CURVE SMOOTH",
"75 415 OFFCURVE",
"119 355 OFFCURVE",
"237 302 CURVE SMOOTH",
"329 261 OFFCURVE",
"370 241 OFFCURVE",
"358 187 CURVE SMOOTH",
"348 140 OFFCURVE",
"302 111 OFFCURVE",
"224 111 CURVE SMOOTH",
"156 111 OFFCURVE",
"81 128 OFFCURVE",
"16 163 CURVE",
"-12 29 LINE",
"36 2 OFFCURVE",
"124 -15 OFFCURVE",
"208 -15 CURVE SMOOTH"
);
},
{
closed = 1;
nodes = (
"439 742 LINE",
"565 918 LINE",
"406 918 LINE",
"300 742 LINE"
);
}
);
width = 568;
}
);
leftKerningGroup = S;
note = Sacute;
rightKerningGroup = S;
unicode = 015A;
},
{
glyphname = Scaron;
lastChange = "2015-11-30 01:26:55 +0000";
layers = (
{
layerId = "C917F9CB-DEFA-4BDD-B24E-8B4296F56613";
name = "SemiBold Italic";
paths = (
{
closed = 1;
nodes = (
"394 -15 OFFCURVE",
"498 62 OFFCURVE",
"524 186 CURVE SMOOTH",
"548 298 OFFCURVE",
"503 345 OFFCURVE",
"381 401 CURVE SMOOTH",
"292 440 OFFCURVE",
"248 458 OFFCURVE",
"259 512 CURVE SMOOTH",
"270 560 OFFCURVE",
"321 587 OFFCURVE",
"395 587 CURVE SMOOTH",
"454 587 OFFCURVE",
"510 572 OFFCURVE",
"562 543 CURVE",
"590 673 LINE",
"536 701 OFFCURVE",
"477 714 OFFCURVE",
"394 714 CURVE SMOOTH",
"241 714 OFFCURVE",
"121 633 OFFCURVE",
"96 514 CURVE SMOOTH",
"75 415 OFFCURVE",
"119 355 OFFCURVE",
"237 302 CURVE SMOOTH",
"329 261 OFFCURVE",
"370 241 OFFCURVE",
"358 187 CURVE SMOOTH",
"348 140 OFFCURVE",
"302 111 OFFCURVE",
"224 111 CURVE SMOOTH",
"156 111 OFFCURVE",
"81 128 OFFCURVE",
"16 163 CURVE",
"-12 29 LINE",
"36 2 OFFCURVE",
"124 -15 OFFCURVE",
"208 -15 CURVE SMOOTH"
);
},
{
closed = 1;
nodes = (
"447 742 LINE",
"635 918 LINE",
"485 918 LINE",
"398 826 LINE",
"349 918 LINE",
"199 918 LINE",
"312 742 LINE"
);
}
);
width = 568;
}
);
leftKerningGroup = S;
note = Scaron;
rightKerningGroup = S;
unicode = 0160;
},
{
glyphname = Scedilla;
lastChange = "2015-11-30 01:26:56 +0000";
layers = (
{
layerId = "C917F9CB-DEFA-4BDD-B24E-8B4296F56613";
name = "SemiBold Italic";
paths = (
{
closed = 1;
nodes = (
"246 -248 OFFCURVE",
"314 -214 OFFCURVE",
"327 -146 CURVE SMOOTH",
"337 -94 OFFCURVE",
"313 -57 OFFCURVE",
"259 -49 CURVE",
"282 -10 LINE",
"422 8 OFFCURVE",
"501 79 OFFCURVE",
"524 186 CURVE SMOOTH",
"548 298 OFFCURVE",
"503 345 OFFCURVE",
"381 401 CURVE SMOOTH",
"292 440 OFFCURVE",
"248 458 OFFCURVE",
"259 512 CURVE SMOOTH",
"270 560 OFFCURVE",
"321 587 OFFCURVE",
"395 587 CURVE SMOOTH",
"454 587 OFFCURVE",
"510 572 OFFCURVE",
"562 543 CURVE",
"590 673 LINE",
"536 701 OFFCURVE",
"477 714 OFFCURVE",
"394 714 CURVE SMOOTH",
"241 714 OFFCURVE",
"121 633 OFFCURVE",
"96 514 CURVE SMOOTH",
"75 415 OFFCURVE",
"119 355 OFFCURVE",
"237 302 CURVE SMOOTH",
"329 261 OFFCURVE",
"370 241 OFFCURVE",
"358 187 CURVE SMOOTH",
"348 140 OFFCURVE",
"302 111 OFFCURVE",
"224 111 CURVE SMOOTH",
"156 111 OFFCURVE",
"81 128 OFFCURVE",
"16 163 CURVE",
"-12 29 LINE",
"24 8 OFFCURVE",
"84 -6 OFFCURVE",
"147 -12 CURVE",
"103 -87 LINE",
"177 -87 OFFCURVE",
"198 -107 OFFCURVE",
"192 -134 CURVE SMOOTH",
"187 -158 OFFCURVE",
"165 -171 OFFCURVE",
"129 -171 CURVE SMOOTH",
"108 -171 OFFCURVE",
"85 -166 OFFCURVE",
"73 -158 CURVE",
"56 -235 LINE",
"74 -243 OFFCURVE",
"114 -248 OFFCURVE",
"155 -248 CURVE SMOOTH"
);
}
);
width = 568;
}
);
leftKerningGroup = S;
note = Scedilla;
rightKerningGroup = S;
unicode = 015E;
},
{
glyphname = Scircumflex;
lastChange = "2015-11-30 01:26:55 +0000";
layers = (
{
layerId = "C917F9CB-DEFA-4BDD-B24E-8B4296F56613";
name = "SemiBold Italic";
paths = (
{
closed = 1;
nodes = (
"394 -15 OFFCURVE",
"498 62 OFFCURVE",
"524 186 CURVE SMOOTH",
"548 298 OFFCURVE",
"503 345 OFFCURVE",
"381 401 CURVE SMOOTH",
"292 440 OFFCURVE",
"248 458 OFFCURVE",
"259 512 CURVE SMOOTH",
"270 560 OFFCURVE",
"321 587 OFFCURVE",
"395 587 CURVE SMOOTH",
"454 587 OFFCURVE",
"510 572 OFFCURVE",
"562 543 CURVE",
"590 673 LINE",
"536 701 OFFCURVE",
"477 714 OFFCURVE",
"394 714 CURVE SMOOTH",
"241 714 OFFCURVE",
"121 633 OFFCURVE",
"96 514 CURVE SMOOTH",
"75 415 OFFCURVE",
"119 355 OFFCURVE",
"237 302 CURVE SMOOTH",
"329 261 OFFCURVE",
"370 241 OFFCURVE",
"358 187 CURVE SMOOTH",
"348 140 OFFCURVE",
"302 111 OFFCURVE",
"224 111 CURVE SMOOTH",
"156 111 OFFCURVE",
"81 128 OFFCURVE",
"16 163 CURVE",
"-12 29 LINE",
"36 2 OFFCURVE",
"124 -15 OFFCURVE",
"208 -15 CURVE SMOOTH"
);
},
{
closed = 1;
nodes = (
"303 742 LINE",
"391 834 LINE",
"439 742 LINE",
"589 742 LINE",
"475 918 LINE",
"340 918 LINE",
"153 742 LINE"
);
}
);
width = 568;
}
);
leftKerningGroup = S;
note = Scircumflex;
rightKerningGroup = S;
unicode = 015C;
},
{
glyphname = Scommaaccent;
lastChange = "2015-11-30 01:26:56 +0000";
layers = (
{
layerId = "C917F9CB-DEFA-4BDD-B24E-8B4296F56613";
name = "SemiBold Italic";
paths = (
{
closed = 1;
nodes = (
"394 -15 OFFCURVE",
"498 62 OFFCURVE",
"524 186 CURVE SMOOTH",
"548 298 OFFCURVE",
"503 345 OFFCURVE",
"381 401 CURVE SMOOTH",
"292 440 OFFCURVE",
"248 458 OFFCURVE",
"259 512 CURVE SMOOTH",
"270 560 OFFCURVE",
"321 587 OFFCURVE",
"395 587 CURVE SMOOTH",
"454 587 OFFCURVE",
"510 572 OFFCURVE",
"562 543 CURVE",
"590 673 LINE",
"536 701 OFFCURVE",
"477 714 OFFCURVE",
"394 714 CURVE SMOOTH",
"241 714 OFFCURVE",
"121 633 OFFCURVE",
"96 514 CURVE SMOOTH",
"75 415 OFFCURVE",
"119 355 OFFCURVE",
"237 302 CURVE SMOOTH",
"329 261 OFFCURVE",
"370 241 OFFCURVE",
"358 187 CURVE SMOOTH",
"348 140 OFFCURVE",
"302 111 OFFCURVE",
"224 111 CURVE SMOOTH",
"156 111 OFFCURVE",
"81 128 OFFCURVE",
"16 163 CURVE",
"-12 29 LINE",
"36 2 OFFCURVE",
"124 -15 OFFCURVE",
"208 -15 CURVE SMOOTH"
);
},
{
closed = 1;
nodes = (
"153 -259 LINE",
"297 -53 LINE",
"142 -53 LINE",
"15 -259 LINE"
);
}
);
width = 568;
}
);
leftKerningGroup = S;
note = Scommaaccent;
rightKerningGroup = S;
unicode = 0218;
},
{
glyphname = Sdotaccent;
lastChange = "2015-11-30 01:26:55 +0000";
layers = (
{
layerId = "C917F9CB-DEFA-4BDD-B24E-8B4296F56613";
name = "SemiBold Italic";
paths = (
{
closed = 1;
nodes = (
"394 -15 OFFCURVE",
"498 62 OFFCURVE",
"524 186 CURVE SMOOTH",
"548 298 OFFCURVE",
"503 345 OFFCURVE",
"381 401 CURVE SMOOTH",
"292 440 OFFCURVE",
"248 458 OFFCURVE",
"259 512 CURVE SMOOTH",
"270 560 OFFCURVE",
"321 587 OFFCURVE",
"395 587 CURVE SMOOTH",
"454 587 OFFCURVE",
"510 572 OFFCURVE",
"562 543 CURVE",
"590 673 LINE",
"536 701 OFFCURVE",
"477 714 OFFCURVE",
"394 714 CURVE SMOOTH",
"241 714 OFFCURVE",
"121 633 OFFCURVE",
"96 514 CURVE SMOOTH",
"75 415 OFFCURVE",
"119 355 OFFCURVE",
"237 302 CURVE SMOOTH",
"329 261 OFFCURVE",
"370 241 OFFCURVE",
"358 187 CURVE SMOOTH",
"348 140 OFFCURVE",
"302 111 OFFCURVE",
"224 111 CURVE SMOOTH",
"156 111 OFFCURVE",
"81 128 OFFCURVE",
"16 163 CURVE",
"-12 29 LINE",
"36 2 OFFCURVE",
"124 -15 OFFCURVE",
"208 -15 CURVE SMOOTH"
);
},
{
closed = 1;
nodes = (
"423 752 OFFCURVE",
"461 783 OFFCURVE",
"470 823 CURVE SMOOTH",
"478 863 OFFCURVE",
"453 895 OFFCURVE",
"414 895 CURVE SMOOTH",
"375 895 OFFCURVE",
"334 863 OFFCURVE",
"326 823 CURVE SMOOTH",
"317 783 OFFCURVE",
"345 752 OFFCURVE",
"384 752 CURVE SMOOTH"
);
}
);
width = 568;
}
);
leftKerningGroup = S;
note = Sdotaccent;
rightKerningGroup = S;
unicode = 1E60;
},
{
glyphname = Sdotbelow;
lastChange = "2015-11-30 01:26:56 +0000";
layers = (
{
layerId = "C917F9CB-DEFA-4BDD-B24E-8B4296F56613";
name = "SemiBold Italic";
paths = (
{
closed = 1;
nodes = (
"394 -15 OFFCURVE",
"498 62 OFFCURVE",
"524 186 CURVE SMOOTH",
"548 298 OFFCURVE",
"503 345 OFFCURVE",
"381 401 CURVE SMOOTH",
"292 440 OFFCURVE",
"248 458 OFFCURVE",
"259 512 CURVE SMOOTH",
"270 560 OFFCURVE",
"321 587 OFFCURVE",
"395 587 CURVE SMOOTH",
"454 587 OFFCURVE",
"510 572 OFFCURVE",
"562 543 CURVE",
"590 673 LINE",
"536 701 OFFCURVE",
"477 714 OFFCURVE",
"394 714 CURVE SMOOTH",
"241 714 OFFCURVE",
"121 633 OFFCURVE",
"96 514 CURVE SMOOTH",
"75 415 OFFCURVE",
"119 355 OFFCURVE",
"237 302 CURVE SMOOTH",
"329 261 OFFCURVE",
"370 241 OFFCURVE",
"358 187 CURVE SMOOTH",
"348 140 OFFCURVE",
"302 111 OFFCURVE",
"224 111 CURVE SMOOTH",
"156 111 OFFCURVE",
"81 128 OFFCURVE",
"16 163 CURVE",
"-12 29 LINE",
"36 2 OFFCURVE",
"124 -15 OFFCURVE",
"208 -15 CURVE SMOOTH"
);
},
{
closed = 1;
nodes = (
"226 -190 OFFCURVE",
"264 -158 OFFCURVE",
"272 -118 CURVE SMOOTH",
"281 -78 OFFCURVE",
"256 -46 OFFCURVE",
"218 -46 CURVE SMOOTH",
"179 -46 OFFCURVE",
"138 -78 OFFCURVE",
"129 -118 CURVE SMOOTH",
"121 -158 OFFCURVE",
"148 -190 OFFCURVE",
"187 -190 CURVE SMOOTH"
);
}
);
width = 568;
}
);
leftKerningGroup = S;
note = Sdotbelow;
rightKerningGroup = S;
unicode = 1E62;
},
{
glyphname = Germandbls;
lastChange = "2015-11-30 01:26:56 +0000";
layers = (
{
layerId = "C917F9CB-DEFA-4BDD-B24E-8B4296F56613";
name = "SemiBold Italic";
paths = (
{
closed = 1;
nodes = (
"470 -15 OFFCURVE",
"576 69 OFFCURVE",
"603 197 CURVE SMOOTH",
"625 300 OFFCURVE",
"596 366 OFFCURVE",
"496 388 CURVE",
"622 497 LINE",
"632 603 OFFCURVE",
"577 714 OFFCURVE",
"407 714 CURVE SMOOTH",
"222 714 OFFCURVE",
"127 616 OFFCURVE",
"93 456 CURVE SMOOTH",
"-3 0 LINE",
"148 0 LINE",
"247 467 LINE SMOOTH",
"263 544 OFFCURVE",
"309 584 OFFCURVE",
"380 584 CURVE SMOOTH",
"436 584 OFFCURVE",
"462 552 OFFCURVE",
"462 514 CURVE",
"313 385 LINE",
"296 305 LINE",
"346 305 LINE SMOOTH",
"422 305 OFFCURVE",
"468 280 OFFCURVE",
"453 208 CURVE SMOOTH",
"439 145 OFFCURVE",
"402 114 OFFCURVE",
"317 114 CURVE SMOOTH",
"282 114 OFFCURVE",
"252 120 OFFCURVE",
"230 135 CURVE",
"202 3 LINE",
"231 -10 OFFCURVE",
"279 -15 OFFCURVE",
"326 -15 CURVE SMOOTH"
);
}
);
width = 645;
}
);
note = uni1E9E;
unicode = 1E9E;
},
{
glyphname = Schwa;
lastChange = "2015-11-30 01:26:56 +0000";
layers = (
{
layerId = "C917F9CB-DEFA-4BDD-B24E-8B4296F56613";
name = "SemiBold Italic";
paths = (
{
closed = 1;
nodes = (
"628 -15 OFFCURVE",
"769 130 OFFCURVE",
"815 351 CURVE SMOOTH",
"861 572 OFFCURVE",
"722 714 OFFCURVE",
"475 714 CURVE SMOOTH",
"367 714 OFFCURVE",
"257 693 OFFCURVE",
"186 666 CURVE",
"160 542 LINE",
"232 569 OFFCURVE",
"335 586 OFFCURVE",
"423 586 CURVE SMOOTH",
"615 586 OFFCURVE",
"658 516 OFFCURVE",
"651 405 CURVE",
"68 405 LINE",
"53 337 LINE SMOOTH",
"11 139 OFFCURVE",
"126 -15 OFFCURVE",
"355 -15 CURVE SMOOTH"
);
},
{
closed = 1;
nodes = (
"224 110 OFFCURVE",
"188 187 OFFCURVE",
"203 291 CURVE",
"627 291 LINE",
"597 187 OFFCURVE",
"517 110 OFFCURVE",
"378 110 CURVE SMOOTH"
);
}
);
width = 823;
}
);
note = uni018F;
unicode = 018F;
},
{
glyphname = T;
lastChange = "2015-11-30 01:26:55 +0000";
layers = (
{
layerId = "C917F9CB-DEFA-4BDD-B24E-8B4296F56613";
name = "SemiBold Italic";
paths = (
{
closed = 1;
nodes = (
"321 0 LINE",
"442 572 LINE",
"646 572 LINE",
"673 699 LINE",
"113 699 LINE",
"86 572 LINE",
"290 572 LINE",
"169 0 LINE"
);
}
);
width = 590;
}
);
leftKerningGroup = T;
note = T;
rightKerningGroup = T;
unicode = 0054;
},
{
glyphname = Tbar;
lastChange = "2015-11-30 01:26:55 +0000";
layers = (
{
layerId = "C917F9CB-DEFA-4BDD-B24E-8B4296F56613";
name = "SemiBold Italic";
paths = (
{
closed = 1;
nodes = (
"324 0 LINE",
"380 266 LINE",
"494 266 LINE",
"521 393 LINE",
"407 393 LINE",
"444 565 LINE",
"645 565 LINE",
"673 699 LINE",
"113 699 LINE",
"85 565 LINE",
"285 565 LINE",
"248 393 LINE",
"137 393 LINE",
"110 266 LINE",
"221 266 LINE",
"165 0 LINE"
);
}
);
width = 590;
}
);
leftKerningGroup = T;
note = Tbar;
rightKerningGroup = T;
unicode = 0166;
},
{
glyphname = Tcaron;
lastChange = "2015-11-30 01:26:55 +0000";
layers = (
{
layerId = "C917F9CB-DEFA-4BDD-B24E-8B4296F56613";
name = "SemiBold Italic";
paths = (
{
closed = 1;
nodes = (
"321 0 LINE",
"442 572 LINE",
"646 572 LINE",
"673 699 LINE",
"113 699 LINE",
"86 572 LINE",
"290 572 LINE",
"169 0 LINE"
);
},
{
closed = 1;
nodes = (
"450 742 LINE",
"638 918 LINE",
"488 918 LINE",
"401 826 LINE",
"352 918 LINE",
"202 918 LINE",
"315 742 LINE"
);
}
);
width = 590;
}
);
leftKerningGroup = T;
note = Tcaron;
rightKerningGroup = T;
unicode = 0164;
},
{
glyphname = Tcedilla;
lastChange = "2015-11-30 01:26:55 +0000";
layers = (
{
layerId = "C917F9CB-DEFA-4BDD-B24E-8B4296F56613";
name = "SemiBold Italic";
paths = (
{
closed = 1;
nodes = (
"270 -248 OFFCURVE",
"338 -214 OFFCURVE",
"351 -146 CURVE SMOOTH",
"361 -94 OFFCURVE",
"337 -57 OFFCURVE",
"283 -49 CURVE",
"313 0 LINE",
"321 0 LINE",
"442 572 LINE",
"646 572 LINE",
"673 699 LINE",
"113 699 LINE",
"86 572 LINE",
"290 572 LINE",
"169 0 LINE",
"179 0 LINE",
"127 -87 LINE",
"201 -87 OFFCURVE",
"222 -107 OFFCURVE",
"216 -134 CURVE SMOOTH",
"211 -158 OFFCURVE",
"189 -171 OFFCURVE",
"153 -171 CURVE SMOOTH",
"132 -171 OFFCURVE",
"109 -166 OFFCURVE",
"97 -158 CURVE",
"80 -235 LINE",
"98 -243 OFFCURVE",
"138 -248 OFFCURVE",
"179 -248 CURVE SMOOTH"
);
}
);
width = 590;
}
);
leftKerningGroup = T;
note = Tcedilla;
rightKerningGroup = T;
unicode = 0162;
},
{
glyphname = Tcommaaccent;
lastChange = "2015-11-30 01:26:56 +0000";
layers = (
{
layerId = "C917F9CB-DEFA-4BDD-B24E-8B4296F56613";
name = "SemiBold Italic";
paths = (
{
closed = 1;
nodes = (
"321 0 LINE",
"442 572 LINE",
"646 572 LINE",
"673 699 LINE",
"113 699 LINE",
"86 572 LINE",
"290 572 LINE",
"169 0 LINE"
);
},
{
closed = 1;
nodes = (
"162 -260 LINE",
"307 -53 LINE",
"151 -53 LINE",
"25 -260 LINE"
);
}
);
width = 590;
}
);
leftKerningGroup = T;
note = Tcommaaccent;
rightKerningGroup = T;
unicode = 021A;
},
{
glyphname = Tdotbelow;
lastChange = "2015-11-30 01:26:57 +0000";
layers = (
{
layerId = "C917F9CB-DEFA-4BDD-B24E-8B4296F56613";
name = "SemiBold Italic";
paths = (
{
closed = 1;
nodes = (
"321 0 LINE",
"442 572 LINE",
"646 572 LINE",
"673 699 LINE",
"113 699 LINE",
"86 572 LINE",
"290 572 LINE",
"169 0 LINE"
);
},
{
closed = 1;
nodes = (
"245 -190 OFFCURVE",
"283 -158 OFFCURVE",
"291 -118 CURVE SMOOTH",
"300 -78 OFFCURVE",
"275 -46 OFFCURVE",
"237 -46 CURVE SMOOTH",
"198 -46 OFFCURVE",
"157 -78 OFFCURVE",
"148 -118 CURVE SMOOTH",
"140 -158 OFFCURVE",
"167 -190 OFFCURVE",
"206 -190 CURVE SMOOTH"
);
}
);
width = 590;
}
);
leftKerningGroup = T;
note = Tdotbelow;
rightKerningGroup = T;
unicode = 1E6C;
},
{
glyphname = Tlinebelow;
lastChange = "2015-11-30 01:26:56 +0000";
layers = (
{
layerId = "C917F9CB-DEFA-4BDD-B24E-8B4296F56613";
name = "SemiBold Italic";
paths = (
{
closed = 1;
nodes = (
"321 0 LINE",
"442 572 LINE",
"646 572 LINE",
"673 699 LINE",
"113 699 LINE",
"86 572 LINE",
"290 572 LINE",
"169 0 LINE"
);
},
{
closed = 1;
nodes = (
"377 -162 LINE",
"398 -64 LINE",
"65 -64 LINE",
"44 -162 LINE"
);
}
);
width = 590;
}
);
leftKerningGroup = T;
note = Tlinebelow;
rightKerningGroup = T;
unicode = 1E6E;
},
{
glyphname = U;
lastChange = "2015-11-30 01:26:56 +0000";
layers = (
{
layerId = "C917F9CB-DEFA-4BDD-B24E-8B4296F56613";
name = "SemiBold Italic";
paths = (
{
closed = 1;
nodes = (
"531 -15 OFFCURVE",
"632 93 OFFCURVE",
"672 282 CURVE SMOOTH",
"761 699 LINE",
"609 699 LINE",
"520 280 LINE SMOOTH",
"498 176 OFFCURVE",
"425 124 OFFCURVE",
"332 124 CURVE SMOOTH",
"215 124 OFFCURVE",
"186 176 OFFCURVE",
"208 280 CURVE SMOOTH",
"297 699 LINE",
"145 699 LINE",
"56 282 LINE SMOOTH",
"21 117 OFFCURVE",
"105 -15 OFFCURVE",
"302 -15 CURVE SMOOTH"
);
}
);
width = 711;
}
);
leftKerningGroup = U;
note = U;
rightKerningGroup = U;
unicode = 0055;
},
{
glyphname = Uacute;
lastChange = "2015-11-30 01:26:56 +0000";
layers = (
{
layerId = "C917F9CB-DEFA-4BDD-B24E-8B4296F56613";
name = "SemiBold Italic";
paths = (
{
closed = 1;
nodes = (
"531 -15 OFFCURVE",
"632 93 OFFCURVE",
"672 282 CURVE SMOOTH",
"761 699 LINE",
"609 699 LINE",
"520 280 LINE SMOOTH",
"498 176 OFFCURVE",
"425 124 OFFCURVE",
"332 124 CURVE SMOOTH",
"215 124 OFFCURVE",
"186 176 OFFCURVE",
"208 280 CURVE SMOOTH",
"297 699 LINE",
"145 699 LINE",
"56 282 LINE SMOOTH",
"21 117 OFFCURVE",
"105 -15 OFFCURVE",
"302 -15 CURVE SMOOTH"
);
},
{
closed = 1;
nodes = (
"512 742 LINE",
"638 918 LINE",
"479 918 LINE",
"373 742 LINE"
);
}
);
width = 711;
}
);
leftKerningGroup = U;
note = Uacute;
rightKerningGroup = U;
unicode = 00DA;
},
{
glyphname = Ubreve;
lastChange = "2015-11-30 01:26:56 +0000";
layers = (
{
layerId = "C917F9CB-DEFA-4BDD-B24E-8B4296F56613";
name = "SemiBold Italic";
paths = (
{
closed = 1;
nodes = (
"531 -15 OFFCURVE",
"632 93 OFFCURVE",
"672 282 CURVE SMOOTH",
"761 699 LINE",
"609 699 LINE",
"520 280 LINE SMOOTH",
"498 176 OFFCURVE",
"425 124 OFFCURVE",
"332 124 CURVE SMOOTH",
"215 124 OFFCURVE",
"186 176 OFFCURVE",
"208 280 CURVE SMOOTH",
"297 699 LINE",
"145 699 LINE",
"56 282 LINE SMOOTH",
"21 117 OFFCURVE",
"105 -15 OFFCURVE",
"302 -15 CURVE SMOOTH"
);
},
{
closed = 1;
nodes = (
"550 742 OFFCURVE",
"627 807 OFFCURVE",
"648 904 CURVE",
"535 904 LINE",
"526 862 OFFCURVE",
"499 840 OFFCURVE",
"462 840 CURVE SMOOTH",
"424 840 OFFCURVE",
"408 862 OFFCURVE",
"417 904 CURVE",
"305 904 LINE",
"284 807 OFFCURVE",
"332 742 OFFCURVE",
"441 742 CURVE SMOOTH"
);
}
);
width = 711;
}
);
leftKerningGroup = U;
note = Ubreve;
rightKerningGroup = U;
unicode = 016C;
},
{
glyphname = Ucaron;
lastChange = "2015-11-30 01:26:56 +0000";
layers = (
{
layerId = "C917F9CB-DEFA-4BDD-B24E-8B4296F56613";
name = "SemiBold Italic";
paths = (
{
closed = 1;
nodes = (
"531 -15 OFFCURVE",
"632 93 OFFCURVE",
"672 282 CURVE SMOOTH",
"761 699 LINE",
"609 699 LINE",
"520 280 LINE SMOOTH",
"498 176 OFFCURVE",
"425 124 OFFCURVE",
"332 124 CURVE SMOOTH",
"215 124 OFFCURVE",
"186 176 OFFCURVE",
"208 280 CURVE SMOOTH",
"297 699 LINE",
"145 699 LINE",
"56 282 LINE SMOOTH",
"21 117 OFFCURVE",
"105 -15 OFFCURVE",
"302 -15 CURVE SMOOTH"
);
},
{
closed = 1;
nodes = (
"510 742 LINE",
"698 918 LINE",
"548 918 LINE",
"461 826 LINE",
"412 918 LINE",
"262 918 LINE",
"375 742 LINE"
);
}
);
width = 711;
}
);
leftKerningGroup = U;
note = Ucaron;
rightKerningGroup = U;
unicode = 01D3;
},
{
glyphname = Ucircumflex;
lastChange = "2015-11-30 01:26:56 +0000";
layers = (
{
layerId = "C917F9CB-DEFA-4BDD-B24E-8B4296F56613";
name = "SemiBold Italic";
paths = (
{
closed = 1;
nodes = (
"531 -15 OFFCURVE",
"632 93 OFFCURVE",
"672 282 CURVE SMOOTH",
"761 699 LINE",
"609 699 LINE",
"520 280 LINE SMOOTH",
"498 176 OFFCURVE",
"425 124 OFFCURVE",
"332 124 CURVE SMOOTH",
"215 124 OFFCURVE",
"186 176 OFFCURVE",
"208 280 CURVE SMOOTH",
"297 699 LINE",
"145 699 LINE",
"56 282 LINE SMOOTH",
"21 117 OFFCURVE",
"105 -15 OFFCURVE",
"302 -15 CURVE SMOOTH"
);
},
{
closed = 1;
nodes = (
"375 742 LINE",
"463 834 LINE",
"511 742 LINE",
"661 742 LINE",
"547 918 LINE",
"412 918 LINE",
"225 742 LINE"
);
}
);
width = 711;
}
);
leftKerningGroup = U;
note = Ucircumflex;
rightKerningGroup = U;
unicode = 00DB;
},
{
glyphname = Udieresis;
lastChange = "2015-11-30 01:26:55 +0000";
layers = (
{
layerId = "C917F9CB-DEFA-4BDD-B24E-8B4296F56613";
name = "SemiBold Italic";
paths = (
{
closed = 1;
nodes = (
"531 -15 OFFCURVE",
"632 93 OFFCURVE",
"672 282 CURVE SMOOTH",
"761 699 LINE",
"609 699 LINE",
"520 280 LINE SMOOTH",
"498 176 OFFCURVE",
"425 124 OFFCURVE",
"332 124 CURVE SMOOTH",
"215 124 OFFCURVE",
"186 176 OFFCURVE",
"208 280 CURVE SMOOTH",
"297 699 LINE",
"145 699 LINE",
"56 282 LINE SMOOTH",
"21 117 OFFCURVE",
"105 -15 OFFCURVE",
"302 -15 CURVE SMOOTH"
);
},
{
closed = 1;
nodes = (
"365 752 OFFCURVE",
"403 783 OFFCURVE",
"412 823 CURVE SMOOTH",
"420 863 OFFCURVE",
"395 895 OFFCURVE",
"356 895 CURVE SMOOTH",
"318 895 OFFCURVE",
"278 863 OFFCURVE",
"270 823 CURVE SMOOTH",
"261 783 OFFCURVE",
"288 752 OFFCURVE",
"326 752 CURVE SMOOTH"
);
},
{
closed = 1;
nodes = (
"601 752 OFFCURVE",
"640 783 OFFCURVE",
"649 823 CURVE SMOOTH",
"657 863 OFFCURVE",
"631 895 OFFCURVE",
"593 895 CURVE SMOOTH",
"554 895 OFFCURVE",
"513 863 OFFCURVE",
"505 823 CURVE SMOOTH",
"496 783 OFFCURVE",
"524 752 OFFCURVE",
"563 752 CURVE SMOOTH"
);
}
);
width = 711;
}
);
leftKerningGroup = U;
note = Udieresis;
rightKerningGroup = U;
unicode = 00DC;
},
{
glyphname = Udieresisacute;
lastChange = "2015-11-30 01:26:55 +0000";
layers = (
{
layerId = "C917F9CB-DEFA-4BDD-B24E-8B4296F56613";
name = "SemiBold Italic";
paths = (
{
closed = 1;
nodes = (
"531 -15 OFFCURVE",
"632 93 OFFCURVE",
"672 282 CURVE SMOOTH",
"761 699 LINE",
"609 699 LINE",
"520 280 LINE SMOOTH",
"498 176 OFFCURVE",
"425 124 OFFCURVE",
"332 124 CURVE SMOOTH",
"215 124 OFFCURVE",
"186 176 OFFCURVE",
"208 280 CURVE SMOOTH",
"297 699 LINE",
"145 699 LINE",
"56 282 LINE SMOOTH",
"21 117 OFFCURVE",
"105 -15 OFFCURVE",
"302 -15 CURVE SMOOTH"
);
},
{
closed = 1;
nodes = (
"391 752 OFFCURVE",
"429 783 OFFCURVE",
"438 823 CURVE SMOOTH",
"446 863 OFFCURVE",
"421 895 OFFCURVE",
"382 895 CURVE SMOOTH",
"343 895 OFFCURVE",
"303 863 OFFCURVE",
"295 823 CURVE SMOOTH",
"286 783 OFFCURVE",
"313 752 OFFCURVE",
"352 752 CURVE SMOOTH"
);
},
{
closed = 1;
nodes = (
"626 752 OFFCURVE",
"665 783 OFFCURVE",
"674 823 CURVE SMOOTH",
"682 863 OFFCURVE",
"656 895 OFFCURVE",
"618 895 CURVE SMOOTH",
"579 895 OFFCURVE",
"538 863 OFFCURVE",
"530 823 CURVE SMOOTH",
"521 783 OFFCURVE",
"549 752 OFFCURVE",
"588 752 CURVE SMOOTH"
);
},
{
closed = 1;
nodes = (
"550 888 LINE",
"646 1005 LINE",
"512 1005 LINE",
"441 888 LINE"
);
}
);
width = 711;
}
);
leftKerningGroup = U;
note = Udieresisacute;
rightKerningGroup = U;
unicode = 01D7;
},
{
glyphname = Udieresiscaron;
lastChange = "2015-11-30 01:26:56 +0000";
layers = (
{
layerId = "C917F9CB-DEFA-4BDD-B24E-8B4296F56613";
name = "SemiBold Italic";
paths = (
{
closed = 1;
nodes = (
"531 -15 OFFCURVE",
"632 93 OFFCURVE",
"672 282 CURVE SMOOTH",
"761 699 LINE",
"609 699 LINE",
"520 280 LINE SMOOTH",
"498 176 OFFCURVE",
"425 124 OFFCURVE",
"332 124 CURVE SMOOTH",
"215 124 OFFCURVE",
"186 176 OFFCURVE",
"208 280 CURVE SMOOTH",
"297 699 LINE",
"145 699 LINE",
"56 282 LINE SMOOTH",
"21 117 OFFCURVE",
"105 -15 OFFCURVE",
"302 -15 CURVE SMOOTH"
);
},
{
closed = 1;
nodes = (
"387 752 OFFCURVE",
"427 783 OFFCURVE",
"436 823 CURVE SMOOTH",
"444 863 OFFCURVE",
"417 895 OFFCURVE",
"378 895 CURVE SMOOTH",
"340 895 OFFCURVE",
"300 863 OFFCURVE",
"292 823 CURVE SMOOTH",
"283 783 OFFCURVE",
"310 752 OFFCURVE",
"348 752 CURVE SMOOTH"
);
},
{
closed = 1;
nodes = (
"623 752 OFFCURVE",
"662 783 OFFCURVE",
"671 823 CURVE SMOOTH",
"679 863 OFFCURVE",
"653 895 OFFCURVE",
"614 895 CURVE SMOOTH",
"575 895 OFFCURVE",
"536 863 OFFCURVE",
"528 823 CURVE SMOOTH",
"519 783 OFFCURVE",
"545 752 OFFCURVE",
"584 752 CURVE SMOOTH"
);
},
{
closed = 1;
nodes = (
"553 889 LINE",
"694 1014 LINE",
"561 1014 LINE",
"509 958 LINE",
"482 1014 LINE",
"349 1014 LINE",
"439 889 LINE"
);
}
);
width = 711;
}
);
leftKerningGroup = U;
note = Udieresiscaron;
rightKerningGroup = U;
unicode = 01D9;
},
{
glyphname = Udieresisgrave;
lastChange = "2015-11-30 01:26:56 +0000";
layers = (
{
layerId = "C917F9CB-DEFA-4BDD-B24E-8B4296F56613";
name = "SemiBold Italic";
paths = (
{
closed = 1;
nodes = (
"531 -15 OFFCURVE",
"632 93 OFFCURVE",
"672 282 CURVE SMOOTH",
"761 699 LINE",
"609 699 LINE",
"520 280 LINE SMOOTH",
"498 176 OFFCURVE",
"425 124 OFFCURVE",
"332 124 CURVE SMOOTH",
"215 124 OFFCURVE",
"186 176 OFFCURVE",
"208 280 CURVE SMOOTH",
"297 699 LINE",
"145 699 LINE",
"56 282 LINE SMOOTH",
"21 117 OFFCURVE",
"105 -15 OFFCURVE",
"302 -15 CURVE SMOOTH"
);
},
{
closed = 1;
nodes = (
"391 752 OFFCURVE",
"431 783 OFFCURVE",
"440 823 CURVE SMOOTH",
"448 863 OFFCURVE",
"421 895 OFFCURVE",
"382 895 CURVE SMOOTH",
"344 895 OFFCURVE",
"304 863 OFFCURVE",
"296 823 CURVE SMOOTH",
"287 783 OFFCURVE",
"314 752 OFFCURVE",
"352 752 CURVE SMOOTH"
);
},
{
closed = 1;
nodes = (
"555 888 LINE",
"533 1005 LINE",
"400 1005 LINE",
"446 888 LINE"
);
},
{
closed = 1;
nodes = (
"627 752 OFFCURVE",
"666 783 OFFCURVE",
"675 823 CURVE SMOOTH",
"683 863 OFFCURVE",
"657 895 OFFCURVE",
"618 895 CURVE SMOOTH",
"579 895 OFFCURVE",
"540 863 OFFCURVE",
"532 823 CURVE SMOOTH",
"523 783 OFFCURVE",
"549 752 OFFCURVE",
"588 752 CURVE SMOOTH"
);
}
);
width = 711;
}
);
leftKerningGroup = U;
note = Udieresisgrave;
rightKerningGroup = U;
unicode = 01DB;
},
{
glyphname = Udieresismacron;
lastChange = "2015-11-30 01:26:54 +0000";
layers = (
{
layerId = "C917F9CB-DEFA-4BDD-B24E-8B4296F56613";
name = "SemiBold Italic";
paths = (
{
closed = 1;
nodes = (
"531 -15 OFFCURVE",
"632 93 OFFCURVE",
"672 282 CURVE SMOOTH",
"761 699 LINE",
"609 699 LINE",
"520 280 LINE SMOOTH",
"498 176 OFFCURVE",
"425 124 OFFCURVE",
"332 124 CURVE SMOOTH",
"215 124 OFFCURVE",
"186 176 OFFCURVE",
"208 280 CURVE SMOOTH",
"297 699 LINE",
"145 699 LINE",
"56 282 LINE SMOOTH",
"21 117 OFFCURVE",
"105 -15 OFFCURVE",
"302 -15 CURVE SMOOTH"
);
},
{
closed = 1;
nodes = (
"365 752 OFFCURVE",
"403 783 OFFCURVE",
"412 823 CURVE SMOOTH",
"420 863 OFFCURVE",
"395 895 OFFCURVE",
"356 895 CURVE SMOOTH",
"318 895 OFFCURVE",
"278 863 OFFCURVE",
"270 823 CURVE SMOOTH",
"261 783 OFFCURVE",
"288 752 OFFCURVE",
"326 752 CURVE SMOOTH"
);
},
{
closed = 1;
nodes = (
"601 752 OFFCURVE",
"640 783 OFFCURVE",
"649 823 CURVE SMOOTH",
"657 863 OFFCURVE",
"631 895 OFFCURVE",
"593 895 CURVE SMOOTH",
"554 895 OFFCURVE",
"513 863 OFFCURVE",
"505 823 CURVE SMOOTH",
"496 783 OFFCURVE",
"524 752 OFFCURVE",
"563 752 CURVE SMOOTH"
);
},
{
closed = 1;
nodes = (
"650 934 LINE",
"670 1032 LINE",
"337 1032 LINE",
"317 934 LINE"
);
}
);
width = 711;
}
);
leftKerningGroup = U;
note = Udieresismacron;
rightKerningGroup = U;
unicode = 01D5;
},
{
glyphname = Udotbelow;
lastChange = "2015-11-30 01:26:56 +0000";
layers = (
{
layerId = "C917F9CB-DEFA-4BDD-B24E-8B4296F56613";
name = "SemiBold Italic";
paths = (
{
closed = 1;
nodes = (
"531 -15 OFFCURVE",
"632 93 OFFCURVE",
"672 282 CURVE SMOOTH",
"761 699 LINE",
"609 699 LINE",
"520 280 LINE SMOOTH",
"498 176 OFFCURVE",
"425 124 OFFCURVE",
"332 124 CURVE SMOOTH",
"215 124 OFFCURVE",
"186 176 OFFCURVE",
"208 280 CURVE SMOOTH",
"297 699 LINE",
"145 699 LINE",
"56 282 LINE SMOOTH",
"21 117 OFFCURVE",
"105 -15 OFFCURVE",
"302 -15 CURVE SMOOTH"
);
},
{
closed = 1;
nodes = (
"305 -190 OFFCURVE",
"343 -158 OFFCURVE",
"351 -118 CURVE SMOOTH",
"360 -78 OFFCURVE",
"335 -46 OFFCURVE",
"297 -46 CURVE SMOOTH",
"258 -46 OFFCURVE",
"217 -78 OFFCURVE",
"208 -118 CURVE SMOOTH",
"200 -158 OFFCURVE",
"227 -190 OFFCURVE",
"266 -190 CURVE SMOOTH"
);
}
);
width = 711;
}
);
leftKerningGroup = U;
note = Udotbelow;
rightKerningGroup = U;
unicode = 1EE4;
},
{
glyphname = Ugrave;
lastChange = "2015-11-30 01:26:57 +0000";
layers = (
{
layerId = "C917F9CB-DEFA-4BDD-B24E-8B4296F56613";
name = "SemiBold Italic";
paths = (
{
closed = 1;
nodes = (
"531 -15 OFFCURVE",
"632 93 OFFCURVE",
"672 282 CURVE SMOOTH",
"761 699 LINE",
"609 699 LINE",
"520 280 LINE SMOOTH",
"498 176 OFFCURVE",
"425 124 OFFCURVE",
"332 124 CURVE SMOOTH",
"215 124 OFFCURVE",
"186 176 OFFCURVE",
"208 280 CURVE SMOOTH",
"297 699 LINE",
"145 699 LINE",
"56 282 LINE SMOOTH",
"21 117 OFFCURVE",
"105 -15 OFFCURVE",
"302 -15 CURVE SMOOTH"
);
},
{
closed = 1;
nodes = (
"525 742 LINE",
"493 918 LINE",
"334 918 LINE",
"385 742 LINE"
);
}
);
width = 711;
}
);
leftKerningGroup = U;
note = Ugrave;
rightKerningGroup = U;
unicode = 00D9;
},
{
glyphname = Uhookabove;
lastChange = "2015-11-30 01:26:56 +0000";
layers = (
{
layerId = "C917F9CB-DEFA-4BDD-B24E-8B4296F56613";
name = "SemiBold Italic";
paths = (
{
closed = 1;
nodes = (
"531 -15 OFFCURVE",
"632 93 OFFCURVE",
"672 282 CURVE SMOOTH",
"761 699 LINE",
"609 699 LINE",
"520 280 LINE SMOOTH",
"498 176 OFFCURVE",
"425 124 OFFCURVE",
"332 124 CURVE SMOOTH",
"215 124 OFFCURVE",
"186 176 OFFCURVE",
"208 280 CURVE SMOOTH",
"297 699 LINE",
"145 699 LINE",
"56 282 LINE SMOOTH",
"21 117 OFFCURVE",
"105 -15 OFFCURVE",
"302 -15 CURVE SMOOTH"
);
},
{
closed = 1;
nodes = (
"506 742 LINE",
"512 771 LINE",
"572 783 OFFCURVE",
"612 821 OFFCURVE",
"622 869 CURVE SMOOTH",
"635 930 OFFCURVE",
"595 972 OFFCURVE",
"495 972 CURVE SMOOTH",
"457 972 OFFCURVE",
"410 965 OFFCURVE",
"383 957 CURVE",
"367 882 LINE",
"381 888 OFFCURVE",
"415 893 OFFCURVE",
"431 893 CURVE SMOOTH",
"474 893 OFFCURVE",
"489 882 OFFCURVE",
"483 858 CURVE",
"476 824 OFFCURVE",
"441 814 OFFCURVE",
"389 814 CURVE",
"374 742 LINE"
);
}
);
width = 711;
}
);
leftKerningGroup = U;
note = Uhookabove;
rightKerningGroup = U;
unicode = 1EE6;
},
{
glyphname = Uhorn;
lastChange = "2015-11-30 01:26:56 +0000";
layers = (
{
layerId = "C917F9CB-DEFA-4BDD-B24E-8B4296F56613";
name = "SemiBold Italic";
paths = (
{
closed = 1;
nodes = (
"531 -15 OFFCURVE",
"632 93 OFFCURVE",
"672 282 CURVE SMOOTH",
"722 516 LINE",
"875 516 OFFCURVE",
"954 598 OFFCURVE",
"976 703 CURVE SMOOTH",
"985 747 LINE",
"852 747 LINE",
"845 712 LINE SMOOTH",
"832 651 OFFCURVE",
"812 628 OFFCURVE",
"746 628 CURVE",
"761 699 LINE",
"609 699 LINE",
"520 280 LINE SMOOTH",
"498 176 OFFCURVE",
"425 124 OFFCURVE",
"332 124 CURVE SMOOTH",
"215 124 OFFCURVE",
"186 176 OFFCURVE",
"208 280 CURVE SMOOTH",
"297 699 LINE",
"145 699 LINE",
"56 282 LINE SMOOTH",
"21 117 OFFCURVE",
"105 -15 OFFCURVE",
"302 -15 CURVE SMOOTH"
);
}
);
width = 884;
}
);
leftKerningGroup = U;
note = Uhorn;
rightKerningGroup = U;
unicode = 01AF;
},
{
glyphname = Uhornacute;
lastChange = "2015-11-30 01:26:55 +0000";
layers = (
{
layerId = "C917F9CB-DEFA-4BDD-B24E-8B4296F56613";
name = "SemiBold Italic";
paths = (
{
closed = 1;
nodes = (
"531 -15 OFFCURVE",
"632 93 OFFCURVE",
"672 282 CURVE SMOOTH",
"722 516 LINE",
"875 516 OFFCURVE",
"954 598 OFFCURVE",
"976 703 CURVE SMOOTH",
"985 747 LINE",
"852 747 LINE",
"845 712 LINE SMOOTH",
"832 651 OFFCURVE",
"812 628 OFFCURVE",
"746 628 CURVE",
"761 699 LINE",
"609 699 LINE",
"520 280 LINE SMOOTH",
"498 176 OFFCURVE",
"425 124 OFFCURVE",
"332 124 CURVE SMOOTH",
"215 124 OFFCURVE",
"186 176 OFFCURVE",
"208 280 CURVE SMOOTH",
"297 699 LINE",
"145 699 LINE",
"56 282 LINE SMOOTH",
"21 117 OFFCURVE",
"105 -15 OFFCURVE",
"302 -15 CURVE SMOOTH"
);
},
{
closed = 1;
nodes = (
"509 742 LINE",
"635 918 LINE",
"476 918 LINE",
"370 742 LINE"
);
}
);
width = 884;
}
);
leftKerningGroup = U;
note = Uhornacute;
rightKerningGroup = U;
unicode = 1EE8;
},
{
glyphname = Uhorndotbelow;
lastChange = "2015-11-30 01:26:55 +0000";
layers = (
{
layerId = "C917F9CB-DEFA-4BDD-B24E-8B4296F56613";
name = "SemiBold Italic";
paths = (
{
closed = 1;
nodes = (
"531 -15 OFFCURVE",
"632 93 OFFCURVE",
"672 282 CURVE SMOOTH",
"722 516 LINE",
"875 516 OFFCURVE",
"954 598 OFFCURVE",
"976 703 CURVE SMOOTH",
"985 747 LINE",
"852 747 LINE",
"845 712 LINE SMOOTH",
"832 651 OFFCURVE",
"812 628 OFFCURVE",
"746 628 CURVE",
"761 699 LINE",
"609 699 LINE",
"520 280 LINE SMOOTH",
"498 176 OFFCURVE",
"425 124 OFFCURVE",
"332 124 CURVE SMOOTH",
"215 124 OFFCURVE",
"186 176 OFFCURVE",
"208 280 CURVE SMOOTH",
"297 699 LINE",
"145 699 LINE",
"56 282 LINE SMOOTH",
"21 117 OFFCURVE",
"105 -15 OFFCURVE",
"302 -15 CURVE SMOOTH"
);
},
{
closed = 1;
nodes = (
"309 -190 OFFCURVE",
"347 -158 OFFCURVE",
"355 -118 CURVE SMOOTH",
"364 -78 OFFCURVE",
"339 -46 OFFCURVE",
"301 -46 CURVE SMOOTH",
"262 -46 OFFCURVE",
"221 -78 OFFCURVE",
"212 -118 CURVE SMOOTH",
"204 -158 OFFCURVE",
"231 -190 OFFCURVE",
"270 -190 CURVE SMOOTH"
);
}
);
width = 884;
}
);
leftKerningGroup = U;
note = Uhorndotbelow;
rightKerningGroup = U;
unicode = 1EF0;
},
{
glyphname = Uhorngrave;
lastChange = "2015-11-30 01:26:56 +0000";
layers = (
{
layerId = "C917F9CB-DEFA-4BDD-B24E-8B4296F56613";
name = "SemiBold Italic";
paths = (
{
closed = 1;
nodes = (
"531 -15 OFFCURVE",
"632 93 OFFCURVE",
"672 282 CURVE SMOOTH",
"722 516 LINE",
"875 516 OFFCURVE",
"954 598 OFFCURVE",
"976 703 CURVE SMOOTH",
"985 747 LINE",
"852 747 LINE",
"845 712 LINE SMOOTH",
"832 651 OFFCURVE",
"812 628 OFFCURVE",
"746 628 CURVE",
"761 699 LINE",
"609 699 LINE",
"520 280 LINE SMOOTH",
"498 176 OFFCURVE",
"425 124 OFFCURVE",
"332 124 CURVE SMOOTH",
"215 124 OFFCURVE",
"186 176 OFFCURVE",
"208 280 CURVE SMOOTH",
"297 699 LINE",
"145 699 LINE",
"56 282 LINE SMOOTH",
"21 117 OFFCURVE",
"105 -15 OFFCURVE",
"302 -15 CURVE SMOOTH"
);
},
{
closed = 1;
nodes = (
"523 742 LINE",
"491 918 LINE",
"332 918 LINE",
"383 742 LINE"
);
}
);
width = 884;
}
);
leftKerningGroup = U;
note = Uhorngrave;
rightKerningGroup = U;
unicode = 1EEA;
},
{
glyphname = Uhornhookabove;
lastChange = "2015-11-30 01:26:57 +0000";
layers = (
{
layerId = "C917F9CB-DEFA-4BDD-B24E-8B4296F56613";
name = "SemiBold Italic";
paths = (
{
closed = 1;
nodes = (
"531 -15 OFFCURVE",
"632 93 OFFCURVE",
"672 282 CURVE SMOOTH",
"722 516 LINE",
"875 516 OFFCURVE",
"954 598 OFFCURVE",
"976 703 CURVE SMOOTH",
"985 747 LINE",
"852 747 LINE",
"845 712 LINE SMOOTH",
"832 651 OFFCURVE",
"812 628 OFFCURVE",
"746 628 CURVE",
"761 699 LINE",
"609 699 LINE",
"520 280 LINE SMOOTH",
"498 176 OFFCURVE",
"425 124 OFFCURVE",
"332 124 CURVE SMOOTH",
"215 124 OFFCURVE",
"186 176 OFFCURVE",
"208 280 CURVE SMOOTH",
"297 699 LINE",
"145 699 LINE",
"56 282 LINE SMOOTH",
"21 117 OFFCURVE",
"105 -15 OFFCURVE",
"302 -15 CURVE SMOOTH"
);
},
{
closed = 1;
nodes = (
"506 742 LINE",
"512 771 LINE",
"572 783 OFFCURVE",
"612 821 OFFCURVE",
"622 869 CURVE SMOOTH",
"635 930 OFFCURVE",
"595 972 OFFCURVE",
"495 972 CURVE SMOOTH",
"457 972 OFFCURVE",
"410 965 OFFCURVE",
"383 957 CURVE",
"367 882 LINE",
"381 888 OFFCURVE",
"415 893 OFFCURVE",
"431 893 CURVE SMOOTH",
"474 893 OFFCURVE",
"489 882 OFFCURVE",
"483 858 CURVE",
"476 824 OFFCURVE",
"441 814 OFFCURVE",
"389 814 CURVE",
"374 742 LINE"
);
}
);
width = 884;
}
);
leftKerningGroup = U;
note = Uhornhookabove;
rightKerningGroup = U;
unicode = 1EEC;
},
{
glyphname = Uhorntilde;
lastChange = "2015-11-30 01:26:55 +0000";
layers = (
{
layerId = "C917F9CB-DEFA-4BDD-B24E-8B4296F56613";
name = "SemiBold Italic";
paths = (
{
closed = 1;
nodes = (
"531 -15 OFFCURVE",
"632 93 OFFCURVE",
"672 282 CURVE SMOOTH",
"722 516 LINE",
"875 516 OFFCURVE",
"954 598 OFFCURVE",
"976 703 CURVE SMOOTH",
"985 747 LINE",
"852 747 LINE",
"845 712 LINE SMOOTH",
"832 651 OFFCURVE",
"812 628 OFFCURVE",
"746 628 CURVE",
"761 699 LINE",
"609 699 LINE",
"520 280 LINE SMOOTH",
"498 176 OFFCURVE",
"425 124 OFFCURVE",
"332 124 CURVE SMOOTH",
"215 124 OFFCURVE",
"186 176 OFFCURVE",
"208 280 CURVE SMOOTH",
"297 699 LINE",
"145 699 LINE",
"56 282 LINE SMOOTH",
"21 117 OFFCURVE",
"105 -15 OFFCURVE",
"302 -15 CURVE SMOOTH"
);
},
{
closed = 1;
nodes = (
"298 780 OFFCURVE",
"335 793 OFFCURVE",
"373 793 CURVE SMOOTH",
"437 793 OFFCURVE",
"482 743 OFFCURVE",
"555 743 CURVE SMOOTH",
"598 743 OFFCURVE",
"635 754 OFFCURVE",
"665 785 CURVE",
"689 900 LINE",
"653 863 OFFCURVE",
"617 850 OFFCURVE",
"578 850 CURVE SMOOTH",
"513 850 OFFCURVE",
"463 900 OFFCURVE",
"395 900 CURVE SMOOTH",
"353 900 OFFCURVE",
"314 888 OFFCURVE",
"283 857 CURVE",
"259 742 LINE"
);
}
);
width = 884;
}
);
leftKerningGroup = U;
note = Uhorntilde;
rightKerningGroup = U;
unicode = 1EEE;
},
{
glyphname = Uhungarumlaut;
lastChange = "2015-11-30 01:26:56 +0000";
layers = (
{
layerId = "C917F9CB-DEFA-4BDD-B24E-8B4296F56613";
name = "SemiBold Italic";
paths = (
{
closed = 1;
nodes = (
"531 -15 OFFCURVE",
"632 93 OFFCURVE",
"672 282 CURVE SMOOTH",
"761 699 LINE",
"609 699 LINE",
"520 280 LINE SMOOTH",
"498 176 OFFCURVE",
"425 124 OFFCURVE",
"332 124 CURVE SMOOTH",
"215 124 OFFCURVE",
"186 176 OFFCURVE",
"208 280 CURVE SMOOTH",
"297 699 LINE",
"145 699 LINE",
"56 282 LINE SMOOTH",
"21 117 OFFCURVE",
"105 -15 OFFCURVE",
"302 -15 CURVE SMOOTH"
);
},
{
closed = 1;
nodes = (
"386 742 LINE",
"512 918 LINE",
"366 918 LINE",
"260 742 LINE"
);
},
{
closed = 1;
nodes = (
"624 742 LINE",
"749 918 LINE",
"603 918 LINE",
"497 742 LINE"
);
}
);
width = 711;
}
);
leftKerningGroup = U;
note = Uhungarumlaut;
rightKerningGroup = U;
unicode = 0170;
},
{
glyphname = Umacron;
lastChange = "2015-11-30 01:26:56 +0000";
layers = (
{
layerId = "C917F9CB-DEFA-4BDD-B24E-8B4296F56613";
name = "SemiBold Italic";
paths = (
{
closed = 1;
nodes = (
"531 -15 OFFCURVE",
"632 93 OFFCURVE",
"672 282 CURVE SMOOTH",
"761 699 LINE",
"609 699 LINE",
"520 280 LINE SMOOTH",
"498 176 OFFCURVE",
"425 124 OFFCURVE",
"332 124 CURVE SMOOTH",
"215 124 OFFCURVE",
"186 176 OFFCURVE",
"208 280 CURVE SMOOTH",
"297 699 LINE",
"145 699 LINE",
"56 282 LINE SMOOTH",
"21 117 OFFCURVE",
"105 -15 OFFCURVE",
"302 -15 CURVE SMOOTH"
);
},
{
closed = 1;
nodes = (
"611 752 LINE",
"631 850 LINE",
"298 850 LINE",
"278 752 LINE"
);
}
);
width = 711;
}
);
leftKerningGroup = U;
note = Umacron;
rightKerningGroup = U;
unicode = 016A;
},
{
glyphname = Uogonek;
lastChange = "2015-11-30 01:26:56 +0000";
layers = (
{
layerId = "C917F9CB-DEFA-4BDD-B24E-8B4296F56613";
name = "SemiBold Italic";
paths = (
{
closed = 1;
nodes = (
"531 -15 OFFCURVE",
"632 93 OFFCURVE",
"672 282 CURVE SMOOTH",
"761 699 LINE",
"609 699 LINE",
"520 280 LINE SMOOTH",
"498 176 OFFCURVE",
"425 124 OFFCURVE",
"332 124 CURVE SMOOTH",
"215 124 OFFCURVE",
"186 176 OFFCURVE",
"208 280 CURVE SMOOTH",
"297 699 LINE",
"145 699 LINE",
"56 282 LINE SMOOTH",
"21 117 OFFCURVE",
"105 -15 OFFCURVE",
"302 -15 CURVE SMOOTH"
);
},
{
closed = 1;
nodes = (
"296 -215 OFFCURVE",
"333 -209 OFFCURVE",
"358 -201 CURVE",
"376 -117 LINE",
"360 -124 OFFCURVE",
"342 -128 OFFCURVE",
"325 -128 CURVE SMOOTH",
"303 -128 OFFCURVE",
"291 -115 OFFCURVE",
"296 -92 CURVE SMOOTH",
"303 -58 OFFCURVE",
"335 -30 OFFCURVE",
"395 0 CURVE",
"257 0 LINE",
"210 -26 OFFCURVE",
"171 -67 OFFCURVE",
"160 -120 CURVE SMOOTH",
"147 -182 OFFCURVE",
"193 -215 OFFCURVE",
"261 -215 CURVE SMOOTH"
);
}
);
width = 711;
}
);
leftKerningGroup = U;
note = Uogonek;
rightKerningGroup = U;
unicode = 0172;
},
{
glyphname = Uring;
lastChange = "2015-11-30 01:26:56 +0000";
layers = (
{
layerId = "C917F9CB-DEFA-4BDD-B24E-8B4296F56613";
name = "SemiBold Italic";
paths = (
{
closed = 1;
nodes = (
"531 -15 OFFCURVE",
"632 93 OFFCURVE",
"672 282 CURVE SMOOTH",
"761 699 LINE",
"609 699 LINE",
"520 280 LINE SMOOTH",
"498 176 OFFCURVE",
"425 124 OFFCURVE",
"332 124 CURVE SMOOTH",
"215 124 OFFCURVE",
"186 176 OFFCURVE",
"208 280 CURVE SMOOTH",
"297 699 LINE",
"145 699 LINE",
"56 282 LINE SMOOTH",
"21 117 OFFCURVE",
"105 -15 OFFCURVE",
"302 -15 CURVE SMOOTH"
);
},
{
closed = 1;
nodes = (
"514 742 OFFCURVE",
"587 800 OFFCURVE",
"603 874 CURVE SMOOTH",
"618 947 OFFCURVE",
"571 1006 OFFCURVE",
"498 1006 CURVE SMOOTH",
"424 1006 OFFCURVE",
"352 947 OFFCURVE",
"337 874 CURVE SMOOTH",
"322 800 OFFCURVE",
"367 742 OFFCURVE",
"441 742 CURVE SMOOTH"
);
},
{
closed = 1;
nodes = (
"432 825 OFFCURVE",
"415 847 OFFCURVE",
"421 874 CURVE",
"426 901 OFFCURVE",
"453 922 OFFCURVE",
"480 922 CURVE SMOOTH",
"507 922 OFFCURVE",
"523 901 OFFCURVE",
"518 874 CURVE",
"512 847 OFFCURVE",
"486 825 OFFCURVE",
"459 825 CURVE SMOOTH"
);
}
);
width = 711;
}
);
leftKerningGroup = U;
note = Uring;
rightKerningGroup = U;
unicode = 016E;
},
{
glyphname = Utilde;
lastChange = "2015-11-30 01:26:55 +0000";
layers = (
{
layerId = "C917F9CB-DEFA-4BDD-B24E-8B4296F56613";
name = "SemiBold Italic";
paths = (
{
closed = 1;
nodes = (
"531 -15 OFFCURVE",
"632 93 OFFCURVE",
"672 282 CURVE SMOOTH",
"761 699 LINE",
"609 699 LINE",
"520 280 LINE SMOOTH",
"498 176 OFFCURVE",
"425 124 OFFCURVE",
"332 124 CURVE SMOOTH",
"215 124 OFFCURVE",
"186 176 OFFCURVE",
"208 280 CURVE SMOOTH",
"297 699 LINE",
"145 699 LINE",
"56 282 LINE SMOOTH",
"21 117 OFFCURVE",
"105 -15 OFFCURVE",
"302 -15 CURVE SMOOTH"
);
},
{
closed = 1;
nodes = (
"285 780 OFFCURVE",
"322 793 OFFCURVE",
"360 793 CURVE SMOOTH",
"424 793 OFFCURVE",
"469 743 OFFCURVE",
"542 743 CURVE SMOOTH",
"585 743 OFFCURVE",
"622 754 OFFCURVE",
"652 785 CURVE",
"676 900 LINE",
"640 863 OFFCURVE",
"604 850 OFFCURVE",
"565 850 CURVE SMOOTH",
"500 850 OFFCURVE",
"450 900 OFFCURVE",
"382 900 CURVE SMOOTH",
"340 900 OFFCURVE",
"301 888 OFFCURVE",
"270 857 CURVE",
"246 742 LINE"
);
}
);
width = 711;
}
);
leftKerningGroup = U;
note = Utilde;
rightKerningGroup = U;
unicode = 0168;
},
{
glyphname = V;
lastChange = "2015-11-30 01:26:55 +0000";
layers = (
{
layerId = "C917F9CB-DEFA-4BDD-B24E-8B4296F56613";
name = "SemiBold Italic";
paths = (
{
closed = 1;
nodes = (
"411 0 LINE",
"838 699 LINE",
"673 699 LINE",
"374 202 LINE",
"288 699 LINE",
"130 699 LINE",
"262 0 LINE"
);
}
);
width = 772;
}
);
note = V;
unicode = 0056;
},
{
glyphname = W;
lastChange = "2015-11-30 01:26:56 +0000";
layers = (
{
layerId = "C917F9CB-DEFA-4BDD-B24E-8B4296F56613";
name = "SemiBold Italic";
paths = (
{
closed = 1;
nodes = (
"326 0 LINE",
"544 443 LINE",
"575 0 LINE",
"714 0 LINE",
"1058 699 LINE",
"899 699 LINE",
"678 247 LINE",
"655 699 LINE",
"538 699 LINE",
"319 247 LINE",
"290 699 LINE",
"130 699 LINE",
"178 0 LINE"
);
}
);
width = 993;
}
);
leftKerningGroup = W;
note = W;
rightKerningGroup = W;
unicode = 0057;
},
{
glyphname = Wacute;
lastChange = "2015-11-30 01:26:56 +0000";
layers = (
{
layerId = "C917F9CB-DEFA-4BDD-B24E-8B4296F56613";
name = "SemiBold Italic";
paths = (
{
closed = 1;
nodes = (
"329 0 LINE",
"547 443 LINE",
"578 0 LINE",
"717 0 LINE",
"1061 699 LINE",
"902 699 LINE",
"681 247 LINE",
"658 699 LINE",
"541 699 LINE",
"322 247 LINE",
"293 699 LINE",
"133 699 LINE",
"181 0 LINE"
);
},
{
closed = 1;
nodes = (
"663 742 LINE",
"789 918 LINE",
"630 918 LINE",
"524 742 LINE"
);
}
);
width = 999;
}
);
leftKerningGroup = W;
note = Wacute;
rightKerningGroup = W;
unicode = 1E82;
},
{
glyphname = Wcircumflex;
lastChange = "2015-11-30 01:26:57 +0000";
layers = (
{
layerId = "C917F9CB-DEFA-4BDD-B24E-8B4296F56613";
name = "SemiBold Italic";
paths = (
{
closed = 1;
nodes = (
"329 0 LINE",
"547 443 LINE",
"578 0 LINE",
"717 0 LINE",
"1061 699 LINE",
"902 699 LINE",
"681 247 LINE",
"658 699 LINE",
"541 699 LINE",
"322 247 LINE",
"293 699 LINE",
"133 699 LINE",
"181 0 LINE"
);
},
{
closed = 1;
nodes = (
"519 742 LINE",
"607 834 LINE",
"655 742 LINE",
"805 742 LINE",
"691 918 LINE",
"556 918 LINE",
"369 742 LINE"
);
}
);
width = 999;
}
);
leftKerningGroup = W;
note = Wcircumflex;
rightKerningGroup = W;
unicode = 0174;
},
{
glyphname = Wdieresis;
lastChange = "2015-11-30 01:26:56 +0000";
layers = (
{
layerId = "C917F9CB-DEFA-4BDD-B24E-8B4296F56613";
name = "SemiBold Italic";
paths = (
{
closed = 1;
nodes = (
"329 0 LINE",
"547 443 LINE",
"578 0 LINE",
"717 0 LINE",
"1061 699 LINE",
"902 699 LINE",
"681 247 LINE",
"658 699 LINE",
"541 699 LINE",
"322 247 LINE",
"293 699 LINE",
"133 699 LINE",
"181 0 LINE"
);
},
{
closed = 1;
nodes = (
"509 752 OFFCURVE",
"547 783 OFFCURVE",
"556 823 CURVE SMOOTH",
"564 863 OFFCURVE",
"539 895 OFFCURVE",
"500 895 CURVE SMOOTH",
"462 895 OFFCURVE",
"422 863 OFFCURVE",
"414 823 CURVE SMOOTH",
"405 783 OFFCURVE",
"432 752 OFFCURVE",
"470 752 CURVE SMOOTH"
);
},
{
closed = 1;
nodes = (
"745 752 OFFCURVE",
"784 783 OFFCURVE",
"793 823 CURVE SMOOTH",
"801 863 OFFCURVE",
"775 895 OFFCURVE",
"737 895 CURVE SMOOTH",
"698 895 OFFCURVE",
"657 863 OFFCURVE",
"649 823 CURVE SMOOTH",
"640 783 OFFCURVE",
"668 752 OFFCURVE",
"707 752 CURVE SMOOTH"
);
}
);
width = 999;
}
);
leftKerningGroup = W;
note = Wdieresis;
rightKerningGroup = W;
unicode = 1E84;
},
{
glyphname = Wgrave;
lastChange = "2015-11-30 01:26:57 +0000";
layers = (
{
layerId = "C917F9CB-DEFA-4BDD-B24E-8B4296F56613";
name = "SemiBold Italic";
paths = (
{
closed = 1;
nodes = (
"329 0 LINE",
"547 443 LINE",
"578 0 LINE",
"717 0 LINE",
"1061 699 LINE",
"902 699 LINE",
"681 247 LINE",
"658 699 LINE",
"541 699 LINE",
"322 247 LINE",
"293 699 LINE",
"133 699 LINE",
"181 0 LINE"
);
},
{
closed = 1;
nodes = (
"656 742 LINE",
"624 918 LINE",
"465 918 LINE",
"516 742 LINE"
);
}
);
width = 999;
}
);
leftKerningGroup = W;
note = Wgrave;
rightKerningGroup = W;
unicode = 1E80;
},
{
glyphname = X;
lastChange = "2015-11-30 01:26:55 +0000";
layers = (
{
layerId = "C917F9CB-DEFA-4BDD-B24E-8B4296F56613";
name = "SemiBold Italic";
paths = (
{
closed = 1;
nodes = (
"156 0 LINE",
"374 232 LINE",
"494 0 LINE",
"668 0 LINE",
"487 352 LINE",
"813 699 LINE",
"639 699 LINE",
"425 471 LINE",
"308 699 LINE",
"134 699 LINE",
"313 352 LINE",
"-18 0 LINE"
);
}
);
width = 750;
}
);
note = X;
unicode = 0058;
},
{
glyphname = Y;
lastChange = "2015-11-30 01:26:56 +0000";
layers = (
{
layerId = "C917F9CB-DEFA-4BDD-B24E-8B4296F56613";
name = "SemiBold Italic";
paths = (
{
closed = 1;
nodes = (
"387 0 LINE",
"443 266 LINE",
"797 699 LINE",
"631 699 LINE",
"394 408 LINE",
"287 699 LINE",
"130 699 LINE",
"294 266 LINE",
"238 0 LINE"
);
}
);
width = 732;
}
);
leftKerningGroup = Y;
note = Y;
rightKerningGroup = Y;
unicode = 0059;
},
{
glyphname = Yacute;
lastChange = "2015-11-30 01:26:55 +0000";
layers = (
{
layerId = "C917F9CB-DEFA-4BDD-B24E-8B4296F56613";
name = "SemiBold Italic";
paths = (
{
closed = 1;
nodes = (
"390 0 LINE",
"446 266 LINE",
"800 699 LINE",
"634 699 LINE",
"397 408 LINE",
"290 699 LINE",
"133 699 LINE",
"297 266 LINE",
"241 0 LINE"
);
},
{
closed = 1;
nodes = (
"515 742 LINE",
"641 918 LINE",
"482 918 LINE",
"376 742 LINE"
);
}
);
width = 738;
}
);
leftKerningGroup = Y;
note = Yacute;
rightKerningGroup = Y;
unicode = 00DD;
},
{
glyphname = Ycircumflex;
lastChange = "2015-11-30 01:26:56 +0000";
layers = (
{
layerId = "C917F9CB-DEFA-4BDD-B24E-8B4296F56613";
name = "SemiBold Italic";
paths = (
{
closed = 1;
nodes = (
"390 0 LINE",
"446 266 LINE",
"800 699 LINE",
"634 699 LINE",
"397 408 LINE",
"290 699 LINE",
"133 699 LINE",
"297 266 LINE",
"241 0 LINE"
);
},
{
closed = 1;
nodes = (
"386 742 LINE",
"474 834 LINE",
"522 742 LINE",
"672 742 LINE",
"558 918 LINE",
"423 918 LINE",
"236 742 LINE"
);
}
);
width = 738;
}
);
leftKerningGroup = Y;
note = Ycircumflex;
rightKerningGroup = Y;
unicode = 0176;
},
{
glyphname = Ydieresis;
lastChange = "2015-11-30 01:26:55 +0000";
layers = (
{
layerId = "C917F9CB-DEFA-4BDD-B24E-8B4296F56613";
name = "SemiBold Italic";
paths = (
{
closed = 1;
nodes = (
"390 0 LINE",
"446 266 LINE",
"800 699 LINE",
"634 699 LINE",
"397 408 LINE",
"290 699 LINE",
"133 699 LINE",
"297 266 LINE",
"241 0 LINE"
);
},
{
closed = 1;
nodes = (
"376 752 OFFCURVE",
"414 783 OFFCURVE",
"423 823 CURVE SMOOTH",
"431 863 OFFCURVE",
"406 895 OFFCURVE",
"367 895 CURVE SMOOTH",
"329 895 OFFCURVE",
"289 863 OFFCURVE",
"281 823 CURVE SMOOTH",
"272 783 OFFCURVE",
"299 752 OFFCURVE",
"337 752 CURVE SMOOTH"
);
},
{
closed = 1;
nodes = (
"612 752 OFFCURVE",
"651 783 OFFCURVE",
"660 823 CURVE SMOOTH",
"668 863 OFFCURVE",
"642 895 OFFCURVE",
"604 895 CURVE SMOOTH",
"565 895 OFFCURVE",
"524 863 OFFCURVE",
"516 823 CURVE SMOOTH",
"507 783 OFFCURVE",
"535 752 OFFCURVE",
"574 752 CURVE SMOOTH"
);
}
);
width = 738;
}
);
leftKerningGroup = Y;
note = Ydieresis;
rightKerningGroup = Y;
unicode = 0178;
},
{
glyphname = Ydotaccent;
lastChange = "2015-11-30 01:26:54 +0000";
layers = (
{
layerId = "C917F9CB-DEFA-4BDD-B24E-8B4296F56613";
name = "SemiBold Italic";
paths = (
{
closed = 1;
nodes = (
"390 0 LINE",
"446 266 LINE",
"800 699 LINE",
"634 699 LINE",
"397 408 LINE",
"290 699 LINE",
"133 699 LINE",
"297 266 LINE",
"241 0 LINE"
);
},
{
closed = 1;
nodes = (
"495 752 OFFCURVE",
"533 783 OFFCURVE",
"542 823 CURVE SMOOTH",
"550 863 OFFCURVE",
"525 895 OFFCURVE",
"486 895 CURVE SMOOTH",
"447 895 OFFCURVE",
"406 863 OFFCURVE",
"398 823 CURVE SMOOTH",
"389 783 OFFCURVE",
"417 752 OFFCURVE",
"456 752 CURVE SMOOTH"
);
}
);
width = 738;
}
);
leftKerningGroup = Y;
note = Ydotaccent;
rightKerningGroup = Y;
unicode = 1E8E;
},
{
glyphname = Ydotbelow;
lastChange = "2015-11-30 01:26:55 +0000";
layers = (
{
layerId = "C917F9CB-DEFA-4BDD-B24E-8B4296F56613";
name = "SemiBold Italic";
paths = (
{
closed = 1;
nodes = (
"390 0 LINE",
"446 266 LINE",
"800 699 LINE",
"634 699 LINE",
"397 408 LINE",
"290 699 LINE",
"133 699 LINE",
"297 266 LINE",
"241 0 LINE"
);
},
{
closed = 1;
nodes = (
"317 -190 OFFCURVE",
"355 -158 OFFCURVE",
"363 -118 CURVE SMOOTH",
"372 -78 OFFCURVE",
"347 -46 OFFCURVE",
"309 -46 CURVE SMOOTH",
"270 -46 OFFCURVE",
"229 -78 OFFCURVE",
"220 -118 CURVE SMOOTH",
"212 -158 OFFCURVE",
"239 -190 OFFCURVE",
"278 -190 CURVE SMOOTH"
);
}
);
width = 738;
}
);
leftKerningGroup = Y;
note = Ydotbelow;
rightKerningGroup = Y;
unicode = 1EF4;
},
{
glyphname = Ygrave;
lastChange = "2015-11-30 01:26:55 +0000";
layers = (
{
layerId = "C917F9CB-DEFA-4BDD-B24E-8B4296F56613";
name = "SemiBold Italic";
paths = (
{
closed = 1;
nodes = (
"390 0 LINE",
"446 266 LINE",
"800 699 LINE",
"634 699 LINE",
"397 408 LINE",
"290 699 LINE",
"133 699 LINE",
"297 266 LINE",
"241 0 LINE"
);
},
{
closed = 1;
nodes = (
"537 742 LINE",
"505 918 LINE",
"346 918 LINE",
"397 742 LINE"
);
}
);
width = 738;
}
);
leftKerningGroup = Y;
note = Ygrave;
rightKerningGroup = Y;
unicode = 1EF2;
},
{
glyphname = Yhookabove;
lastChange = "2015-11-30 01:26:55 +0000";
layers = (
{
layerId = "C917F9CB-DEFA-4BDD-B24E-8B4296F56613";
name = "SemiBold Italic";
paths = (
{
closed = 1;
nodes = (
"390 0 LINE",
"446 266 LINE",
"800 699 LINE",
"634 699 LINE",
"397 408 LINE",
"290 699 LINE",
"133 699 LINE",
"297 266 LINE",
"241 0 LINE"
);
},
{
closed = 1;
nodes = (
"523 742 LINE",
"529 771 LINE",
"589 783 OFFCURVE",
"629 821 OFFCURVE",
"639 869 CURVE SMOOTH",
"652 930 OFFCURVE",
"612 972 OFFCURVE",
"512 972 CURVE SMOOTH",
"474 972 OFFCURVE",
"427 965 OFFCURVE",
"400 957 CURVE",
"384 882 LINE",
"398 888 OFFCURVE",
"432 893 OFFCURVE",
"448 893 CURVE SMOOTH",
"491 893 OFFCURVE",
"506 882 OFFCURVE",
"500 858 CURVE",
"493 824 OFFCURVE",
"458 814 OFFCURVE",
"406 814 CURVE",
"391 742 LINE"
);
}
);
width = 738;
}
);
leftKerningGroup = Y;
note = Yhookabove;
rightKerningGroup = Y;
unicode = 1EF6;
},
{
glyphname = Ytilde;
lastChange = "2015-11-30 01:26:57 +0000";
layers = (
{
layerId = "C917F9CB-DEFA-4BDD-B24E-8B4296F56613";
name = "SemiBold Italic";
paths = (
{
closed = 1;
nodes = (
"390 0 LINE",
"446 266 LINE",
"800 699 LINE",
"634 699 LINE",
"397 408 LINE",
"290 699 LINE",
"133 699 LINE",
"297 266 LINE",
"241 0 LINE"
);
},
{
closed = 1;
nodes = (
"294 780 OFFCURVE",
"331 793 OFFCURVE",
"369 793 CURVE SMOOTH",
"433 793 OFFCURVE",
"478 743 OFFCURVE",
"551 743 CURVE SMOOTH",
"594 743 OFFCURVE",
"631 754 OFFCURVE",
"661 785 CURVE",
"685 900 LINE",
"649 863 OFFCURVE",
"613 850 OFFCURVE",
"574 850 CURVE SMOOTH",
"509 850 OFFCURVE",
"459 900 OFFCURVE",
"391 900 CURVE SMOOTH",
"349 900 OFFCURVE",
"310 888 OFFCURVE",
"279 857 CURVE",
"255 742 LINE"
);
}
);
width = 738;
}
);
leftKerningGroup = Y;
note = Ytilde;
rightKerningGroup = Y;
unicode = 1EF8;
},
{
glyphname = Z;
lastChange = "2015-11-30 01:26:56 +0000";
layers = (
{
layerId = "C917F9CB-DEFA-4BDD-B24E-8B4296F56613";
name = "SemiBold Italic";
paths = (
{
closed = 1;
nodes = (
"532 0 LINE",
"558 127 LINE",
"198 127 LINE",
"638 597 LINE",
"660 699 LINE",
"139 699 LINE",
"112 572 LINE",
"445 572 LINE",
"3 101 LINE",
"-18 0 LINE"
);
}
);
width = 615;
}
);
leftKerningGroup = Z;
note = Z;
rightKerningGroup = Z;
unicode = 005A;
},
{
glyphname = Zacute;
lastChange = "2015-11-30 01:26:55 +0000";
layers = (
{
layerId = "C917F9CB-DEFA-4BDD-B24E-8B4296F56613";
name = "SemiBold Italic";
paths = (
{
closed = 1;
nodes = (
"532 0 LINE",
"558 127 LINE",
"198 127 LINE",
"638 597 LINE",
"660 699 LINE",
"139 699 LINE",
"112 572 LINE",
"445 572 LINE",
"3 101 LINE",
"-18 0 LINE"
);
},
{
closed = 1;
nodes = (
"446 742 LINE",
"572 918 LINE",
"413 918 LINE",
"307 742 LINE"
);
}
);
width = 615;
}
);
leftKerningGroup = Z;
note = Zacute;
rightKerningGroup = Z;
unicode = 0179;
},
{
glyphname = Zcaron;
lastChange = "2015-11-30 01:26:57 +0000";
layers = (
{
layerId = "C917F9CB-DEFA-4BDD-B24E-8B4296F56613";
name = "SemiBold Italic";
paths = (
{
closed = 1;
nodes = (
"532 0 LINE",
"558 127 LINE",
"198 127 LINE",
"638 597 LINE",
"660 699 LINE",
"139 699 LINE",
"112 572 LINE",
"445 572 LINE",
"3 101 LINE",
"-18 0 LINE"
);
},
{
closed = 1;
nodes = (
"463 742 LINE",
"651 918 LINE",
"501 918 LINE",
"414 826 LINE",
"365 918 LINE",
"215 918 LINE",
"328 742 LINE"
);
}
);
width = 615;
}
);
leftKerningGroup = Z;
note = Zcaron;
rightKerningGroup = Z;
unicode = 017D;
},
{
glyphname = Zdotaccent;
lastChange = "2015-11-30 01:26:55 +0000";
layers = (
{
layerId = "C917F9CB-DEFA-4BDD-B24E-8B4296F56613";
name = "SemiBold Italic";
paths = (
{
closed = 1;
nodes = (
"532 0 LINE",
"558 127 LINE",
"198 127 LINE",
"638 597 LINE",
"660 699 LINE",
"139 699 LINE",
"112 572 LINE",
"445 572 LINE",
"3 101 LINE",
"-18 0 LINE"
);
},
{
closed = 1;
nodes = (
"431 752 OFFCURVE",
"469 783 OFFCURVE",
"478 823 CURVE SMOOTH",
"486 863 OFFCURVE",
"461 895 OFFCURVE",
"422 895 CURVE SMOOTH",
"383 895 OFFCURVE",
"342 863 OFFCURVE",
"334 823 CURVE SMOOTH",
"325 783 OFFCURVE",
"353 752 OFFCURVE",
"392 752 CURVE SMOOTH"
);
}
);
width = 615;
}
);
leftKerningGroup = Z;
note = Zdotaccent;
rightKerningGroup = Z;
unicode = 017B;
},
{
glyphname = Zdotbelow;
lastChange = "2015-11-30 01:26:55 +0000";
layers = (
{
layerId = "C917F9CB-DEFA-4BDD-B24E-8B4296F56613";
name = "SemiBold Italic";
paths = (
{
closed = 1;
nodes = (
"532 0 LINE",
"558 127 LINE",
"198 127 LINE",
"638 597 LINE",
"660 699 LINE",
"139 699 LINE",
"112 572 LINE",
"445 572 LINE",
"3 101 LINE",
"-18 0 LINE"
);
},
{
closed = 1;
nodes = (
"264 -190 OFFCURVE",
"302 -158 OFFCURVE",
"310 -118 CURVE SMOOTH",
"319 -78 OFFCURVE",
"294 -46 OFFCURVE",
"256 -46 CURVE SMOOTH",
"217 -46 OFFCURVE",
"176 -78 OFFCURVE",
"167 -118 CURVE SMOOTH",
"159 -158 OFFCURVE",
"186 -190 OFFCURVE",
"225 -190 CURVE SMOOTH"
);
}
);
width = 615;
}
);
leftKerningGroup = Z;
note = Zdotbelow;
rightKerningGroup = Z;
unicode = 1E92;
},
{
glyphname = a;
lastChange = "2015-11-30 01:26:56 +0000";
layers = (
{
layerId = "C917F9CB-DEFA-4BDD-B24E-8B4296F56613";
name = "SemiBold Italic";
paths = (
{
closed = 1;
nodes = (
"307 -15 OFFCURVE",
"367 5 OFFCURVE",
"427 52 CURVE",
"416 0 LINE",
"562 0 LINE",
"664 480 LINE",
"513 480 LINE",
"503 437 LINE",
"469 475 OFFCURVE",
"413 495 OFFCURVE",
"341 495 CURVE SMOOTH",
"191 495 OFFCURVE",
"65 391 OFFCURVE",
"32 239 CURVE SMOOTH",
"0 85 OFFCURVE",
"92 -15 OFFCURVE",
"232 -15 CURVE SMOOTH"
);
},
{
closed = 1;
nodes = (
"193 102 OFFCURVE",
"168 148 OFFCURVE",
"187 239 CURVE SMOOTH",
"204 322 OFFCURVE",
"274 377 OFFCURVE",
"355 377 CURVE SMOOTH",
"418 377 OFFCURVE",
"464 340 OFFCURVE",
"471 285 CURVE",
"452 194 LINE",
"419 138 OFFCURVE",
"360 102 OFFCURVE",
"291 102 CURVE SMOOTH"
);
}
);
width = 660;
}
);
leftKerningGroup = a;
note = a;
rightKerningGroup = a;
unicode = 0061;
},
{
glyphname = aacute;
lastChange = "2015-11-30 01:26:55 +0000";
layers = (
{
layerId = "C917F9CB-DEFA-4BDD-B24E-8B4296F56613";
name = "SemiBold Italic";
paths = (
{
closed = 1;
nodes = (
"307 -15 OFFCURVE",
"367 5 OFFCURVE",
"427 52 CURVE",
"416 0 LINE",
"562 0 LINE",
"664 480 LINE",
"513 480 LINE",
"503 437 LINE",
"469 475 OFFCURVE",
"413 495 OFFCURVE",
"341 495 CURVE SMOOTH",
"191 495 OFFCURVE",
"65 391 OFFCURVE",
"32 239 CURVE SMOOTH",
"0 85 OFFCURVE",
"92 -15 OFFCURVE",
"232 -15 CURVE SMOOTH"
);
},
{
closed = 1;
nodes = (
"193 102 OFFCURVE",
"168 148 OFFCURVE",
"187 239 CURVE SMOOTH",
"204 322 OFFCURVE",
"274 377 OFFCURVE",
"355 377 CURVE SMOOTH",
"418 377 OFFCURVE",
"464 340 OFFCURVE",
"471 285 CURVE",
"452 194 LINE",
"419 138 OFFCURVE",
"360 102 OFFCURVE",
"291 102 CURVE SMOOTH"
);
},
{
closed = 1;
nodes = (
"484 535 LINE",
"610 711 LINE",
"451 711 LINE",
"345 535 LINE"
);
}
);
width = 660;
}
);
leftKerningGroup = a;
note = aacute;
rightKerningGroup = a;
unicode = 00E1;
},
{
glyphname = abreve;
lastChange = "2015-11-30 01:26:55 +0000";
layers = (
{
layerId = "C917F9CB-DEFA-4BDD-B24E-8B4296F56613";
name = "SemiBold Italic";
paths = (
{
closed = 1;
nodes = (
"307 -15 OFFCURVE",
"367 5 OFFCURVE",
"427 52 CURVE",
"416 0 LINE",
"562 0 LINE",
"664 480 LINE",
"513 480 LINE",
"503 437 LINE",
"469 475 OFFCURVE",
"413 495 OFFCURVE",
"341 495 CURVE SMOOTH",
"191 495 OFFCURVE",
"65 391 OFFCURVE",
"32 239 CURVE SMOOTH",
"0 85 OFFCURVE",
"92 -15 OFFCURVE",
"232 -15 CURVE SMOOTH"
);
},
{
closed = 1;
nodes = (
"193 102 OFFCURVE",
"168 148 OFFCURVE",
"187 239 CURVE SMOOTH",
"204 322 OFFCURVE",
"274 377 OFFCURVE",
"355 377 CURVE SMOOTH",
"418 377 OFFCURVE",
"464 340 OFFCURVE",
"471 285 CURVE",
"452 194 LINE",
"419 138 OFFCURVE",
"360 102 OFFCURVE",
"291 102 CURVE SMOOTH"
);
},
{
closed = 1;
nodes = (
"541 535 OFFCURVE",
"618 600 OFFCURVE",
"639 697 CURVE",
"526 697 LINE",
"517 655 OFFCURVE",
"490 633 OFFCURVE",
"453 633 CURVE SMOOTH",
"415 633 OFFCURVE",
"399 655 OFFCURVE",
"408 697 CURVE",
"296 697 LINE",
"275 600 OFFCURVE",
"323 535 OFFCURVE",
"432 535 CURVE SMOOTH"
);
}
);
width = 660;
}
);
leftKerningGroup = a;
note = abreve;
rightKerningGroup = a;
unicode = 0103;
},
{
glyphname = abreveacute;
lastChange = "2015-11-30 01:26:55 +0000";
layers = (
{
layerId = "C917F9CB-DEFA-4BDD-B24E-8B4296F56613";
name = "SemiBold Italic";
paths = (
{
closed = 1;
nodes = (
"307 -15 OFFCURVE",
"367 5 OFFCURVE",
"427 52 CURVE",
"416 0 LINE",
"562 0 LINE",
"664 480 LINE",
"513 480 LINE",
"503 437 LINE",
"469 475 OFFCURVE",
"413 495 OFFCURVE",
"341 495 CURVE SMOOTH",
"191 495 OFFCURVE",
"65 391 OFFCURVE",
"32 239 CURVE SMOOTH",
"0 85 OFFCURVE",
"92 -15 OFFCURVE",
"232 -15 CURVE SMOOTH"
);
},
{
closed = 1;
nodes = (
"193 102 OFFCURVE",
"168 148 OFFCURVE",
"187 239 CURVE SMOOTH",
"204 322 OFFCURVE",
"274 377 OFFCURVE",
"355 377 CURVE SMOOTH",
"418 377 OFFCURVE",
"464 340 OFFCURVE",
"471 285 CURVE",
"452 194 LINE",
"419 138 OFFCURVE",
"360 102 OFFCURVE",
"291 102 CURVE SMOOTH"
);
},
{
closed = 1;
nodes = (
"548 535 OFFCURVE",
"623 592 OFFCURVE",
"642 683 CURVE",
"539 683 LINE",
"530 643 OFFCURVE",
"505 624 OFFCURVE",
"466 624 CURVE SMOOTH",
"426 624 OFFCURVE",
"409 643 OFFCURVE",
"418 683 CURVE",
"314 683 LINE",
"295 592 OFFCURVE",
"346 535 OFFCURVE",
"447 535 CURVE SMOOTH"
);
},
{
closed = 1;
nodes = (
"534 696 LINE",
"629 823 LINE",
"507 823 LINE",
"429 696 LINE"
);
}
);
width = 660;
}
);
leftKerningGroup = a;
note = abreveacute;
rightKerningGroup = a;
unicode = 1EAF;
},
{
glyphname = abrevedotbelow;
lastChange = "2015-11-30 01:26:55 +0000";
layers = (
{
layerId = "C917F9CB-DEFA-4BDD-B24E-8B4296F56613";
name = "SemiBold Italic";
paths = (
{
closed = 1;
nodes = (
"307 -15 OFFCURVE",
"367 5 OFFCURVE",
"427 52 CURVE",
"416 0 LINE",
"562 0 LINE",
"664 480 LINE",
"513 480 LINE",
"503 437 LINE",
"469 475 OFFCURVE",
"413 495 OFFCURVE",
"341 495 CURVE SMOOTH",
"191 495 OFFCURVE",
"65 391 OFFCURVE",
"32 239 CURVE SMOOTH",
"0 85 OFFCURVE",
"92 -15 OFFCURVE",
"232 -15 CURVE SMOOTH"
);
},
{
closed = 1;
nodes = (
"324 -190 OFFCURVE",
"362 -158 OFFCURVE",
"370 -118 CURVE SMOOTH",
"379 -78 OFFCURVE",
"354 -46 OFFCURVE",
"316 -46 CURVE SMOOTH",
"277 -46 OFFCURVE",
"236 -78 OFFCURVE",
"227 -118 CURVE SMOOTH",
"219 -158 OFFCURVE",
"246 -190 OFFCURVE",
"285 -190 CURVE SMOOTH"
);
},
{
closed = 1;
nodes = (
"193 102 OFFCURVE",
"168 148 OFFCURVE",
"187 239 CURVE SMOOTH",
"204 322 OFFCURVE",
"274 377 OFFCURVE",
"355 377 CURVE SMOOTH",
"418 377 OFFCURVE",
"464 340 OFFCURVE",
"471 285 CURVE",
"452 194 LINE",
"419 138 OFFCURVE",
"360 102 OFFCURVE",
"291 102 CURVE SMOOTH"
);
},
{
closed = 1;
nodes = (
"530 535 OFFCURVE",
"607 600 OFFCURVE",
"628 697 CURVE",
"515 697 LINE",
"506 655 OFFCURVE",
"479 633 OFFCURVE",
"442 633 CURVE SMOOTH",
"404 633 OFFCURVE",
"388 655 OFFCURVE",
"397 697 CURVE",
"285 697 LINE",
"264 600 OFFCURVE",
"312 535 OFFCURVE",
"421 535 CURVE SMOOTH"
);
}
);
width = 660;
}
);
leftKerningGroup = a;
note = abrevedotbelow;
rightKerningGroup = a;
unicode = 1EB7;
},
{
glyphname = abrevegrave;
lastChange = "2015-11-30 01:26:55 +0000";
layers = (
{
layerId = "C917F9CB-DEFA-4BDD-B24E-8B4296F56613";
name = "SemiBold Italic";
paths = (
{
closed = 1;
nodes = (
"307 -15 OFFCURVE",
"367 5 OFFCURVE",
"427 52 CURVE",
"416 0 LINE",
"562 0 LINE",
"664 480 LINE",
"513 480 LINE",
"503 437 LINE",
"469 475 OFFCURVE",
"413 495 OFFCURVE",
"341 495 CURVE SMOOTH",
"191 495 OFFCURVE",
"65 391 OFFCURVE",
"32 239 CURVE SMOOTH",
"0 85 OFFCURVE",
"92 -15 OFFCURVE",
"232 -15 CURVE SMOOTH"
);
},
{
closed = 1;
nodes = (
"193 102 OFFCURVE",
"168 148 OFFCURVE",
"187 239 CURVE SMOOTH",
"204 322 OFFCURVE",
"274 377 OFFCURVE",
"355 377 CURVE SMOOTH",
"418 377 OFFCURVE",
"464 340 OFFCURVE",
"471 285 CURVE",
"452 194 LINE",
"419 138 OFFCURVE",
"360 102 OFFCURVE",
"291 102 CURVE SMOOTH"
);
},
{
closed = 1;
nodes = (
"546 535 OFFCURVE",
"621 592 OFFCURVE",
"640 683 CURVE",
"538 683 LINE",
"529 643 OFFCURVE",
"503 624 OFFCURVE",
"464 624 CURVE SMOOTH",
"424 624 OFFCURVE",
"407 643 OFFCURVE",
"416 683 CURVE",
"312 683 LINE",
"293 592 OFFCURVE",
"344 535 OFFCURVE",
"445 535 CURVE SMOOTH"
);
},
{
closed = 1;
nodes = (
"532 696 LINE",
"508 823 LINE",
"386 823 LINE",
"427 696 LINE"
);
}
);
width = 660;
}
);
leftKerningGroup = a;
note = abrevegrave;
rightKerningGroup = a;
unicode = 1EB1;
},
{
glyphname = abrevehookabove;
lastChange = "2015-11-30 01:26:55 +0000";
layers = (
{
layerId = "C917F9CB-DEFA-4BDD-B24E-8B4296F56613";
name = "SemiBold Italic";
paths = (
{
closed = 1;
nodes = (
"307 -15 OFFCURVE",
"367 5 OFFCURVE",
"427 52 CURVE",
"416 0 LINE",
"562 0 LINE",
"664 480 LINE",
"513 480 LINE",
"503 437 LINE",
"469 475 OFFCURVE",
"413 495 OFFCURVE",
"341 495 CURVE SMOOTH",
"191 495 OFFCURVE",
"65 391 OFFCURVE",
"32 239 CURVE SMOOTH",
"0 85 OFFCURVE",
"92 -15 OFFCURVE",
"232 -15 CURVE SMOOTH"
);
},
{
closed = 1;
nodes = (
"193 102 OFFCURVE",
"168 148 OFFCURVE",
"187 239 CURVE SMOOTH",
"204 322 OFFCURVE",
"274 377 OFFCURVE",
"355 377 CURVE SMOOTH",
"418 377 OFFCURVE",
"464 340 OFFCURVE",
"471 285 CURVE",
"452 194 LINE",
"419 138 OFFCURVE",
"360 102 OFFCURVE",
"291 102 CURVE SMOOTH"
);
},
{
closed = 1;
nodes = (
"546 535 OFFCURVE",
"622 592 OFFCURVE",
"641 683 CURVE",
"539 683 LINE",
"530 643 OFFCURVE",
"504 623 OFFCURVE",
"464 623 CURVE SMOOTH",
"425 623 OFFCURVE",
"407 643 OFFCURVE",
"416 683 CURVE",
"313 683 LINE",
"294 592 OFFCURVE",
"344 535 OFFCURVE",
"445 535 CURVE SMOOTH"
);
},
{
closed = 1;
nodes = (
"527 685 LINE",
"532 706 LINE",
"573 714 OFFCURVE",
"600 738 OFFCURVE",
"607 773 CURVE SMOOTH",
"616 816 OFFCURVE",
"587 845 OFFCURVE",
"520 845 CURVE SMOOTH",
"495 845 OFFCURVE",
"460 840 OFFCURVE",
"440 833 CURVE",
"428 779 LINE",
"437 784 OFFCURVE",
"455 787 OFFCURVE",
"468 787 CURVE SMOOTH",
"496 787 OFFCURVE",
"508 781 OFFCURVE",
"504 762 CURVE SMOOTH",
"499 740 OFFCURVE",
"479 734 OFFCURVE",
"444 734 CURVE",
"433 685 LINE"
);
}
);
width = 660;
}
);
leftKerningGroup = a;
note = abrevehookabove;
rightKerningGroup = a;
unicode = 1EB3;
},
{
glyphname = abrevetilde;
lastChange = "2015-11-30 01:26:55 +0000";
layers = (
{
layerId = "C917F9CB-DEFA-4BDD-B24E-8B4296F56613";
name = "SemiBold Italic";
paths = (
{
closed = 1;
nodes = (
"307 -15 OFFCURVE",
"367 5 OFFCURVE",
"427 52 CURVE",
"416 0 LINE",
"562 0 LINE",
"664 480 LINE",
"513 480 LINE",
"503 437 LINE",
"469 475 OFFCURVE",
"413 495 OFFCURVE",
"341 495 CURVE SMOOTH",
"191 495 OFFCURVE",
"65 391 OFFCURVE",
"32 239 CURVE SMOOTH",
"0 85 OFFCURVE",
"92 -15 OFFCURVE",
"232 -15 CURVE SMOOTH"
);
},
{
closed = 1;
nodes = (
"193 102 OFFCURVE",
"168 148 OFFCURVE",
"187 239 CURVE SMOOTH",
"204 322 OFFCURVE",
"274 377 OFFCURVE",
"355 377 CURVE SMOOTH",
"418 377 OFFCURVE",
"464 340 OFFCURVE",
"471 285 CURVE",
"452 194 LINE",
"419 138 OFFCURVE",
"360 102 OFFCURVE",
"291 102 CURVE SMOOTH"
);
},
{
closed = 1;
nodes = (
"560 535 OFFCURVE",
"635 592 OFFCURVE",
"654 683 CURVE",
"552 683 LINE",
"543 643 OFFCURVE",
"517 624 OFFCURVE",
"478 624 CURVE SMOOTH",
"438 624 OFFCURVE",
"421 643 OFFCURVE",
"430 683 CURVE",
"326 683 LINE",
"307 592 OFFCURVE",
"358 535 OFFCURVE",
"459 535 CURVE SMOOTH"
);
},
{
closed = 1;
nodes = (
"612 716 OFFCURVE",
"640 726 OFFCURVE",
"663 750 CURVE",
"684 846 LINE",
"654 816 OFFCURVE",
"626 804 OFFCURVE",
"596 804 CURVE SMOOTH",
"546 804 OFFCURVE",
"499 847 OFFCURVE",
"448 847 CURVE SMOOTH",
"412 847 OFFCURVE",
"383 837 OFFCURVE",
"359 812 CURVE",
"339 717 LINE",
"370 747 OFFCURVE",
"397 759 OFFCURVE",
"429 759 CURVE SMOOTH",
"477 759 OFFCURVE",
"521 716 OFFCURVE",
"577 716 CURVE SMOOTH"
);
}
);
width = 660;
}
);
leftKerningGroup = a;
note = abrevetilde;
rightKerningGroup = a;
unicode = 1EB5;
},
{
glyphname = acaron;
lastChange = "2015-11-30 01:26:55 +0000";
layers = (
{
layerId = "C917F9CB-DEFA-4BDD-B24E-8B4296F56613";
name = "SemiBold Italic";
paths = (
{
closed = 1;
nodes = (
"307 -15 OFFCURVE",
"367 5 OFFCURVE",
"427 52 CURVE",
"416 0 LINE",
"562 0 LINE",
"664 480 LINE",
"513 480 LINE",
"503 437 LINE",
"469 475 OFFCURVE",
"413 495 OFFCURVE",
"341 495 CURVE SMOOTH",
"191 495 OFFCURVE",
"65 391 OFFCURVE",
"32 239 CURVE SMOOTH",
"0 85 OFFCURVE",
"92 -15 OFFCURVE",
"232 -15 CURVE SMOOTH"
);
},
{
closed = 1;
nodes = (
"193 102 OFFCURVE",
"168 148 OFFCURVE",
"187 239 CURVE SMOOTH",
"204 322 OFFCURVE",
"274 377 OFFCURVE",
"355 377 CURVE SMOOTH",
"418 377 OFFCURVE",
"464 340 OFFCURVE",
"471 285 CURVE",
"452 194 LINE",
"419 138 OFFCURVE",
"360 102 OFFCURVE",
"291 102 CURVE SMOOTH"
);
},
{
closed = 1;
nodes = (
"507 535 LINE",
"695 711 LINE",
"545 711 LINE",
"458 619 LINE",
"409 711 LINE",
"259 711 LINE",
"372 535 LINE"
);
}
);
width = 667;
}
);
leftKerningGroup = a;
note = acaron;
rightKerningGroup = a;
unicode = 01CE;
},
{
glyphname = acircumflex;
lastChange = "2015-11-30 01:26:56 +0000";
layers = (
{
layerId = "C917F9CB-DEFA-4BDD-B24E-8B4296F56613";
name = "SemiBold Italic";
paths = (
{
closed = 1;
nodes = (
"307 -15 OFFCURVE",
"367 5 OFFCURVE",
"427 52 CURVE",
"416 0 LINE",
"562 0 LINE",
"664 480 LINE",
"513 480 LINE",
"503 437 LINE",
"469 475 OFFCURVE",
"413 495 OFFCURVE",
"341 495 CURVE SMOOTH",
"191 495 OFFCURVE",
"65 391 OFFCURVE",
"32 239 CURVE SMOOTH",
"0 85 OFFCURVE",
"92 -15 OFFCURVE",
"232 -15 CURVE SMOOTH"
);
},
{
closed = 1;
nodes = (
"193 102 OFFCURVE",
"168 148 OFFCURVE",
"187 239 CURVE SMOOTH",
"204 322 OFFCURVE",
"274 377 OFFCURVE",
"355 377 CURVE SMOOTH",
"418 377 OFFCURVE",
"464 340 OFFCURVE",
"471 285 CURVE",
"452 194 LINE",
"419 138 OFFCURVE",
"360 102 OFFCURVE",
"291 102 CURVE SMOOTH"
);
},
{
closed = 1;
nodes = (
"358 535 LINE",
"446 627 LINE",
"494 535 LINE",
"644 535 LINE",
"530 711 LINE",
"395 711 LINE",
"208 535 LINE"
);
}
);
width = 660;
}
);
leftKerningGroup = a;
note = acircumflex;
rightKerningGroup = a;
unicode = 00E2;
},
{
glyphname = acircumflexacute;
lastChange = "2015-11-30 01:26:56 +0000";
layers = (
{
layerId = "C917F9CB-DEFA-4BDD-B24E-8B4296F56613";
name = "SemiBold Italic";
paths = (
{
closed = 1;
nodes = (
"307 -15 OFFCURVE",
"367 5 OFFCURVE",
"427 52 CURVE",
"416 0 LINE",
"562 0 LINE",
"664 480 LINE",
"513 480 LINE",
"503 437 LINE",
"469 475 OFFCURVE",
"413 495 OFFCURVE",
"341 495 CURVE SMOOTH",
"191 495 OFFCURVE",
"65 391 OFFCURVE",
"32 239 CURVE SMOOTH",
"0 85 OFFCURVE",
"92 -15 OFFCURVE",
"232 -15 CURVE SMOOTH"
);
},
{
closed = 1;
nodes = (
"193 102 OFFCURVE",
"168 148 OFFCURVE",
"187 239 CURVE SMOOTH",
"204 322 OFFCURVE",
"274 377 OFFCURVE",
"355 377 CURVE SMOOTH",
"418 377 OFFCURVE",
"464 340 OFFCURVE",
"471 285 CURVE",
"452 194 LINE",
"419 138 OFFCURVE",
"360 102 OFFCURVE",
"291 102 CURVE SMOOTH"
);
},
{
closed = 1;
nodes = (
"387 535 LINE",
"468 611 LINE",
"517 535 LINE",
"654 535 LINE",
"543 690 LINE",
"428 690 LINE",
"249 535 LINE"
);
},
{
closed = 1;
nodes = (
"727 643 LINE",
"834 776 LINE",
"695 776 LINE",
"608 643 LINE"
);
}
);
width = 653;
}
);
leftKerningGroup = a;
note = acircumflexacute;
rightKerningGroup = a;
unicode = 1EA5;
},
{
glyphname = acircumflexdotbelow;
lastChange = "2015-11-30 01:26:56 +0000";
layers = (
{
layerId = "C917F9CB-DEFA-4BDD-B24E-8B4296F56613";
name = "SemiBold Italic";
paths = (
{
closed = 1;
nodes = (
"307 -15 OFFCURVE",
"367 5 OFFCURVE",
"427 52 CURVE",
"416 0 LINE",
"562 0 LINE",
"664 480 LINE",
"513 480 LINE",
"503 437 LINE",
"469 475 OFFCURVE",
"413 495 OFFCURVE",
"341 495 CURVE SMOOTH",
"191 495 OFFCURVE",
"65 391 OFFCURVE",
"32 239 CURVE SMOOTH",
"0 85 OFFCURVE",
"92 -15 OFFCURVE",
"232 -15 CURVE SMOOTH"
);
},
{
closed = 1;
nodes = (
"321 -190 OFFCURVE",
"359 -158 OFFCURVE",
"367 -118 CURVE SMOOTH",
"376 -78 OFFCURVE",
"351 -46 OFFCURVE",
"313 -46 CURVE SMOOTH",
"274 -46 OFFCURVE",
"233 -78 OFFCURVE",
"224 -118 CURVE SMOOTH",
"216 -158 OFFCURVE",
"243 -190 OFFCURVE",
"282 -190 CURVE SMOOTH"
);
},
{
closed = 1;
nodes = (
"193 102 OFFCURVE",
"168 148 OFFCURVE",
"187 239 CURVE SMOOTH",
"204 322 OFFCURVE",
"274 377 OFFCURVE",
"355 377 CURVE SMOOTH",
"418 377 OFFCURVE",
"464 340 OFFCURVE",
"471 285 CURVE",
"452 194 LINE",
"419 138 OFFCURVE",
"360 102 OFFCURVE",
"291 102 CURVE SMOOTH"
);
},
{
closed = 1;
nodes = (
"349 535 LINE",
"437 627 LINE",
"485 535 LINE",
"635 535 LINE",
"521 711 LINE",
"386 711 LINE",
"199 535 LINE"
);
}
);
width = 660;
}
);
leftKerningGroup = a;
note = acircumflexdotbelow;
rightKerningGroup = a;
unicode = 1EAD;
},
{
glyphname = acircumflexgrave;
lastChange = "2015-11-30 01:26:56 +0000";
layers = (
{
layerId = "C917F9CB-DEFA-4BDD-B24E-8B4296F56613";
name = "SemiBold Italic";
paths = (
{
closed = 1;
nodes = (
"307 -15 OFFCURVE",
"367 5 OFFCURVE",
"427 52 CURVE",
"416 0 LINE",
"562 0 LINE",
"664 480 LINE",
"513 480 LINE",
"503 437 LINE",
"469 475 OFFCURVE",
"413 495 OFFCURVE",
"341 495 CURVE SMOOTH",
"191 495 OFFCURVE",
"65 391 OFFCURVE",
"32 239 CURVE SMOOTH",
"0 85 OFFCURVE",
"92 -15 OFFCURVE",
"232 -15 CURVE SMOOTH"
);
},
{
closed = 1;
nodes = (
"193 102 OFFCURVE",
"168 148 OFFCURVE",
"187 239 CURVE SMOOTH",
"204 322 OFFCURVE",
"274 377 OFFCURVE",
"355 377 CURVE SMOOTH",
"418 377 OFFCURVE",
"464 340 OFFCURVE",
"471 285 CURVE",
"452 194 LINE",
"419 138 OFFCURVE",
"360 102 OFFCURVE",
"291 102 CURVE SMOOTH"
);
},
{
closed = 1;
nodes = (
"338 643 LINE",
"306 776 LINE",
"166 776 LINE",
"217 643 LINE"
);
},
{
closed = 1;
nodes = (
"382 535 LINE",
"463 611 LINE",
"511 535 LINE",
"649 535 LINE",
"537 690 LINE",
"423 690 LINE",
"245 535 LINE"
);
}
);
width = 660;
}
);
leftKerningGroup = a;
note = acircumflexgrave;
rightKerningGroup = a;
unicode = 1EA7;
},
{
glyphname = acircumflexhookabove;
lastChange = "2015-11-30 01:26:56 +0000";
layers = (
{
layerId = "C917F9CB-DEFA-4BDD-B24E-8B4296F56613";
name = "SemiBold Italic";
paths = (
{
closed = 1;
nodes = (
"307 -15 OFFCURVE",
"367 5 OFFCURVE",
"427 52 CURVE",
"416 0 LINE",
"562 0 LINE",
"664 480 LINE",
"513 480 LINE",
"503 437 LINE",
"469 475 OFFCURVE",
"413 495 OFFCURVE",
"341 495 CURVE SMOOTH",
"191 495 OFFCURVE",
"65 391 OFFCURVE",
"32 239 CURVE SMOOTH",
"0 85 OFFCURVE",
"92 -15 OFFCURVE",
"232 -15 CURVE SMOOTH"
);
},
{
closed = 1;
nodes = (
"193 102 OFFCURVE",
"168 148 OFFCURVE",
"187 239 CURVE SMOOTH",
"204 322 OFFCURVE",
"274 377 OFFCURVE",
"355 377 CURVE SMOOTH",
"418 377 OFFCURVE",
"464 340 OFFCURVE",
"471 285 CURVE",
"452 194 LINE",
"419 138 OFFCURVE",
"360 102 OFFCURVE",
"291 102 CURVE SMOOTH"
);
},
{
closed = 1;
nodes = (
"376 535 LINE",
"457 611 LINE",
"506 535 LINE",
"643 535 LINE",
"532 690 LINE",
"417 690 LINE",
"238 535 LINE"
);
},
{
closed = 1;
nodes = (
"688 632 LINE",
"693 656 LINE",
"734 664 OFFCURVE",
"762 688 OFFCURVE",
"769 721 CURVE SMOOTH",
"778 764 OFFCURVE",
"747 793 OFFCURVE",
"682 793 CURVE SMOOTH",
"656 793 OFFCURVE",
"621 788 OFFCURVE",
"602 782 CURVE",
"591 728 LINE",
"601 732 OFFCURVE",
"617 735 OFFCURVE",
"630 735 CURVE SMOOTH",
"657 735 OFFCURVE",
"670 729 OFFCURVE",
"666 711 CURVE SMOOTH",
"661 689 OFFCURVE",
"641 682 OFFCURVE",
"605 682 CURVE",
"595 632 LINE"
);
}
);
width = 667;
}
);
leftKerningGroup = a;
note = acircumflexhookabove;
rightKerningGroup = a;
unicode = 1EA9;
},
{
glyphname = acircumflextilde;
lastChange = "2015-11-30 01:26:55 +0000";
layers = (
{
layerId = "C917F9CB-DEFA-4BDD-B24E-8B4296F56613";
name = "SemiBold Italic";
paths = (
{
closed = 1;
nodes = (
"307 -15 OFFCURVE",
"367 5 OFFCURVE",
"427 52 CURVE",
"416 0 LINE",
"562 0 LINE",
"664 480 LINE",
"513 480 LINE",
"503 437 LINE",
"469 475 OFFCURVE",
"413 495 OFFCURVE",
"341 495 CURVE SMOOTH",
"191 495 OFFCURVE",
"65 391 OFFCURVE",
"32 239 CURVE SMOOTH",
"0 85 OFFCURVE",
"92 -15 OFFCURVE",
"232 -15 CURVE SMOOTH"
);
},
{
closed = 1;
nodes = (
"193 102 OFFCURVE",
"168 148 OFFCURVE",
"187 239 CURVE SMOOTH",
"204 322 OFFCURVE",
"274 377 OFFCURVE",
"355 377 CURVE SMOOTH",
"418 377 OFFCURVE",
"464 340 OFFCURVE",
"471 285 CURVE",
"452 194 LINE",
"419 138 OFFCURVE",
"360 102 OFFCURVE",
"291 102 CURVE SMOOTH"
);
},
{
closed = 1;
nodes = (
"381 535 LINE",
"462 611 LINE",
"511 535 LINE",
"648 535 LINE",
"537 690 LINE",
"422 690 LINE",
"243 535 LINE"
);
},
{
closed = 1;
nodes = (
"600 701 OFFCURVE",
"628 711 OFFCURVE",
"651 735 CURVE",
"672 831 LINE",
"643 801 OFFCURVE",
"614 789 OFFCURVE",
"584 789 CURVE SMOOTH",
"535 789 OFFCURVE",
"487 832 OFFCURVE",
"436 832 CURVE SMOOTH",
"401 832 OFFCURVE",
"372 822 OFFCURVE",
"348 797 CURVE",
"328 702 LINE",
"358 732 OFFCURVE",
"386 744 OFFCURVE",
"417 744 CURVE SMOOTH",
"465 744 OFFCURVE",
"510 701 OFFCURVE",
"565 701 CURVE SMOOTH"
);
}
);
width = 660;
}
);
leftKerningGroup = a;
note = acircumflextilde;
rightKerningGroup = a;
unicode = 1EAB;
},
{
glyphname = adieresis;
lastChange = "2015-11-30 01:26:55 +0000";
layers = (
{
layerId = "C917F9CB-DEFA-4BDD-B24E-8B4296F56613";
name = "SemiBold Italic";
paths = (
{
closed = 1;
nodes = (
"307 -15 OFFCURVE",
"367 5 OFFCURVE",
"427 52 CURVE",
"416 0 LINE",
"562 0 LINE",
"664 480 LINE",
"513 480 LINE",
"503 437 LINE",
"469 475 OFFCURVE",
"413 495 OFFCURVE",
"341 495 CURVE SMOOTH",
"191 495 OFFCURVE",
"65 391 OFFCURVE",
"32 239 CURVE SMOOTH",
"0 85 OFFCURVE",
"92 -15 OFFCURVE",
"232 -15 CURVE SMOOTH"
);
},
{
closed = 1;
nodes = (
"193 102 OFFCURVE",
"168 148 OFFCURVE",
"187 239 CURVE SMOOTH",
"204 322 OFFCURVE",
"274 377 OFFCURVE",
"355 377 CURVE SMOOTH",
"418 377 OFFCURVE",
"464 340 OFFCURVE",
"471 285 CURVE",
"452 194 LINE",
"419 138 OFFCURVE",
"360 102 OFFCURVE",
"291 102 CURVE SMOOTH"
);
},
{
closed = 1;
nodes = (
"342 545 OFFCURVE",
"380 576 OFFCURVE",
"389 616 CURVE SMOOTH",
"397 656 OFFCURVE",
"372 688 OFFCURVE",
"333 688 CURVE SMOOTH",
"295 688 OFFCURVE",
"255 656 OFFCURVE",
"247 616 CURVE SMOOTH",
"238 576 OFFCURVE",
"265 545 OFFCURVE",
"303 545 CURVE SMOOTH"
);
},
{
closed = 1;
nodes = (
"578 545 OFFCURVE",
"617 576 OFFCURVE",
"626 616 CURVE SMOOTH",
"634 656 OFFCURVE",
"608 688 OFFCURVE",
"570 688 CURVE SMOOTH",
"531 688 OFFCURVE",
"490 656 OFFCURVE",
"482 616 CURVE SMOOTH",
"473 576 OFFCURVE",
"501 545 OFFCURVE",
"540 545 CURVE SMOOTH"
);
}
);
width = 660;
}
);
leftKerningGroup = a;
note = adieresis;
rightKerningGroup = a;
unicode = 00E4;
},
{
glyphname = adotbelow;
lastChange = "2015-11-30 01:26:55 +0000";
layers = (
{
layerId = "C917F9CB-DEFA-4BDD-B24E-8B4296F56613";
name = "SemiBold Italic";
paths = (
{
closed = 1;
nodes = (
"307 -15 OFFCURVE",
"367 5 OFFCURVE",
"427 52 CURVE",
"416 0 LINE",
"562 0 LINE",
"664 480 LINE",
"513 480 LINE",
"503 437 LINE",
"469 475 OFFCURVE",
"413 495 OFFCURVE",
"341 495 CURVE SMOOTH",
"191 495 OFFCURVE",
"65 391 OFFCURVE",
"32 239 CURVE SMOOTH",
"0 85 OFFCURVE",
"92 -15 OFFCURVE",
"232 -15 CURVE SMOOTH"
);
},
{
closed = 1;
nodes = (
"324 -190 OFFCURVE",
"362 -158 OFFCURVE",
"370 -118 CURVE SMOOTH",
"379 -78 OFFCURVE",
"354 -46 OFFCURVE",
"316 -46 CURVE SMOOTH",
"277 -46 OFFCURVE",
"236 -78 OFFCURVE",
"227 -118 CURVE SMOOTH",
"219 -158 OFFCURVE",
"246 -190 OFFCURVE",
"285 -190 CURVE SMOOTH"
);
},
{
closed = 1;
nodes = (
"193 102 OFFCURVE",
"168 148 OFFCURVE",
"187 239 CURVE SMOOTH",
"204 322 OFFCURVE",
"274 377 OFFCURVE",
"355 377 CURVE SMOOTH",
"418 377 OFFCURVE",
"464 340 OFFCURVE",
"471 285 CURVE",
"452 194 LINE",
"419 138 OFFCURVE",
"360 102 OFFCURVE",
"291 102 CURVE SMOOTH"
);
}
);
width = 660;
}
);
leftKerningGroup = a;
note = adotbelow;
rightKerningGroup = a;
unicode = 1EA1;
},
{
glyphname = agrave;
lastChange = "2015-11-30 01:26:55 +0000";
layers = (
{
layerId = "C917F9CB-DEFA-4BDD-B24E-8B4296F56613";
name = "SemiBold Italic";
paths = (
{
closed = 1;
nodes = (
"307 -15 OFFCURVE",
"367 5 OFFCURVE",
"427 52 CURVE",
"416 0 LINE",
"562 0 LINE",
"664 480 LINE",
"513 480 LINE",
"503 437 LINE",
"469 475 OFFCURVE",
"413 495 OFFCURVE",
"341 495 CURVE SMOOTH",
"191 495 OFFCURVE",
"65 391 OFFCURVE",
"32 239 CURVE SMOOTH",
"0 85 OFFCURVE",
"92 -15 OFFCURVE",
"232 -15 CURVE SMOOTH"
);
},
{
closed = 1;
nodes = (
"193 102 OFFCURVE",
"168 148 OFFCURVE",
"187 239 CURVE SMOOTH",
"204 322 OFFCURVE",
"274 377 OFFCURVE",
"355 377 CURVE SMOOTH",
"418 377 OFFCURVE",
"464 340 OFFCURVE",
"471 285 CURVE",
"452 194 LINE",
"419 138 OFFCURVE",
"360 102 OFFCURVE",
"291 102 CURVE SMOOTH"
);
},
{
closed = 1;
nodes = (
"520 535 LINE",
"488 711 LINE",
"329 711 LINE",
"380 535 LINE"
);
}
);
width = 660;
}
);
leftKerningGroup = a;
note = agrave;
rightKerningGroup = a;
unicode = 00E0;
},
{
glyphname = ahookabove;
lastChange = "2015-11-30 01:26:57 +0000";
layers = (
{
layerId = "C917F9CB-DEFA-4BDD-B24E-8B4296F56613";
name = "SemiBold Italic";
paths = (
{
closed = 1;
nodes = (
"307 -15 OFFCURVE",
"367 5 OFFCURVE",
"427 52 CURVE",
"416 0 LINE",
"562 0 LINE",
"664 480 LINE",
"513 480 LINE",
"503 437 LINE",
"469 475 OFFCURVE",
"413 495 OFFCURVE",
"341 495 CURVE SMOOTH",
"191 495 OFFCURVE",
"65 391 OFFCURVE",
"32 239 CURVE SMOOTH",
"0 85 OFFCURVE",
"92 -15 OFFCURVE",
"232 -15 CURVE SMOOTH"
);
},
{
closed = 1;
nodes = (
"193 102 OFFCURVE",
"168 148 OFFCURVE",
"187 239 CURVE SMOOTH",
"204 322 OFFCURVE",
"274 377 OFFCURVE",
"355 377 CURVE SMOOTH",
"418 377 OFFCURVE",
"464 340 OFFCURVE",
"471 285 CURVE",
"452 194 LINE",
"419 138 OFFCURVE",
"360 102 OFFCURVE",
"291 102 CURVE SMOOTH"
);
},
{
closed = 1;
nodes = (
"494 535 LINE",
"500 564 LINE",
"560 576 OFFCURVE",
"600 614 OFFCURVE",
"610 662 CURVE SMOOTH",
"623 723 OFFCURVE",
"583 765 OFFCURVE",
"483 765 CURVE SMOOTH",
"445 765 OFFCURVE",
"398 758 OFFCURVE",
"371 750 CURVE",
"355 675 LINE",
"369 681 OFFCURVE",
"403 686 OFFCURVE",
"419 686 CURVE SMOOTH",
"462 686 OFFCURVE",
"477 675 OFFCURVE",
"471 651 CURVE",
"464 617 OFFCURVE",
"429 607 OFFCURVE",
"377 607 CURVE",
"362 535 LINE"
);
}
);
width = 660;
}
);
leftKerningGroup = a;
note = ahookabove;
rightKerningGroup = a;
unicode = 1EA3;
},
{
glyphname = "alpha-latin";
lastChange = "2015-11-30 01:26:56 +0000";
layers = (
{
layerId = "C917F9CB-DEFA-4BDD-B24E-8B4296F56613";
name = "SemiBold Italic";
paths = (
{
closed = 1;
nodes = (
"307 -15 OFFCURVE",
"367 5 OFFCURVE",
"427 52 CURVE",
"416 0 LINE",
"562 0 LINE",
"664 480 LINE",
"513 480 LINE",
"503 437 LINE",
"469 475 OFFCURVE",
"413 495 OFFCURVE",
"341 495 CURVE SMOOTH",
"191 495 OFFCURVE",
"65 391 OFFCURVE",
"32 239 CURVE SMOOTH",
"0 85 OFFCURVE",
"92 -15 OFFCURVE",
"232 -15 CURVE SMOOTH"
);
},
{
closed = 1;
nodes = (
"193 102 OFFCURVE",
"168 148 OFFCURVE",
"187 239 CURVE SMOOTH",
"204 322 OFFCURVE",
"274 377 OFFCURVE",
"355 377 CURVE SMOOTH",
"418 377 OFFCURVE",
"464 340 OFFCURVE",
"471 285 CURVE",
"452 194 LINE",
"419 138 OFFCURVE",
"360 102 OFFCURVE",
"291 102 CURVE SMOOTH"
);
}
);
width = 665;
}
);
leftKerningGroup = a;
note = ascript;
rightKerningGroup = a;
unicode = 0251;
},
{
glyphname = amacron;
lastChange = "2015-11-30 01:26:55 +0000";
layers = (
{
layerId = "C917F9CB-DEFA-4BDD-B24E-8B4296F56613";
name = "SemiBold Italic";
paths = (
{
closed = 1;
nodes = (
"307 -15 OFFCURVE",
"367 5 OFFCURVE",
"427 52 CURVE",
"416 0 LINE",
"562 0 LINE",
"664 480 LINE",
"513 480 LINE",
"503 437 LINE",
"469 475 OFFCURVE",
"413 495 OFFCURVE",
"341 495 CURVE SMOOTH",
"191 495 OFFCURVE",
"65 391 OFFCURVE",
"32 239 CURVE SMOOTH",
"0 85 OFFCURVE",
"92 -15 OFFCURVE",
"232 -15 CURVE SMOOTH"
);
},
{
closed = 1;
nodes = (
"193 102 OFFCURVE",
"168 148 OFFCURVE",
"187 239 CURVE SMOOTH",
"204 322 OFFCURVE",
"274 377 OFFCURVE",
"355 377 CURVE SMOOTH",
"418 377 OFFCURVE",
"464 340 OFFCURVE",
"471 285 CURVE",
"452 194 LINE",
"419 138 OFFCURVE",
"360 102 OFFCURVE",
"291 102 CURVE SMOOTH"
);
},
{
closed = 1;
nodes = (
"598 545 LINE",
"618 643 LINE",
"285 643 LINE",
"265 545 LINE"
);
}
);
width = 660;
}
);
leftKerningGroup = a;
note = amacron;
rightKerningGroup = a;
unicode = 0101;
},
